<?xml version="1.0" encoding="UTF-8" standalone="no"?>
<svg
   xmlns:dc="http://purl.org/dc/elements/1.1/"
   xmlns:cc="http://creativecommons.org/ns#"
   xmlns:rdf="http://www.w3.org/1999/02/22-rdf-syntax-ns#"
   xmlns:svg="http://www.w3.org/2000/svg"
   xmlns="http://www.w3.org/2000/svg"
   xmlns:sodipodi="http://sodipodi.sourceforge.net/DTD/sodipodi-0.dtd"
   xmlns:inkscape="http://www.inkscape.org/namespaces/inkscape"
   aria-hidden="true"
   data-prefix="fas"
   data-icon="sign-in-alt"
   class="svg-inline--fa fa-sign-in-alt fa-w-16"
   role="img"
   viewBox="0 0 226.89296 37"
   version="1.1"
   id="svg4"
   sodipodi:docname="2018-logo-prueba.inkscape.svg"
   inkscape:version="0.92.2 2405546, 2018-03-11"
   width="226.89296"
   height="37">
  <metadata
     id="metadata10">
    <rdf:RDF>
      <cc:Work
         rdf:about="">
        <dc:format>image/svg+xml</dc:format>
        <dc:type
           rdf:resource="http://purl.org/dc/dcmitype/StillImage" />
        <dc:title></dc:title>
      </cc:Work>
    </rdf:RDF>
  </metadata>
  <defs
     id="defs8" />
  <sodipodi:namedview
     pagecolor="#ffffff"
     bordercolor="#666666"
     borderopacity="1"
     objecttolerance="10"
     gridtolerance="10"
     guidetolerance="10"
     inkscape:pageopacity="0"
     inkscape:pageshadow="2"
     inkscape:window-width="1366"
     inkscape:window-height="713"
     id="namedview6"
     showgrid="false"
     inkscape:zoom="0.32593203"
     inkscape:cx="735.93092"
     inkscape:cy="-233.07131"
     inkscape:window-x="0"
     inkscape:window-y="0"
     inkscape:window-maximized="1"
     inkscape:current-layer="svg4"
     borderlayer="true"
     fit-margin-top="0"
     fit-margin-left="0"
     fit-margin-right="0"
     fit-margin-bottom="0" />
  <g
     id="g4612"
     transform="matrix(0.09731617,0,0,0.09731617,19.951464,-12.82588)"
     style="stroke-width:10.27578449">
    <g
       transform="translate(-269.01695,160)"
       id="g4547"
       style="stroke-width:10.27578449">
      <path
         d="m 64,256 v -84 c 0,-6.6 5.4,-12 12,-12 h 40 c 6.6,0 12,5.4 12,12 v 84 c 0,17.7 14.3,32 32,32 h 192 c 17.7,0 32,-14.3 32,-32 v -84 c 0,-6.6 5.4,-12 12,-12 h 40 c 6.6,0 12,5.4 12,12 v 84 c 0,53 -43,96 -96,96 H 160 c -53,0 -96,-43 -96,-96 z"
         id="path2"
         inkscape:connector-curvature="0"
         style="fill:currentColor;stroke-width:10.27578449"
         sodipodi:nodetypes="sssssssssssssssss" />
      <path
         inkscape:connector-curvature="0"
         style="fill:currentColor;stroke-width:10.27578449"
         d="m 271.84814,-16.222358 c -4.30645,-15.609501 -26.81494,-16.336281 -31.69629,0 -25.3668,85.564803 -79.60953,108.816342 -79.60953,169.122818 0,53.39122 42.69561,96.59125 95.45768,96.59125 52.76206,0 95.45768,-43.20003 95.45768,-96.59125 0,-60.610205 -54.12343,-83.167506 -79.60954,-169.122818 z M 256,214.77982 c -33.49154,0 -60.74581,-27.25425 -60.74581,-60.7458 0,-4.79458 3.88339,-8.67797 8.67797,-8.67797 4.79458,0 8.67798,3.88339 8.67798,8.67797 0,23.92409 19.46577,43.38986 43.38986,43.38986 4.79457,0 8.67797,3.88339 8.67797,8.67797 0,4.79458 -3.8834,8.67797 -8.67797,8.67797 z"
         id="path2-4" />
    </g>
    <g
       transform="translate(0,5.06941)"
       id="text4587"
       style="font-style:normal;font-variant:normal;font-weight:normal;font-stretch:normal;font-size:35.20407486px;line-height:1;font-family:sans-serif;-inkscape-font-specification:sans-serif;text-align:center;letter-spacing:0px;word-spacing:0px;text-anchor:middle;fill:#000000;fill-opacity:1;stroke:none;stroke-width:10.27578449"
       aria-label="PRUEBA">
      <path
         inkscape:connector-curvature="0"
         id="path4589"
         style="font-style:normal;font-variant:normal;font-weight:normal;font-stretch:normal;font-size:506.93869019px;font-family:'Rounded Mplus 1c Bold';-inkscape-font-specification:'Rounded Mplus 1c Bold, ';stroke-width:10.27578449"
         d="m 319.21773,190.43644 v 123.82319 q 0,3.59654 4.05551,4.62411 19.26367,2.56895 37.51346,2.56895 41.06204,0 62.35346,-17.98263 21.79836,-18.49641 21.79836,-52.40649 0,-68.33397 -84.15182,-68.33397 -18.24979,0 -37.51346,2.56894 -4.05551,1.02758 -4.05551,5.1379 z m -41.56897,316.49415 q -11.65959,0 -20.27755,-8.73441 -8.11102,-8.73442 -8.11102,-20.55157 V 163.7194 q 0,-12.33094 8.11102,-22.09294 8.11102,-9.76199 20.27755,-10.78957 43.08979,-4.11032 83.13794,-4.11032 76.04081,0 114.06121,30.82736 38.0204,30.31357 38.0204,88.37174 0,64.22365 -37.00653,97.10616 -36.49958,32.88251 -108.48487,32.88251 -16.72898,0 -44.10367,-2.05516 -4.05551,0 -4.05551,4.11032 v 99.67511 q 0,11.81715 -8.61796,20.55157 -8.61796,8.73441 -20.27755,8.73441 z" />
      <path
         inkscape:connector-curvature="0"
         id="path4591"
         style="font-style:normal;font-variant:normal;font-weight:normal;font-stretch:normal;font-size:506.93869019px;font-family:'Rounded Mplus 1c Bold';-inkscape-font-specification:'Rounded Mplus 1c Bold, ';stroke-width:10.27578449"
         d="M 638.03465,190.43644 V 301.9287 q 0,4.11031 4.56245,4.11031 h 25.34694 q 90.23508,0 90.23508,-65.25123 0,-58.05818 -83.64488,-58.05818 -15.20816,0 -31.93714,2.56894 -4.56245,1.02758 -4.56245,5.1379 z m -41.06203,316.49415 q -11.65959,0 -20.27755,-8.73441 -8.61795,-8.73442 -8.61795,-20.55157 V 163.7194 q 0,-12.33094 8.11101,-22.09294 8.11102,-9.76199 20.27755,-10.78957 43.08979,-4.11032 83.13795,-4.11032 74.51998,0 111.52651,28.25841 37.00652,27.74462 37.00652,78.60975 0,36.47904 -19.77061,64.22366 -19.26367,27.74461 -52.21468,39.04798 -0.50694,0 -0.50694,0.51379 0,1.02757 0.50694,1.02757 24.33306,15.41367 41.56897,60.62713 l 30.41632,80.6649 q 3.54857,9.762 -2.53469,18.49642 -5.57633,8.73441 -15.7151,8.73441 h -15.7151 q -13.1804,0 -23.82612,-7.19305 -10.64571,-7.70684 -15.20816,-20.03778 l -28.38856,-79.12354 q -9.1249,-24.66188 -20.78449,-32.36871 -11.65959,-7.70684 -40.04816,-7.70684 H 642.5971 q -4.56245,0 -4.56245,4.62409 v 112.51985 q 0,11.81715 -8.61795,20.55157 -8.11102,8.73441 -19.77061,8.73441 z" />
      <path
         inkscape:connector-curvature="0"
         id="path4593"
         style="font-style:normal;font-variant:normal;font-weight:normal;font-stretch:normal;font-size:506.93869019px;font-family:'Rounded Mplus 1c Bold';-inkscape-font-specification:'Rounded Mplus 1c Bold, ';stroke-width:10.27578449"
         d="m 1153.5913,368.2075 q 0,138.72309 -136.8735,138.72309 -136.87343,0 -136.87343,-138.72309 V 156.01255 q 0,-11.81715 8.61796,-20.55156 8.61795,-8.73442 20.27754,-8.73442 h 14.19429 q 11.65959,0 20.27754,8.73442 8.61796,8.73441 8.61796,20.55156 v 216.30526 q 0,40.07556 15.7151,58.05819 16.22204,17.46883 50.18694,17.46883 33.9649,0 49.68,-17.46883 16.222,-17.98263 16.222,-58.05819 V 156.01255 q 0,-11.81715 8.618,-20.55156 8.6179,-8.73442 20.2775,-8.73442 h 12.1666 q 11.6595,0 20.2775,8.73442 8.618,8.73441 8.618,20.55156 z" />
      <path
         inkscape:connector-curvature="0"
         id="path4595"
         style="font-style:normal;font-variant:normal;font-weight:normal;font-stretch:normal;font-size:506.93869019px;font-family:'Rounded Mplus 1c Bold';-inkscape-font-specification:'Rounded Mplus 1c Bold, ';stroke-width:10.27578449"
         d="m 1257.3791,506.93059 q -11.6596,0 -20.2776,-8.85406 -8.6179,-8.85407 -8.6179,-20.8331 V 156.41375 q 0,-11.97903 8.6179,-20.83309 8.618,-8.85406 20.2776,-8.85406 h 172.3591 q 11.6596,0 20.2776,8.85406 8.6179,8.85406 8.6179,20.83309 0,11.97903 -8.6179,20.8331 -8.618,8.33324 -20.2776,8.33324 h -125.7208 q -4.5624,0 -4.5624,4.68745 v 83.85321 q 0,4.68745 4.5624,4.68745 h 117.1029 q 11.6596,0 19.2637,8.33324 8.111,8.33323 8.111,19.79144 0,11.4582 -8.111,19.79144 -7.6041,7.81241 -19.2637,7.81241 h -117.1029 q -4.5624,0 -4.5624,4.68744 v 104.16548 q 0,4.68744 4.5624,4.68744 h 125.7208 q 11.6596,0 20.2776,8.85407 8.6179,8.33324 8.6179,20.31227 0,11.97903 -8.6179,20.8331 -8.618,8.85406 -20.2776,8.85406 z" />
      <path
         inkscape:connector-curvature="0"
         id="path4597"
         style="font-style:normal;font-variant:normal;font-weight:normal;font-stretch:normal;font-size:506.93869019px;font-family:'Rounded Mplus 1c Bold';-inkscape-font-specification:'Rounded Mplus 1c Bold, ';stroke-width:10.27578449"
         d="m 1603.3964,337.61307 v 106.45712 q 0,4.05551 4.5625,5.06939 17.7428,2.53469 33.4579,2.53469 42.076,0 61.3396,-15.20816 19.7706,-15.7151 19.7706,-47.65223 0,-28.38857 -22.8122,-41.56898 -22.3053,-13.68734 -74.52,-13.68734 h -17.7428 q -4.0556,0 -4.0556,4.05551 z m 0,-148.0261 v 86.68652 q 0,4.56244 4.0556,4.56244 h 14.7012 q 47.1453,0 67.9298,-12.67346 21.2914,-13.18041 21.2914,-38.52734 0,-24.33306 -17.2359,-35.99265 -17.2359,-11.65959 -56.2702,-11.65959 -17.7429,0 -30.4163,2.02775 -4.0556,1.01388 -4.0556,5.57633 z m -41.5689,313.28811 q -12.1666,-1.01388 -20.2776,-10.13877 -8.111,-9.63184 -8.111,-22.30531 V 163.22616 q 0,-12.67347 8.111,-21.79837 8.111,-9.63183 20.7845,-10.64571 37.5135,-4.05551 72.4922,-4.05551 141.9429,0 141.9429,92.76978 0,30.92326 -20.7845,53.7355 -20.7845,22.81224 -54.7494,29.40245 -0.5069,0 -0.5069,0.50694 0,1.01387 0.5069,1.01387 41.569,6.08327 64.8882,30.92326 23.8261,24.33306 23.8261,60.32571 0,55.76325 -36.4996,83.64488 -36.4996,27.88163 -113.5543,27.88163 -38.5273,0 -78.0685,-4.05551 z" />
      <path
         inkscape:connector-curvature="0"
         id="path4599"
         style="font-style:normal;font-variant:normal;font-weight:normal;font-stretch:normal;font-size:506.93869019px;font-family:'Rounded Mplus 1c Bold';-inkscape-font-specification:'Rounded Mplus 1c Bold, ';stroke-width:10.27578449"
         d="m 1971.5765,191.3092 -44.6106,163.5398 q -0.5069,1.56247 0.5069,3.12496 1.0139,1.56248 2.5347,1.56248 h 84.1519 q 1.5208,0 2.5347,-1.56248 1.0138,-1.56249 0.5069,-3.12496 l -44.6106,-163.5398 q 0,-0.52083 -0.507,-0.52083 -0.5069,0 -0.5069,0.52083 z m -131.2971,315.62139 q -10.6457,0 -16.729,-8.85406 -6.0833,-8.85407 -2.5347,-19.27062 L 1925.952,154.85128 q 4.5625,-12.49986 14.7012,-20.31227 10.6458,-7.81241 23.3192,-7.81241 h 18.2498 q 13.1804,0 23.3192,7.81241 10.6457,7.81241 14.7012,20.31227 l 104.9363,323.95463 q 3.5486,10.41655 -2.5347,19.27062 -6.0832,8.85406 -16.7289,8.85406 h -18.2498 q -12.1666,0 -22.8123,-7.81241 -10.1387,-8.33324 -13.6873,-20.83309 l -16.2221,-58.8535 q -0.5069,-4.16662 -5.5763,-4.16662 h -114.5681 q -4.5625,0 -5.5764,4.16662 l -16.222,58.8535 q -3.0416,12.49985 -13.6873,20.83309 -10.1388,7.81241 -22.8123,7.81241 z" />
    </g>
  </g>
</svg>
