<?xml version="1.0" encoding="UTF-8" standalone="no"?>
<!-- Created with Inkscape (http://www.inkscape.org/) -->

<svg
   xmlns:dc="http://purl.org/dc/elements/1.1/"
   xmlns:cc="http://creativecommons.org/ns#"
   xmlns:rdf="http://www.w3.org/1999/02/22-rdf-syntax-ns#"
   xmlns:svg="http://www.w3.org/2000/svg"
   xmlns="http://www.w3.org/2000/svg"
   xmlns:sodipodi="http://sodipodi.sourceforge.net/DTD/sodipodi-0.dtd"
   xmlns:inkscape="http://www.inkscape.org/namespaces/inkscape"
   width="512"
   height="512"
   viewBox="0 0 135.46666 135.46667"
   version="1.1"
   id="svg8"
   sodipodi:docname="icono-bandera-horizontal-base-esquinas-512-80x80px-condom.inkscape.svg"
   inkscape:version="0.92.4 5da689c313, 2019-01-14">
  <defs
     id="defs2">
    <clipPath
       clipPathUnits="userSpaceOnUse"
       id="clipPath974">
      <rect
         ry="21.166666"
         rx="21.166666"
         y="161.53331"
         x="2.7270507e-06"
         height="135.46666"
         width="135.46666"
         id="rect976"
         style="opacity:1;fill:#000000;fill-opacity:1;stroke:none;stroke-width:0.26458332;stroke-opacity:1" />
    </clipPath>
  </defs>
  <sodipodi:namedview
     id="base"
     pagecolor="#ffffff"
     bordercolor="#666666"
     borderopacity="1.0"
     inkscape:pageopacity="0.0"
     inkscape:pageshadow="2"
     inkscape:zoom="0.62932504"
     inkscape:cx="161.01793"
     inkscape:cy="131.80803"
     inkscape:document-units="px"
     inkscape:current-layer="g972"
     showgrid="false"
     units="px"
     borderlayer="true"
     inkscape:window-width="1366"
     inkscape:window-height="703"
     inkscape:window-x="0"
     inkscape:window-y="0"
     inkscape:window-maximized="1"
     objecttolerance="1" />
  <metadata
     id="metadata5">
    <rdf:RDF>
      <cc:Work
         rdf:about="">
        <dc:format>image/svg+xml</dc:format>
        <dc:type
           rdf:resource="http://purl.org/dc/dcmitype/StillImage" />
        <dc:title></dc:title>
      </cc:Work>
    </rdf:RDF>
  </metadata>
  <g
     inkscape:label="Layer 1"
     inkscape:groupmode="layer"
     id="layer1"
     transform="translate(0,-161.53331)">
    <g
       id="g898">
      <g
         id="g988">
        <g
           clip-path="url(#clipPath974)"
           id="g972">
          <g
             id="g850"
             clip-path="none">
            <path
               style="opacity:1;fill:#ed1c24;fill-opacity:1;stroke:none;stroke-width:0.26458332;stroke-opacity:1"
               clip-path="none"
               d="m 0,161.53331 h 135.46666 v 23.10686 H 0 Z"
               id="rect815"
               inkscape:connector-curvature="0"
               sodipodi:nodetypes="ccccc" />
            <path
               transform="matrix(1,0,0,-1,-2.7270507e-6,0)"
               style="opacity:1;fill:#f37221;fill-opacity:1;stroke:none;stroke-width:0.26458332;stroke-opacity:1"
               clip-path="none"
               d="m 0,-207.21812 h 135.46667 l -1e-5,23.10704 L 0,-184.111 Z"
               id="rect815-3"
               inkscape:connector-curvature="0"
               sodipodi:nodetypes="ccccc" />
            <path
               transform="scale(1,-1)"
               style="opacity:1;fill:#fff200;fill-opacity:1;stroke:none;stroke-width:0.26458332;stroke-opacity:1"
               clip-path="none"
               d="m 0,-229.79581 h 135.46666 v 23.10695 L 0,-206.68895 Z"
               id="rect815-3-6"
               inkscape:connector-curvature="0"
               sodipodi:nodetypes="ccccc" />
            <path
               transform="scale(1,-1)"
               style="opacity:1;fill:#249e46;fill-opacity:1;stroke:none;stroke-width:0.26458332;stroke-opacity:1"
               clip-path="none"
               d="m 0,-252.3735 h 135.46666 v 23.10686 H 0 Z"
               id="rect815-3-6-7"
               inkscape:connector-curvature="0"
               sodipodi:nodetypes="ccccc" />
            <path
               transform="scale(1,-1)"
               style="opacity:1;fill:#00aeef;fill-opacity:1;stroke:none;stroke-width:0.26458332;stroke-opacity:1"
               clip-path="none"
               d="m 0,-274.95092 h 135.46666 v 23.10651 L 0,-251.84433 Z"
               id="rect815-3-6-7-5"
               inkscape:connector-curvature="0"
               sodipodi:nodetypes="ccccc" />
            <path
               transform="scale(1,-1)"
               style="opacity:1;fill:#623b88;fill-opacity:1;stroke:none;stroke-width:0.26458332;stroke-opacity:1"
               clip-path="none"
               d="M -2.7270507e-6,-296.99997 H 135.46666 v 22.57822 l -135.4666627270507,-1e-5 z"
               id="rect815-3-6-7-5-3"
               inkscape:connector-curvature="0"
               sodipodi:nodetypes="ccccc" />
          </g>
          <path
             style="opacity:1;fill:#000000;fill-opacity:0.1254902;stroke:none;stroke-width:0.36782652;stroke-opacity:1"
             d="m 38.992292,257.73061 49.289766,-21.6184 21.618462,-49.28978 89.52205,89.52191 -0.82037,68.74838 -72.29481,-0.0472 z"
             id="rect961"
             inkscape:connector-curvature="0"
             sodipodi:nodetypes="ccccccc" />
        </g>
        <g
           id="g4606"
           transform="translate(233.2718,-2.0695723)"
           style="fill:#ffffff">
          <path
             inkscape:connector-curvature="0"
             id="path4600"
             d="m -206.42817,236.0385 -3.15318,4.41445 36.15646,33.63392 4.41445,-4.41445 -2.31233,-6.51657 42.88325,-41.83219 3.5736,-9.66975 -2.52254,-8.82891 3.78381,-6.93699 -4.62466,-6.30636 -10.09018,2.10212 -11.77187,-1.05106 -10.09017,7.77784 -38.25858,37.62795 z"
             style="fill:#ffffff;stroke:#000000;stroke-width:0.26458332px;stroke-linecap:butt;stroke-linejoin:miter;stroke-opacity:1" />
          <g
             style="fill:#ffffff;fill-opacity:1;stroke:none;stroke-opacity:1"
             transform="matrix(0.09218057,0,0,0.09218057,-211.62814,185.24617)"
             id="g3782">
            <g
               style="fill:#ffffff;fill-opacity:1;stroke:none;stroke-opacity:1"
               transform="matrix(0.1,0,0,-0.1,0,511)"
               id="g3780">
              <path
                 style="fill:#ffffff;fill-opacity:1;stroke:none;stroke-opacity:1"
                 inkscape:connector-curvature="0"
                 d="m 8500.2,4952.4 c -102.9,-37.5 -238.7,-107.7 -304.3,-159.2 -107.7,-74.9 -145.1,-79.6 -309,-28.1 -229.4,70.2 -955,79.5 -1240.6,14 -112.3,-23.4 -346.4,-112.4 -515,-192 C 5855.1,4456 5621.1,4236 3589.3,2213.6 L 1356.4,-14.6 1056.8,-0.6 C 560.6,27.5 256.3,-192.5 134.5,-656 c -46.8,-168.5 -46.8,-257.5 4.7,-440 56.2,-210.7 182.6,-351.1 1680.6,-1858.5 889.5,-894.1 1694.7,-1675.9 1783.6,-1732.1 210.7,-131.1 608.6,-135.8 861.4,-14 323,163.8 538.4,613.3 454.1,964.4 l -37.5,163.8 2233,2247.1 c 2378.2,2392.2 2387.5,2401.6 2551.4,3024.2 84.3,304.3 84.3,1025.2 4.7,1282.7 -51.5,177.9 -46.8,201.3 89,416.7 121.7,196.6 140.4,276.2 140.4,543 0,266.9 -23.4,346.4 -140.4,543.1 -266.8,425.9 -819.2,631.9 -1259.3,468 z m 589.9,-763.1 c 145.1,-131.1 107.7,-374.5 -84.3,-585.2 -187.3,-210.7 -192,-290.2 -42.2,-786.5 112.4,-369.8 74.9,-833.3 -93.6,-1217.2 -126.4,-280.9 -285.5,-458.8 -2265.8,-2443.7 -1170.3,-1179.6 -2153.4,-2144 -2181.5,-2144 -60.8,0 -2504.6,2443.7 -2504.6,2504.6 0,28.1 964.4,1011.2 2144.1,2181.6 1985,1980.2 2162.9,2139.3 2443.8,2265.7 383.9,168.6 847.4,206 1217.2,93.6 496.2,-149.8 580.5,-145.1 781.8,42.1 201.2,187.4 435.3,224.8 585.1,89 z M 2657.8,-2252.3 c 1301.5,-1301.4 1558.9,-1582.3 1544.9,-1675.9 -9.3,-74.9 -51.5,-117 -126.4,-126.4 -93.6,-14 -374.5,243.4 -1676,1544.9 C 911.7,-1021.1 757.2,-838.5 874.2,-726.2 c 112.4,117 295,-37.4 1783.6,-1526.1 z"
                 id="path3778" />
            </g>
          </g>
        </g>
      </g>
    </g>
  </g>
</svg>
