<?xml version="1.0" encoding="UTF-8" standalone="no"?>
<!-- Created with Inkscape (http://www.inkscape.org/) -->

<svg
   xmlns:dc="http://purl.org/dc/elements/1.1/"
   xmlns:cc="http://creativecommons.org/ns#"
   xmlns:rdf="http://www.w3.org/1999/02/22-rdf-syntax-ns#"
   xmlns:svg="http://www.w3.org/2000/svg"
   xmlns="http://www.w3.org/2000/svg"
   xmlns:sodipodi="http://sodipodi.sourceforge.net/DTD/sodipodi-0.dtd"
   xmlns:inkscape="http://www.inkscape.org/namespaces/inkscape"
   version="1.1"
   width="110.99432mm"
   height="47.291454mm"
   id="svg3346"
   inkscape:version="0.91 r13725"
   sodipodi:docname="Logotipu_CMX SOLO.svg">
  <sodipodi:namedview
     pagecolor="#ffffff"
     bordercolor="#666666"
     borderopacity="1"
     objecttolerance="10"
     gridtolerance="10"
     guidetolerance="10"
     inkscape:pageopacity="0"
     inkscape:pageshadow="2"
     inkscape:window-width="705"
     inkscape:window-height="480"
     id="namedview29"
     showgrid="false"
     fit-margin-top="0"
     fit-margin-left="0"
     fit-margin-right="0"
     fit-margin-bottom="0"
     inkscape:zoom="0.22425739"
     inkscape:cx="288.69073"
     inkscape:cy="67.107998"
     inkscape:window-x="1301"
     inkscape:window-y="240"
     inkscape:window-maximized="0"
     inkscape:current-layer="svg3346" />
  <defs
     id="defs3348" />
  <metadata
     id="metadata3351">
    <rdf:RDF>
      <cc:Work
         rdf:about="">
        <dc:format>image/svg+xml</dc:format>
        <dc:type
           rdf:resource="http://purl.org/dc/dcmitype/StillImage" />
        <dc:title></dc:title>
      </cc:Work>
    </rdf:RDF>
  </metadata>
  <g
     id="layer1"
     transform="translate(-83.356513,-425.72095)">
    <g
       transform="matrix(1.25,0,0,-1.25,-93.136513,1150.3891)"
       id="g3256">
      <path
         d="m 260.56,561.456 -96.048,0 c -5.832,0 -10.656,-4.824 -10.656,-10.728 l 0,-95.976 96.048,0 c 5.904,0 10.656,4.752 10.656,10.656 l 0,96.048 z"
         id="path20"
         style="fill:#f46f1b;fill-opacity:1;fill-rule:evenodd;stroke:none"
         inkscape:connector-curvature="0" />
      <path
         d="m 455.824,561.456 -171.864,0 c -10.512,0 -19.08,-4.824 -19.08,-10.728 l 0,-95.976 171.792,0 c 10.512,0 19.152,4.752 19.152,10.656 l 0,96.048 z"
         id="path22"
         style="fill:#231f20;fill-opacity:1;fill-rule:evenodd;stroke:none"
         inkscape:connector-curvature="0" />
      <path
         d="m 196.696,560.592 c -0.864,-0.36 -1.584,-0.504 -2.088,-0.504 -0.576,0 -1.08,0.216 -1.44,0.504 -0.576,0.504 -0.792,1.152 -0.576,1.944 0.144,0.576 0.576,1.152 1.368,1.728 0.432,0.36 0.864,0.576 1.296,0.792 -1.944,0.36 -4.104,0.936 -4.68,2.016 -0.648,1.152 -0.432,2.232 1.224,3.096 0.432,0.288 0.936,0.288 1.656,0.288 0.576,0 1.296,0.072 2.016,0.144 -0.144,0.144 -0.288,0.288 -0.432,0.36 -0.648,0.504 -1.224,0.936 -1.656,1.44 -1.008,1.152 -1.224,2.304 0.072,3.456 1.008,0.864 2.088,0.72 3.24,0.144 l 0,-9.936 c -0.072,0 -0.072,-0.072 -0.072,-0.144 l 0,0.072 0.072,0.072 -0.072,-0.072 0.072,0 0,-5.4 z m 5.328,-1.872 -0.792,1.224 c -0.792,1.152 -1.656,1.656 -2.376,1.728 -0.072,0 -0.144,-0.072 -0.216,-0.072 l -0.144,0 0.072,0 -0.072,-0.072 c -0.648,-0.36 -1.296,-0.72 -1.8,-0.936 l 0,5.4 0,0.072 0,9.936 c 0.432,-0.216 0.936,-0.504 1.44,-0.792 l 0.36,-0.216 -0.072,0.36 c -0.288,1.512 -0.504,2.736 0.576,3.6 1.224,0.936 2.16,0.864 3.024,0.288 l 0,-8.64 -1.296,0.504 0.072,0.144 -0.288,-0.072 c -0.36,-0.072 -0.72,-0.144 -1.152,-0.072 l 0.072,0 0.432,-0.864 -0.576,-0.792 c -0.432,-0.72 -1.008,-1.152 -1.656,-1.512 1.224,-0.216 2.016,-0.504 2.304,-1.44 l 0,-0.216 0,-0.216 c 0,-0.504 -0.072,-0.936 -0.216,-1.296 0.792,-0.144 1.584,-0.432 2.304,-1.008 l 0,-5.04 z m 7.776,7.416 0,0 0.504,-1.152 -0.936,-0.792 -5.832,-4.608 -1.368,-1.08 -0.144,0.216 0,5.04 c 0.288,-0.216 0.504,-0.432 0.72,-0.648 l 3.672,2.952 c -0.072,0.144 -0.072,0.288 -0.144,0.504 -0.144,0.36 -0.216,0.792 -0.36,1.08 -0.864,-0.072 -1.152,-0.144 -1.8,0.72 l -0.504,0.648 0.216,0.72 0.072,0.144 c 0,0.144 0,0.216 0.072,0.36 -0.504,-0.072 -1.08,0 -1.728,0.288 l -0.216,0.072 0,8.64 c 0.288,-0.216 0.504,-0.432 0.792,-0.792 0.504,-0.72 0.864,-1.728 1.152,-2.808 l 0.072,-0.144 c 0.072,-0.288 0.144,-0.576 0.216,-0.864 0.288,0.504 0.576,0.936 1.008,1.224 l 0.072,0 c 0.936,0.576 2.016,0.216 2.808,-0.648 0.288,-0.36 0.576,-0.864 0.792,-1.296 0.288,-0.504 0.432,-1.08 0.504,-1.656 0.072,-0.936 -0.216,-1.8 -1.008,-2.376 0.432,-0.72 0.72,-1.584 0.936,-2.448 0.144,-0.432 0.288,-0.936 0.432,-1.296"
         id="path24"
         style="fill:#231f20;fill-opacity:1;fill-rule:nonzero;stroke:none"
         inkscape:connector-curvature="0" />
      <path
         d="m 188.416,509.472 c -0.576,0.144 -1.152,0.216 -1.656,0.144 -0.72,-0.936 -1.512,-1.944 -2.304,-2.808 -1.584,-1.368 -3.096,-2.448 -4.896,-3.312 -0.72,-0.288 -1.512,-0.576 -2.232,-0.864 -1.44,-0.504 -1.44,-0.504 -3.456,-0.936 -1.944,-0.288 -3.96,-0.36 -5.904,-0.432 -3.6,0.216 -7.128,1.008 -10.44,2.232 -1.656,0.72 -3.168,1.512 -4.68,2.376 -0.504,0.36 -0.792,0.576 -1.08,0.72 -0.432,-0.432 -1.008,-0.864 -1.728,-1.08 -1.872,-0.72 -3.888,0 -4.32,1.152 -0.36,1.08 1.512,2.592 2.376,3.384 -2.52,-1.152 -7.056,1.152 -5.832,4.248 0.504,1.368 3.312,0.936 4.824,0.864 -1.296,1.728 -4.536,4.392 -2.16,5.904 2.376,1.584 4.824,-2.304 5.544,-3.96 1.008,1.656 -0.072,6.192 1.296,6.768 4.176,1.8 2.808,-5.976 4.176,-6.48 0.792,1.296 2.376,4.896 3.384,4.392 1.008,-0.432 1.296,-2.232 0.504,-4.032 -0.144,-0.288 -0.288,-0.504 -0.432,-0.792 3.024,-5.544 8.424,-9.936 15.408,-8.496 2.376,0.36 3.96,1.512 5.544,3.312 0.864,1.152 0.864,1.152 1.584,2.376 1.224,2.232 1.584,3.096 1.728,3.24 0.36,0.216 0.648,0.504 0.936,0.864 0.216,0.144 0.504,0.288 0.792,0.504 l 3.024,-9.288 z"
         id="path26"
         style="fill:#231f20;fill-opacity:1;fill-rule:evenodd;stroke:none"
         inkscape:connector-curvature="0" />
      <path
         d="m 184.384,542.448 4.464,0.216 c -0.216,-1.512 -1.296,-2.088 -1.224,-3.6 1.152,-0.504 2.376,-1.008 3.528,-1.512 l -4.824,-4.104 c 2.736,-0.216 4.248,0.792 6.912,3.672 1.512,-28.944 -36.432,2.16 -8.856,5.328"
         id="path28"
         style="fill:#231f20;fill-opacity:1;fill-rule:evenodd;stroke:none"
         inkscape:connector-curvature="0" />
      <path
         d="m 168.544,533.664 c -0.504,0.432 -1.008,0.864 -1.512,1.296 -2.592,-0.36 -5.184,-0.792 -7.704,-1.152 0,0 0,0.072 -0.072,0.072 1.584,1.224 3.168,2.448 4.608,3.744 0.072,0.072 0.144,0.072 0.288,0.072 0.936,-0.864 1.944,-1.728 2.88,-2.664 2.016,0.36 4.176,0.792 6.192,0.936 -1.584,-0.792 -3.168,-1.584 -4.68,-2.304"
         id="path30"
         style="fill:#231f20;fill-opacity:1;fill-rule:evenodd;stroke:none"
         inkscape:connector-curvature="0" />
      <path
         d="m 168.256,537.12 c -0.432,0.504 -0.72,1.08 -1.08,1.656 -2.592,0.432 -5.184,0.936 -7.776,1.296 1.944,0.72 3.96,1.368 5.904,2.088 0.432,-0.144 1.656,-2.736 1.944,-3.312 1.224,-0.216 1.224,-0.216 6.336,-0.864 -0.144,-0.072 -0.144,-0.072 -3.168,-0.576 -0.72,-0.072 -1.44,-0.216 -2.16,-0.288"
         id="path32"
         style="fill:#231f20;fill-opacity:1;fill-rule:evenodd;stroke:none"
         inkscape:connector-curvature="0" />
      <path
         d="m 170.056,541.008 c -0.072,0.648 -0.072,1.224 -0.072,1.8 -1.008,0.72 -1.008,0.72 -1.872,1.368 -4.824,3.096 -4.824,3.096 -4.824,3.168 1.8,-0.144 3.672,-0.288 5.472,-0.432 0.36,0 0.648,0.144 0.936,0 0.072,-1.296 0.216,-2.664 0.36,-4.032 1.728,-1.08 3.456,-2.232 5.256,-3.384 -1.8,0.504 -3.528,1.008 -5.256,1.512"
         id="path34"
         style="fill:#231f20;fill-opacity:1;fill-rule:evenodd;stroke:none"
         inkscape:connector-curvature="0" />
      <path
         d="m 184.24,541.368 3.6,0.216 c -0.648,-0.864 -1.368,-1.728 -0.936,-3.312 0.504,-0.432 1.152,-0.576 2.448,-1.08 l -4.752,-3.744 c 2.664,-1.944 5.616,-1.008 7.92,2.448 0.72,-24.696 -31.968,2.952 -8.28,5.472"
         id="path36"
         style="fill:#ffffff;fill-opacity:1;fill-rule:evenodd;stroke:none"
         inkscape:connector-curvature="0" />
      <path
         d="m 182.224,538.488 c -0.648,-0.072 -1.152,-0.576 -1.152,-1.224 0.072,-0.648 0.576,-1.224 1.224,-1.152 0.72,0 1.224,0.576 1.152,1.224 0,0.648 -0.576,1.152 -1.224,1.152"
         id="path38"
         style="fill:#231f20;fill-opacity:1;fill-rule:evenodd;stroke:none"
         inkscape:connector-curvature="0" />
      <path
         d="m 196.264,460.584 c -1.656,-0.432 -3.24,-0.72 -4.968,-0.936 -0.864,0 -1.728,-0.072 -2.664,-0.072 -2.016,0.144 -2.016,0.144 -2.232,0.144 2.088,-2.808 3.6,-5.544 4.32,-9 0.288,-2.088 0.216,-4.68 -2.448,-5.04 -11.304,17.208 -11.304,17.208 -11.376,17.352 0.936,1.368 2.016,1.584 3.6,1.152 0.432,-0.144 0.792,-0.288 1.224,-0.504 1.296,0.144 2.664,0.576 3.744,1.224 4.104,1.656 7.272,4.104 10.152,7.416 0.288,0.36 0.504,0.648 0.648,0.864 l 0,-12.6 z m 0,99.504 c -0.936,-0.36 -1.656,-0.576 -2.16,-0.576 -0.576,0 -1.08,0.216 -1.44,0.504 -0.648,0.504 -0.864,1.224 -0.648,2.016 0.144,0.576 0.648,1.224 1.44,1.8 0.432,0.36 0.936,0.648 1.296,0.864 -1.944,0.288 -4.176,0.864 -4.824,2.088 -0.648,1.152 -0.432,2.232 1.224,3.168 0.504,0.288 1.08,0.288 1.8,0.288 0.576,0 1.368,0 2.016,0.144 -0.144,0.144 -0.288,0.288 -0.432,0.36 -0.648,0.504 -1.296,1.008 -1.728,1.512 -1.008,1.224 -1.224,2.376 0.072,3.528 1.08,0.936 2.232,0.72 3.384,0.216 l 0,-10.368 c 0,0.072 -0.072,0 -0.072,-0.072 l 0.072,0 0,0.072 0,-0.072 0,0.072 0,-5.544 z m -10.512,-50.616 c -0.72,-0.864 -1.368,-1.728 -2.16,-2.592 -0.072,-0.072 -0.216,-0.216 -0.288,-0.288 -1.512,-1.368 -3.024,-2.376 -4.824,-3.24 -0.792,-0.288 -1.512,-0.576 -2.232,-0.864 -1.44,-0.504 -1.44,-0.504 -3.528,-0.936 -1.872,-0.288 -3.888,-0.36 -5.832,-0.432 -3.6,0.216 -7.128,1.008 -10.44,2.232 -1.656,0.72 -3.168,1.512 -4.68,2.376 l -0.936,0.648 c 0.072,-0.216 0.144,-0.36 -1.08,-1.008 -1.8,-1.008 -4.392,0.144 -4.824,1.368 -0.432,1.152 1.44,2.592 2.304,3.384 -2.52,-1.152 -7.056,1.152 -5.832,4.248 0.576,1.368 3.312,0.936 4.896,0.864 -1.368,1.8 -3.96,4.248 -1.8,5.688 2.16,1.44 4.392,-2.088 5.112,-3.744 1.008,1.656 -0.072,6.264 1.368,6.768 5.4,1.872 3.168,-5.976 4.104,-6.48 0.864,1.368 2.952,4.896 3.888,4.464 1.008,-0.504 0.432,-3.096 0,-4.104 -0.504,-1.008 -0.288,-0.504 -0.432,-0.792 3.672,-4.752 8.64,-9.144 15.48,-8.496 1.656,0.288 2.952,0.936 4.104,1.944 0.432,0.36 0.792,0.72 1.152,1.152 0.792,1.152 0.792,1.152 1.584,2.376 1.224,2.232 1.584,3.096 1.728,3.24 0.072,0.072 0.144,0.072 0.144,0.144 l 0.072,0.072 c 0.144,0.072 0.216,0.144 0.36,0.216 0.072,0.144 0.216,0.288 0.36,0.432 l 0.072,0.072 0.144,0.144 c 0.288,0.144 0.504,0.288 0.792,0.504 l 0,-0.072 c 0.864,0.648 1.656,1.368 2.16,2.304 -1.512,3.672 -1.512,3.672 -1.656,3.816 l 7.776,6.192 c 0.648,-1.224 1.44,-2.592 2.088,-3.816 0.432,0.504 0.936,1.008 1.368,1.512 l 0,-37.008 c -1.008,1.944 -1.872,3.96 -2.808,5.976 -0.936,2.736 -1.8,5.616 -2.664,8.424 -0.648,1.44 -1.08,2.376 -2.664,3.024 -0.72,0.144 -1.584,0.36 -2.376,0.288 m 10.512,19.296 c 0.432,0.432 0.864,0.936 1.296,1.368 1.224,1.008 2.52,2.016 3.672,3.024 1.368,1.44 2.448,2.952 3.312,4.752 0.864,2.232 1.224,4.392 1.224,6.768 -0.144,0.864 -0.216,1.656 -0.288,2.52 -0.504,2.16 -1.224,4.248 -2.232,6.264 -1.224,2.016 -2.592,5.904 -4.32,7.632 l -0.432,0 -0.216,0 c 0,0 -0.072,0 -0.072,-0.072 -0.72,-0.432 -1.368,-0.72 -1.944,-0.936 l 0,5.544 0,10.368 c 0.504,-0.216 1.008,-0.576 1.512,-0.864 l 0.36,-0.216 -0.072,0.36 c -0.216,1.512 -0.504,2.88 0.576,3.672 1.656,1.296 2.952,0.864 3.96,-0.432 0.576,-0.72 0.936,-1.8 1.224,-2.952 l 0.072,-0.144 c 0.072,-0.288 0.144,-0.576 0.216,-0.864 0.288,0.504 0.576,0.936 1.008,1.224 l 0.072,0 c 1.008,0.648 2.088,0.288 2.952,-0.648 0.288,-0.36 0.648,-0.864 0.864,-1.368 0.288,-0.504 0.432,-1.08 0.504,-1.656 0.072,-1.008 -0.216,-1.872 -1.08,-2.448 0.144,-0.216 0.288,-0.432 0.36,-0.648 l 0.072,0.072 c 6.984,-9.936 6.192,-19.512 3.024,-30.384 -1.728,-4.176 -4.104,-8.136 -6.84,-11.808 -0.216,-0.288 -0.36,-0.504 -2.232,-2.376 -0.432,-3.672 -0.072,-7.056 1.008,-10.584 0.288,-0.648 0.576,-1.296 0.864,-1.944 0.864,-1.296 1.656,-2.52 2.88,-3.6 0.432,-0.288 0.936,-0.576 1.44,-0.864 0.72,0.72 1.512,1.512 2.232,2.232 0.864,0.648 1.656,1.296 2.52,1.944 3.744,2.52 7.416,4.248 11.952,4.824 0.648,0 1.368,0.072 2.016,0.072 2.304,-0.144 4.176,-0.936 6.192,-2.016 7.344,-5.256 8.424,-15.696 9.288,-23.976 0.36,0.144 0.648,0.216 1.008,0.36 0.432,0.288 0.936,0.576 1.44,0.864 3.6,1.8 6.912,3.168 11.016,2.88 0,0.072 0.072,0.072 0.144,0.144 0.072,-0.144 0.072,-0.144 0,-0.216 1.728,-0.504 2.736,-1.08 2.808,-3.024 -6.192,-2.88 -12.384,-5.76 -18.504,-8.64 -0.144,-0.072 -0.288,-0.072 -0.36,-0.072 -0.936,1.008 -1.08,1.656 -0.792,3.096 0.216,0.648 0.576,1.296 1.008,1.872 -0.072,2.304 -1.872,4.68 -3.168,6.48 -1.152,1.152 -1.152,1.152 -2.304,2.16 -4.392,3.24 -9.144,4.536 -14.544,4.896 -4.608,-0.144 -8.568,-0.936 -12.24,-3.888 -0.576,-0.504 -1.152,-1.008 -1.512,-1.656 0.072,-0.216 0.504,-0.432 0.576,-0.792 2.232,-2.376 3.888,-4.752 5.184,-7.704 0.432,-1.224 0.432,-1.224 0.864,-2.88 0.36,-2.16 0.504,-4.104 0.36,-6.264 -0.144,-0.576 -0.288,-1.224 -0.36,-1.8 -0.936,-2.952 -2.304,-5.328 -4.248,-7.704 -0.792,-0.72 -1.512,-1.44 -2.232,-2.232 -2.52,-2.16 -5.544,-3.672 -8.496,-5.184 -0.864,-0.288 -1.728,-0.504 -2.592,-0.72 l 0,12.6 c 0.432,0.648 0.576,0.864 1.152,1.872 1.584,3.096 2.448,6.12 2.016,9.648 -0.504,2.376 -1.656,4.32 -2.88,6.48 -0.144,0.216 -0.216,0.36 -0.288,0.576 l 0,37.008 z"
         id="path40"
         style="fill:#231f20;fill-opacity:1;fill-rule:evenodd;stroke:none"
         inkscape:connector-curvature="0" />
      <path
         d="m 168.256,503.712 c -0.792,0 -1.584,0.072 -2.376,0.072 -3.744,0.36 -7.56,1.152 -11.232,2.376 -0.792,0.216 -1.656,0.36 -2.304,0.792 l -0.072,0 c -0.288,0.216 -0.576,1.152 -0.864,1.296 -0.432,-0.216 -0.792,-0.648 -1.08,-1.656 -0.432,-1.656 -3.888,0.216 -3.528,0.936 0.432,0.72 3.384,1.368 2.376,3.6 -0.792,-0.36 -2.16,0 -3.312,0.216 -1.872,0.432 -3.528,1.008 -2.592,2.448 0.432,0.576 3.744,-0.504 5.04,0 0.36,1.8 -3.168,4.536 -2.16,5.832 1.008,1.296 2.88,-2.664 4.536,-3.456 2.016,1.44 1.152,5.256 1.368,5.688 1.656,3.312 2.664,-5.76 3.024,-5.832 2.088,0.144 1.872,1.8 3.096,3.672 1.224,1.872 2.016,0.576 0.144,-2.88 -0.288,-0.576 -0.36,-1.368 0,-2.232 0.936,-1.224 1.008,-1.296 1.656,-2.016 0.216,-0.216 0.504,-0.432 0.72,-0.648 l 0,-0.072 c 1.8,-1.584 3.744,-3.024 5.904,-3.96 1.44,-0.504 2.952,-0.864 4.392,-1.08 3.888,0.144 5.112,1.08 4.536,-2.664 -2.376,-0.216 -4.824,-0.36 -7.272,-0.432"
         id="path42"
         style="fill:#ffffff;fill-opacity:1;fill-rule:evenodd;stroke:none"
         inkscape:connector-curvature="0" />
      <path
         d="m 185.68,460.44 c -0.864,1.152 -1.152,1.152 -1.8,2.592 9.36,2.88 19.152,9.504 17.064,20.232 5.112,-0.648 6.48,0.576 11.16,2.304 0.072,-0.072 0.072,-0.072 0.144,-0.648 3.96,-16.344 -14.76,-24.264 -26.568,-24.48"
         id="path44"
         style="fill:#ffffff;fill-opacity:1;fill-rule:evenodd;stroke:none"
         inkscape:connector-curvature="0" />
      <path
         d="m 241.552,489.312 c -2.16,11.952 -14.4,14.832 -23.256,13.68 -0.864,2.52 1.152,4.608 -0.072,7.2 -0.432,0.936 -0.936,1.8 -0.936,1.944 17.208,9.216 23.112,-6.552 25.344,-21.888 -0.72,-0.432 -1.008,-0.72 -1.08,-0.936"
         id="path46"
         style="fill:#ffffff;fill-opacity:1;fill-rule:evenodd;stroke:none"
         inkscape:connector-curvature="0" />
      <path
         d="m 320.968,525.168 c -0.576,6.624 -5.904,9.72 -12.096,9.72 -8.784,0 -13.104,-6.336 -13.104,-14.4 0,-7.848 4.536,-13.824 12.888,-13.824 6.912,0 11.232,3.816 12.312,10.8 l -5.904,0 c -0.576,-3.888 -2.952,-6.12 -6.408,-6.12 -5.112,0 -7.056,4.68 -7.056,9.144 0,8.136 4.32,9.72 7.344,9.72 3.24,0 5.616,-1.728 6.12,-5.04 l 5.904,0 z"
         id="path48"
         style="fill:#ffffff;fill-opacity:1;fill-rule:nonzero;stroke:none"
         inkscape:connector-curvature="0" />
      <path
         d="m 322.48,507.384 5.904,0 0,15.912 c 0,4.464 2.808,6.912 5.832,6.912 3.6,0 4.752,-1.944 4.752,-5.616 l 0,-17.208 5.904,0 0,15.696 c 0,4.464 1.656,7.128 5.688,7.128 4.608,0 4.824,-2.952 4.824,-7.2 l 0,-15.624 5.904,0 0,18.504 c 0,6.48 -3.312,9 -8.928,9 -3.888,0 -6.408,-1.728 -8.424,-4.464 -1.152,3.024 -4.248,4.464 -7.488,4.464 -4.248,0 -6.48,-1.8 -8.208,-4.464 l -0.144,0 0,3.744 -5.616,0 0,-26.784 z"
         id="path50"
         style="fill:#ffffff;fill-opacity:1;fill-rule:nonzero;stroke:none"
         inkscape:connector-curvature="0" />
      <path
         d="m 361.36,507.384 6.912,0 6.552,9.864 6.768,-9.864 7.128,0 -10.224,14.4 9.072,12.384 -6.84,0 -5.832,-8.28 -5.616,8.28 -7.128,0 9.288,-12.672 -10.08,-14.112 z"
         id="path52"
         style="fill:#ffffff;fill-opacity:1;fill-rule:nonzero;stroke:none"
         inkscape:connector-curvature="0" />
      <path
         d="m 392.896,509.976 -2.52,0 0,-2.52 2.52,0 0,2.52 z"
         id="path54"
         style="fill:#f46f1b;fill-opacity:1;fill-rule:nonzero;stroke:none"
         inkscape:connector-curvature="0" />
      <path
         d="m 402.688,533.664 c -7.704,0 -11.448,-6.84 -11.304,-13.896 -0.144,-7.056 3.816,-12.96 11.304,-12.96 l 0,1.656 c -6.336,0 -9.504,5.472 -9.432,11.52 l 9.432,0 0,1.656 -9.432,0 c 0.432,5.112 3.744,10.368 9.432,10.368 l 0,1.656 z m 0,-26.856 0,0 c 6.12,0 10.152,3.312 11.16,9.288 l -1.944,0 c -0.864,-4.752 -4.32,-7.632 -9.216,-7.632 l 0,-1.656 z m 11.304,13.176 0,0.216 0,1.512 c -0.216,6.552 -3.816,11.952 -11.304,11.952 l 0,-1.656 c 5.904,0 9.36,-4.968 9.432,-10.368 l -9.432,0 0,-1.656 11.304,0 z"
         id="path56"
         style="fill:#f46f1b;fill-opacity:1;fill-rule:nonzero;stroke:none"
         inkscape:connector-curvature="0" />
      <path
         d="m 414.208,515.952 c 0.144,-5.976 4.536,-9.144 10.368,-9.144 4.536,0 10.08,1.512 10.08,7.056 0,5.4 -4.032,6.624 -9.144,7.56 -4.104,0.936 -8.496,1.584 -8.496,5.688 0,3.6 3.888,4.896 7.344,4.896 4.32,0 7.56,-1.872 7.632,-6.552 l 1.872,0 c 0,5.904 -4.032,8.208 -9.504,8.208 -4.32,0 -9.288,-1.512 -9.288,-6.552 0,-5.256 4.392,-6.408 8.856,-7.344 4.392,-0.864 8.784,-1.512 8.784,-5.904 0,-4.392 -4.752,-5.4 -8.136,-5.4 -4.608,0 -8.208,2.736 -8.496,7.488 l -1.872,0 z"
         id="path58"
         style="fill:#f46f1b;fill-opacity:1;fill-rule:nonzero;stroke:none"
         inkscape:connector-curvature="0" />
      <path
         d="m 303.544,480.888 0,-1.296 c -1.584,0 -2.16,-1.44 -2.16,-2.808 0,-1.296 0.648,-2.664 2.16,-2.664 l 0,-1.296 -0.288,0 c -2.376,0 -3.6,1.8 -3.6,4.104 0,2.808 1.656,4.032 3.384,4.032 0.144,0 0.288,0 0.504,-0.072 m 0,15.552 -0.072,0 c -2.52,0 -3.816,-1.872 -3.816,-4.176 0,-2.304 1.368,-3.96 3.744,-3.96 l 0.144,0 0,1.296 -0.144,0 c -1.44,0 -2.016,1.368 -2.016,2.664 0,2.304 1.224,2.808 2.088,2.808 l 0.072,0 0,1.368 z m 0,-23.616 0,1.296 c 1.512,0.072 2.16,1.44 2.16,2.736 0,1.728 -0.864,2.736 -2.16,2.736 l 0,1.296 c 0.792,-0.072 1.584,-0.432 2.016,-1.152 l 0.072,0 0,3.96 1.656,0 0,-10.656 -1.584,0 0,1.008 c -0.432,-0.792 -1.296,-1.152 -2.16,-1.224 m 8.352,8.064 0,-1.368 c -0.864,-0.288 -1.368,-1.008 -1.368,-1.944 l 1.368,0 0,-1.152 -1.368,0 c 0,-1.008 0.432,-1.872 1.368,-2.16 l 0,-1.44 c -2.016,0.36 -3.096,1.872 -3.096,4.032 0,2.016 1.152,3.744 3.096,4.032 m 0,15.552 0,-1.368 c -1.512,0 -2.232,-1.368 -2.232,-2.736 0,-1.296 0.72,-2.736 2.232,-2.736 l 0,-1.296 c -2.52,0 -3.888,1.656 -3.888,4.032 0,2.376 1.368,4.104 3.888,4.104 m -8.352,-8.136 c 1.872,0 3.096,1.08 3.384,3.096 l -1.656,0 c -0.144,-1.08 -0.792,-1.728 -1.728,-1.8 l 0,-1.296 z m 3.384,5.328 c -0.144,1.872 -1.656,2.736 -3.384,2.808 l 0,-1.368 c 0.936,0 1.584,-0.504 1.728,-1.44 l 1.656,0 z m 21.888,-11.592 1.728,0 0,1.656 -1.728,0 0,-1.656 z m 0,-9 1.728,0 0,7.704 -1.728,0 0,-7.704 z m -8.856,0 1.944,0 1.944,2.808 1.944,-2.808 2.016,0 -2.952,4.104 2.664,3.6 -2.016,0 -1.656,-2.376 -1.584,2.376 -2.088,0 2.664,-3.672 -2.88,-4.032 z m 5.4,17.928 c 0,-1.8 1.44,-2.664 3.384,-2.664 1.584,0 3.456,0.648 3.456,2.448 0,1.584 -1.224,2.016 -2.52,2.304 -1.224,0.288 -2.448,0.36 -2.448,1.224 0,0.648 0.864,0.792 1.368,0.792 0.72,0 1.44,-0.216 1.584,-1.008 l 1.728,0 c -0.144,1.656 -1.584,2.376 -3.168,2.376 -1.44,0 -3.24,-0.576 -3.24,-2.232 0,-1.584 1.224,-2.016 2.448,-2.304 1.296,-0.288 2.52,-0.36 2.52,-1.296 0.072,-0.864 -1.08,-1.008 -1.656,-1.008 -0.936,0 -1.656,0.36 -1.8,1.368 l -1.656,0 z m -8.136,-2.448 1.656,0 0,4.536 c 0,1.08 0.72,2.016 1.872,2.016 1.008,0 1.512,-0.504 1.512,-1.728 l 0,-4.824 1.728,0 0,5.256 c 0,1.728 -1.08,2.664 -2.736,2.664 -1.008,0 -1.944,-0.576 -2.448,-1.44 l 0,0.072 0,1.152 -1.584,0 0,-7.704 z m -5.328,-0.216 0,1.296 c 1.512,0 2.16,1.44 2.16,2.736 0,1.368 -0.648,2.736 -2.16,2.736 l 0,1.368 c 2.448,0 3.888,-1.728 3.888,-4.104 0,-2.376 -1.44,-4.032 -3.888,-4.032 m 0,-11.88 0,1.152 2.592,0 c -0.072,1.08 -0.792,2.016 -1.944,2.016 -0.216,0 -0.432,0 -0.648,-0.072 l 0,1.368 c 0.216,0 0.432,0.072 0.648,0.072 2.376,0 3.888,-2.232 3.6,-4.536 l -4.248,0 z m 0,-3.6 0,1.44 c 0.216,-0.072 0.432,-0.144 0.648,-0.144 1.008,0 1.584,0.432 1.872,1.296 l 1.656,0 c -0.36,-1.656 -1.8,-2.592 -3.528,-2.592 l -0.648,0 z m 24.912,7.416 0,-2.664 -0.36,-0.432 0.36,-0.432 0,-2.808 -1.368,1.944 -1.872,-2.808 -2.016,0 2.88,4.032 -2.664,3.672 2.088,0 1.584,-2.376 1.368,1.872 z m 0,16.2 0,-1.368 c -1.152,0 -1.944,-0.936 -2.016,-2.088 l 2.016,0 0,-1.08 -2.016,0 c 0,-1.152 0.648,-2.232 2.016,-2.304 l 0,-1.296 c -2.376,0 -3.672,1.656 -3.672,4.032 0,2.16 1.368,4.032 3.672,4.104 m 0,-4.536 0,1.08 2.016,0 c -0.072,1.08 -0.792,2.088 -1.944,2.088 l -0.072,0 0,1.368 0.072,0 c 2.376,0 3.888,-2.232 3.6,-4.536 l -3.672,0 z m 0,-3.6 0,1.296 0.072,0 c 1.008,0 1.584,0.432 1.872,1.296 l 1.656,0 c -0.36,-1.656 -1.8,-2.592 -3.528,-2.592 l -0.072,0 z m 0,-10.728 0,2.664 0.36,0.504 1.944,0 -2.304,-3.168 z m 0,-3.672 0,2.808 2.592,-3.672 -2.016,0 -0.576,0.864 z m 7.128,7.056 0,-1.368 c -1.512,0 -2.232,-1.368 -2.232,-2.736 0,-1.296 0.72,-2.736 2.232,-2.736 l 0,-1.296 c -2.52,0 -3.888,1.656 -3.888,4.032 0,2.376 1.368,4.104 3.888,4.104 m 0,2.664 0,-1.8 -1.152,0 1.152,1.8 z m 0,9.36 0,-7.344 c -0.288,-0.144 -0.648,-0.216 -1.08,-0.216 -0.432,0 -0.792,0 -1.224,0.072 l 0,1.44 c 0.288,0 0.576,-0.072 0.864,-0.072 0.792,0 0.936,0.432 1.152,1.08 l 0.216,0.576 -2.952,7.704 1.872,0 1.152,-3.24 z m 5.328,-19.944 1.656,0 0,4.536 c 0,1.152 0.72,2.016 1.872,2.016 1.008,0 1.512,-0.504 1.512,-1.728 l 0,-4.824 1.728,0 0,5.256 c 0,1.728 -1.08,2.664 -2.736,2.664 -1.008,0 -1.944,-0.576 -2.448,-1.368 l 0,1.152 -1.584,0 0,-7.704 z m 7.056,23.184 -1.728,0 0,-4.536 c 0,-1.152 -0.504,-2.088 -1.872,-2.088 -0.936,0 -1.512,0.504 -1.512,1.872 l 0,4.752 -1.656,0 0,-4.896 c 0,-2.016 0.864,-3.024 2.88,-3.024 0.792,0 1.728,0.504 2.16,1.224 l 0.072,0 0,-1.008 1.656,0 0,7.704 z m -12.384,-10.584 0,7.344 0.864,-2.52 0.072,0 1.944,5.76 1.728,0 -2.952,-8.136 c -0.432,-1.08 -0.792,-2.016 -1.656,-2.448 m 0,-3.816 0,1.8 0.216,0.288 2.016,0 -2.16,-2.088 -0.072,0 z m 0,-9 0,1.296 c 1.512,0 2.16,1.44 2.16,2.736 0,1.368 -0.648,2.736 -2.16,2.736 l 0,1.368 c 2.448,0 3.888,-1.728 3.888,-4.104 0,-2.376 -1.44,-4.032 -3.888,-4.032 m 20.448,23.472 0,-0.432 c -2.016,0 -2.808,-1.728 -2.808,-3.528 0,-1.8 0.864,-3.528 2.808,-3.528 l 0,-0.504 -0.072,0 c -2.304,0 -3.312,1.872 -3.312,4.032 0,2.232 1.08,3.96 3.384,3.96 m 0,-7.992 0,0.504 0.072,0 c 1.872,0 2.808,1.728 2.808,3.528 0,1.728 -0.864,3.528 -2.88,3.528 l 0,0.432 c 1.296,0 2.448,-0.648 2.88,-1.872 l 0,4.68 0.576,0 0,-10.584 -0.576,0 0,1.584 c -0.648,-1.152 -1.512,-1.8 -2.88,-1.8 m 8.28,7.992 0,-0.432 c -1.656,0 -2.664,-1.584 -2.808,-3.096 l 2.808,0 0,-0.504 -2.808,0 c 0,-1.8 0.936,-3.456 2.808,-3.456 l 0,-0.504 c -2.232,0 -3.384,1.8 -3.384,3.888 0,2.088 1.08,4.104 3.384,4.104 m 8.064,-7.776 0.576,0 0,4.464 c 0,2.016 1.296,2.88 2.376,2.88 0.504,0 1.872,-0.216 1.872,-2.16 l 0,-5.184 0.504,0 0,4.464 c 0,1.872 1.008,2.88 2.448,2.88 0.432,0 1.8,-0.144 1.8,-2.16 l 0,-5.184 0.576,0 0,5.184 c 0,1.8 -1.008,2.592 -2.376,2.592 -1.224,0 -2.016,-0.576 -2.448,-1.584 -0.216,0.792 -0.864,1.584 -2.376,1.584 -1.08,0 -2.16,-0.72 -2.376,-1.728 l 0,1.584 -0.576,0 0,-7.632 z m -8.064,3.744 0,0.504 2.808,0 c 0,1.584 -1.008,3.096 -2.808,3.096 l 0,0.432 c 2.448,0 3.528,-1.872 3.384,-4.032 l -3.384,0 z m 0,-3.96 0,0.504 c 1.44,0 2.52,0.864 2.736,2.304 l 0.576,0 c -0.288,-1.8 -1.44,-2.808 -3.312,-2.808 m 23.04,7.992 0,-0.432 c -1.872,0 -2.952,-1.728 -2.952,-3.528 0,-1.872 1.08,-3.528 2.952,-3.528 l 0,-0.504 c -2.232,0 -3.456,1.872 -3.456,4.032 0,2.16 1.224,3.96 3.456,3.96 m 11.232,-2.52 c -0.144,1.728 -1.512,2.52 -3.168,2.52 -2.304,0 -3.528,-1.8 -3.528,-3.888 0,-2.16 1.008,-4.104 3.528,-4.104 1.656,0 2.952,1.08 3.24,2.88 l -0.576,0 c -0.216,-1.368 -1.224,-2.376 -2.664,-2.376 -2.016,0 -2.952,1.512 -2.952,3.6 0,1.728 1.008,3.456 2.952,3.456 1.368,0 2.448,-0.72 2.592,-2.088 l 0.576,0 z m -11.232,-5.472 0,0.504 c 1.944,0 2.952,1.656 2.952,3.528 0,1.8 -1.008,3.528 -2.952,3.528 l 0,0.432 c 2.304,0 3.528,-1.8 3.528,-3.96 0,-2.16 -1.224,-4.032 -3.528,-4.032 m 15.624,7.992 0,-0.432 c -1.656,0 -2.664,-1.584 -2.808,-3.096 l 2.808,0 0,-0.504 -2.808,0 c 0,-1.8 0.936,-3.456 2.808,-3.456 l 0,-0.504 c -2.232,0 -3.384,1.8 -3.312,3.888 -0.072,2.088 1.008,4.104 3.312,4.104 m 0,-4.032 0,0.504 2.808,0 c 0,1.584 -1.008,3.096 -2.736,3.096 l -0.072,0 0,0.432 0.072,0 c 2.376,0 3.456,-1.872 3.312,-4.032 l -3.384,0 z m 0,-3.96 0,0.504 0.072,0 c 1.44,0 2.448,0.864 2.736,2.304 l 0.576,0 c -0.36,-1.8 -1.512,-2.808 -3.312,-2.808 l -0.072,0 z m 7.776,7.992 0,-0.432 c -2.016,0 -2.808,-1.728 -2.808,-3.528 0,-1.8 0.864,-3.528 2.808,-3.528 l 0,-0.504 -0.072,0 c -2.304,0 -3.312,1.872 -3.312,4.032 0,2.232 1.08,3.96 3.384,3.96 m 0,-7.992 0,0.504 c 1.944,0 2.88,1.728 2.88,3.528 0,1.728 -0.864,3.528 -2.88,3.528 l 0,0.432 c 1.296,0 2.448,-0.648 2.88,-1.872 l 0,4.68 0.576,0 0,-10.584 -0.576,0 0,1.584 c -0.648,-1.152 -1.512,-1.8 -2.88,-1.8 m 7.92,4.464 0,-0.504 -0.36,0 c -1.368,-0.144 -2.088,-0.648 -2.088,-1.8 0,-0.936 0.648,-1.656 2.016,-1.656 l 0.432,0 0,-0.504 -0.432,0 c -1.44,0 -2.592,0.576 -2.592,2.16 0,1.8 1.584,2.16 2.808,2.304 l 0.216,0 z m 0,3.528 0,-0.504 C 425.8,495.72 425.008,495 424.936,493.776 l -0.504,0 c 0.072,1.584 0.936,2.448 2.592,2.52 m 0,1.728 0,-0.648 -0.072,-0.072 -0.576,0 0.648,0.72 z m 0,-0.648 0,0.648 1.152,1.368 0.792,0 -1.944,-2.016 z m 0,-9.072 0,0.504 c 2.16,0.216 2.448,2.232 2.448,2.592 l 0,1.44 c -0.432,-0.432 -1.44,-0.432 -2.448,-0.576 l 0,0.504 c 2.304,0.144 2.448,0.36 2.448,1.584 0,0.288 -0.432,1.512 -2.16,1.512 -0.072,0 -0.216,0 -0.288,-0.072 l 0,0.504 0.288,0 c 1.368,0 2.736,-0.36 2.736,-1.944 l 0,-4.464 c 0,-0.432 0,-0.936 0.504,-0.936 0.072,0 0.216,0.072 0.36,0.072 l 0,-0.504 -0.432,0 c -0.936,0 -1.008,0.432 -1.008,1.08 l 0,0.432 -0.072,0 c -0.288,-0.864 -1.152,-1.584 -2.376,-1.728"
         id="path60"
         style="fill:#ffffff;fill-opacity:1;fill-rule:nonzero;stroke:none"
         inkscape:connector-curvature="0" />
      <path
         d="m 207.352,543.168 c 1.44,1.656 -5.256,16.056 -6.12,18.288 -0.072,0.144 -0.144,0.216 -0.144,0.288 -1.368,1.152 -2.88,1.296 -3.744,0.72 -3.384,-2.016 -4.752,-1.296 -2.88,0 1.8,1.368 3.456,1.224 3.528,3.312 -0.072,0.288 -9.216,0.936 -5.976,2.736 0.432,0.288 4.248,-0.432 5.616,1.584 -0.864,1.656 -4.896,3.312 -3.672,4.392 1.296,1.08 4.176,-2.304 5.904,-1.872 0.504,1.368 -0.72,4.608 -0.216,5.04 1.368,1.008 2.088,-0.648 2.592,-2.52 0.288,-1.08 0.72,-2.448 0.36,-3.24 2.304,-0.936 2.736,2.016 3.456,2.52 0.72,0.432 2.736,-2.952 1.152,-3.528 -1.656,-0.504 -1.728,-1.296 -1.872,-1.8 l 0,-0.072 c 0.504,0.072 0.936,0.072 1.512,0 l 0.072,-0.072 c 0.072,-0.072 0.072,-0.144 0.144,-0.216 7.776,-9.288 6.264,-20.952 4.176,-25.848 -1.152,-0.072 -2.808,-0.144 -3.888,0.288"
         id="path62"
         style="fill:#ffffff;fill-opacity:1;fill-rule:evenodd;stroke:none"
         inkscape:connector-curvature="0" />
    </g>
  </g>
</svg>
