<?xml version="1.0" encoding="utf-8"?>
<!-- Generator: Adobe Illustrator 12.0.0, SVG Export Plug-In . SVG Version: 6.00 Build 51448)  -->
<!DOCTYPE svg PUBLIC "-//W3C//DTD SVG 1.1//EN" "http://www.w3.org/Graphics/SVG/1.1/DTD/svg11.dtd" [
	<!ENTITY ns_svg "http://www.w3.org/2000/svg">
	<!ENTITY ns_xlink "http://www.w3.org/1999/xlink">
]>
<svg  version="1.1" id="Capa_1" xmlns="&ns_svg;" xmlns:xlink="&ns_xlink;" width="780.3" height="471.708"
	 viewBox="0 0 780.3 471.708" overflow="visible" enable-background="new 0 0 780.3 471.708" xml:space="preserve">
<g>
	<polygon fill-rule="evenodd" clip-rule="evenodd" points="7.838,460.534 7.838,437.387 2.677,437.387 2.677,432.68 16.499,432.68 
		16.499,437.387 11.338,437.387 11.338,460.534 	"/>
	<path fill-rule="evenodd" clip-rule="evenodd" d="M22.253,444.467h2.609c1.595,0,2.61-0.092,3.044-0.275
		c0.435-0.185,0.788-0.556,1.059-1.113c0.271-0.559,0.406-1.301,0.406-2.228c0-0.888-0.135-1.602-0.406-2.141
		c-0.271-0.54-0.638-0.911-1.102-1.114c-0.329-0.139-1.281-0.209-2.856-0.209h-2.754V444.467z M18.753,460.534V432.68h7.401
		c1.893,0,3.244,0.25,4.055,0.751c0.811,0.5,1.477,1.367,1.999,2.603c0.521,1.234,0.782,2.713,0.782,4.436
		c0,2.179-0.398,3.933-1.195,5.263c-0.797,1.329-1.929,2.165-3.397,2.507c0.754,0.71,1.377,1.487,1.87,2.33
		c0.493,0.844,1.167,2.354,2.021,4.532l2.126,5.433h-4.208l-2.549-6.058c-0.917-2.189-1.541-3.562-1.869-4.114
		c-0.329-0.554-0.676-0.935-1.043-1.145s-0.956-0.315-1.768-0.315h-0.724v11.632H18.753z"/>
	<path fill-rule="evenodd" clip-rule="evenodd" d="M45.546,449.525l-2.413-10.343l-2.363,10.343H45.546z M51.987,460.534H48.18
		l-1.489-6.302h-6.996l-1.44,6.302h-3.737l6.768-27.854h3.745L51.987,460.534z"/>
	<polygon fill-rule="evenodd" clip-rule="evenodd" points="53.9,460.534 53.9,432.68 57.309,432.68 64.459,451.281 64.459,432.68 
		67.722,432.68 67.722,460.534 64.197,460.534 57.163,442.371 57.163,460.534 	"/>
	<path fill-rule="evenodd" clip-rule="evenodd" d="M70.495,451.47l3.411-0.545c0.387,3.553,1.657,5.329,3.808,5.329
		c1.065,0,1.903-0.363,2.514-1.091c0.61-0.727,0.916-1.628,0.916-2.702c0-0.633-0.106-1.17-0.32-1.612
		c-0.213-0.443-0.539-0.807-0.975-1.091c-0.437-0.284-1.491-0.762-3.163-1.433c-1.498-0.594-2.595-1.239-3.291-1.936
		c-0.696-0.695-1.249-1.609-1.66-2.742s-0.616-2.35-0.616-3.652c0-1.519,0.264-2.886,0.791-4.1c0.527-1.215,1.255-2.133,2.185-2.752
		c0.929-0.62,2.076-0.931,3.44-0.931c2.052,0,3.654,0.729,4.805,2.187c1.152,1.458,1.761,3.543,1.829,6.255l-3.53,0.233
		c-0.155-1.486-0.489-2.525-1.003-3.118c-0.514-0.592-1.247-0.888-2.197-0.888s-1.683,0.256-2.197,0.769s-0.771,1.15-0.771,1.914
		c0,0.751,0.235,1.383,0.707,1.896s1.542,1.085,3.21,1.717c1.765,0.684,3.042,1.396,3.829,2.136c0.788,0.74,1.389,1.696,1.804,2.866
		c0.415,1.171,0.623,2.591,0.623,4.262c0,2.416-0.567,4.447-1.702,6.092C81.807,460.178,80.033,461,77.62,461
		C73.353,461,70.978,457.824,70.495,451.47z"/>
	<polygon fill-rule="evenodd" clip-rule="evenodd" points="87.605,460.534 87.605,432.68 100.507,432.68 100.507,437.387 
		91.105,437.387 91.105,443.534 99.855,443.534 99.855,448.241 91.105,448.241 91.105,455.827 100.833,455.827 100.833,460.534 	"/>
	<polygon fill-rule="evenodd" clip-rule="evenodd" points="102.046,460.534 108.074,446 102.609,432.68 106.711,432.68 
		110.151,440.99 113.597,432.68 117.677,432.68 112.221,445.992 118.24,460.534 114.037,460.534 110.147,451.051 106.26,460.534 	
		"/>
	<path fill-rule="evenodd" clip-rule="evenodd" d="M120.016,432.68h3.5v15.069c0,2.342,0.043,3.866,0.131,4.574
		c0.155,1.228,0.527,2.177,1.115,2.848c0.588,0.67,1.363,1.006,2.326,1.006c0.816,0,1.481-0.237,1.997-0.712
		c0.515-0.475,0.867-1.133,1.057-1.975c0.19-0.841,0.285-2.647,0.285-5.418V432.68h3.5v14.626c0,3.735-0.152,6.436-0.457,8.101
		s-0.991,3.014-2.06,4.046c-1.068,1.032-2.478,1.548-4.228,1.548c-1.818,0-3.237-0.427-4.257-1.282
		c-1.021-0.854-1.76-2.058-2.219-3.609c-0.459-1.551-0.689-4.409-0.689-8.575V432.68z"/>
	<path fill-rule="evenodd" clip-rule="evenodd" d="M146.839,449.525l-2.413-10.343l-2.363,10.343H146.839z M153.28,460.534h-3.807
		l-1.489-6.302h-6.996l-1.44,6.302h-3.737l6.768-27.854h3.745L153.28,460.534z"/>
	<polygon fill-rule="evenodd" clip-rule="evenodd" points="155.193,460.534 155.193,432.914 158.693,432.914 158.693,455.827 
		167.443,455.827 167.443,460.534 	"/>
	<polygon fill-rule="evenodd" clip-rule="evenodd" points="169.964,460.534 169.964,432.68 182.866,432.68 182.866,437.387 
		173.463,437.387 173.463,443.534 182.213,443.534 182.213,448.241 173.463,448.241 173.463,455.827 183.192,455.827 
		183.192,460.534 	"/>
	<path fill-rule="evenodd" clip-rule="evenodd" d="M185.294,451.47l3.411-0.545c0.387,3.553,1.657,5.329,3.808,5.329
		c1.065,0,1.903-0.363,2.514-1.091c0.61-0.727,0.916-1.628,0.916-2.702c0-0.633-0.106-1.17-0.32-1.612
		c-0.213-0.443-0.538-0.807-0.975-1.091c-0.437-0.284-1.491-0.762-3.163-1.433c-1.498-0.594-2.595-1.239-3.291-1.936
		c-0.696-0.695-1.249-1.609-1.66-2.742s-0.616-2.35-0.616-3.652c0-1.519,0.264-2.886,0.791-4.1c0.527-1.215,1.256-2.133,2.185-2.752
		c0.929-0.62,2.076-0.931,3.441-0.931c2.052,0,3.653,0.729,4.805,2.187c1.152,1.458,1.762,3.543,1.829,6.255l-3.529,0.233
		c-0.155-1.486-0.49-2.525-1.004-3.118c-0.514-0.592-1.247-0.888-2.197-0.888s-1.683,0.256-2.197,0.769
		c-0.514,0.513-0.771,1.15-0.771,1.914c0,0.751,0.236,1.383,0.707,1.896c0.471,0.513,1.542,1.085,3.21,1.717
		c1.765,0.684,3.042,1.396,3.829,2.136c0.788,0.74,1.389,1.696,1.804,2.866c0.416,1.171,0.623,2.591,0.623,4.262
		c0,2.416-0.567,4.447-1.702,6.092c-1.134,1.646-2.908,2.468-5.322,2.468C188.151,461,185.777,457.824,185.294,451.47z"/>
	<polygon fill-rule="evenodd" clip-rule="evenodd" points="213.369,460.534 213.369,448.759 206.992,432.68 211.064,432.68 
		215.159,443.625 219.176,432.68 223.246,432.68 216.869,448.797 216.869,460.534 	"/>
	<path fill-rule="evenodd" clip-rule="evenodd" d="M234.918,448.397v7.43h3.272c1.435,0,2.356-0.098,2.763-0.294
		c0.407-0.195,0.749-0.581,1.025-1.156c0.276-0.574,0.415-1.305,0.415-2.188c0-0.91-0.148-1.659-0.444-2.247
		c-0.295-0.587-0.688-0.992-1.178-1.213s-1.491-0.331-3.003-0.331H234.918z M234.918,437.31v6.457h2.333
		c1.399,0,2.264-0.031,2.595-0.096c0.603-0.126,1.074-0.46,1.414-0.999c0.34-0.54,0.51-1.273,0.51-2.2
		c0-0.826-0.139-1.496-0.416-2.01c-0.277-0.515-0.612-0.835-1.006-0.962s-1.523-0.19-3.389-0.19H234.918z M231.418,432.68h6.983
		c1.907,0,3.247,0.229,4.021,0.685s1.428,1.261,1.96,2.414s0.798,2.459,0.798,3.917c0,1.343-0.226,2.557-0.679,3.64
		c-0.453,1.084-1.041,1.886-1.763,2.404c1.024,0.481,1.826,1.305,2.405,2.47c0.579,1.164,0.868,2.582,0.868,4.254
		c0,2.025-0.372,3.737-1.116,5.137c-0.744,1.398-1.623,2.263-2.638,2.592c-0.705,0.228-2.342,0.342-4.912,0.342h-5.927V432.68z"/>
	<rect x="248.844" y="432.68" fill-rule="evenodd" clip-rule="evenodd" width="3.5" height="27.854"/>
	<path fill-rule="evenodd" clip-rule="evenodd" d="M254.826,451.47l3.411-0.545c0.387,3.553,1.656,5.329,3.808,5.329
		c1.065,0,1.903-0.363,2.514-1.091c0.61-0.727,0.916-1.628,0.916-2.702c0-0.633-0.107-1.17-0.32-1.612
		c-0.213-0.443-0.539-0.807-0.975-1.091s-1.491-0.762-3.163-1.433c-1.498-0.594-2.595-1.239-3.291-1.936
		c-0.696-0.695-1.249-1.609-1.66-2.742c-0.411-1.133-0.616-2.35-0.616-3.652c0-1.519,0.264-2.886,0.791-4.1
		c0.527-1.215,1.256-2.133,2.185-2.752c0.929-0.62,2.076-0.931,3.44-0.931c2.052,0,3.653,0.729,4.805,2.187
		c1.152,1.458,1.761,3.543,1.829,6.255l-3.53,0.233c-0.155-1.486-0.489-2.525-1.004-3.118c-0.514-0.592-1.246-0.888-2.197-0.888
		s-1.683,0.256-2.197,0.769s-0.771,1.15-0.771,1.914c0,0.751,0.235,1.383,0.707,1.896s1.542,1.085,3.21,1.717
		c1.765,0.684,3.042,1.396,3.829,2.136c0.787,0.74,1.389,1.696,1.804,2.866c0.416,1.171,0.623,2.591,0.623,4.262
		c0,2.416-0.567,4.447-1.702,6.092c-1.134,1.646-2.908,2.468-5.322,2.468C257.683,461,255.308,457.824,254.826,451.47z"/>
	<polygon fill-rule="evenodd" clip-rule="evenodd" points="271.936,460.534 271.936,432.68 284.838,432.68 284.838,437.387 
		275.436,437.387 275.436,443.534 284.185,443.534 284.185,448.241 275.436,448.241 275.436,455.827 285.164,455.827 
		285.164,460.534 	"/>
	<polygon fill-rule="evenodd" clip-rule="evenodd" points="286.376,460.534 292.404,446 286.94,432.68 291.042,432.68 
		294.481,440.99 297.927,432.68 302.007,432.68 296.551,445.992 302.571,460.534 298.367,460.534 294.477,451.051 290.59,460.534 	
		"/>
	<path fill-rule="evenodd" clip-rule="evenodd" d="M304.347,432.68h3.5v15.069c0,2.342,0.044,3.866,0.131,4.574
		c0.156,1.228,0.527,2.177,1.115,2.848c0.588,0.67,1.363,1.006,2.326,1.006c0.816,0,1.482-0.237,1.997-0.712
		c0.516-0.475,0.868-1.133,1.057-1.975c0.19-0.841,0.285-2.647,0.285-5.418V432.68h3.5v14.626c0,3.735-0.152,6.436-0.457,8.101
		s-0.991,3.014-2.06,4.046c-1.069,1.032-2.479,1.548-4.229,1.548c-1.818,0-3.237-0.427-4.257-1.282
		c-1.021-0.854-1.76-2.058-2.219-3.609c-0.459-1.551-0.689-4.409-0.689-8.575V432.68z"/>
	<path fill-rule="evenodd" clip-rule="evenodd" d="M331.17,449.525l-2.413-10.343l-2.363,10.343H331.17z M337.61,460.534h-3.807
		l-1.49-6.302h-6.996l-1.44,6.302h-3.737l6.768-27.854h3.745L337.61,460.534z"/>
	<polygon fill-rule="evenodd" clip-rule="evenodd" points="339.524,460.534 339.524,432.914 343.023,432.914 343.023,455.827 
		351.773,455.827 351.773,460.534 	"/>
	<polygon fill-rule="evenodd" clip-rule="evenodd" points="354.294,460.534 354.294,432.68 367.196,432.68 367.196,437.387 
		357.794,437.387 357.794,443.534 366.543,443.534 366.543,448.241 357.794,448.241 357.794,455.827 367.522,455.827 
		367.522,460.534 	"/>
	<path fill-rule="evenodd" clip-rule="evenodd" d="M369.625,451.47l3.411-0.545c0.388,3.553,1.656,5.329,3.808,5.329
		c1.065,0,1.903-0.363,2.514-1.091c0.61-0.727,0.916-1.628,0.916-2.702c0-0.633-0.107-1.17-0.32-1.612
		c-0.214-0.443-0.539-0.807-0.976-1.091s-1.491-0.762-3.163-1.433c-1.498-0.594-2.595-1.239-3.291-1.936
		c-0.696-0.695-1.249-1.609-1.66-2.742c-0.411-1.133-0.616-2.35-0.616-3.652c0-1.519,0.264-2.886,0.791-4.1
		c0.527-1.215,1.256-2.133,2.185-2.752c0.929-0.62,2.076-0.931,3.44-0.931c2.052,0,3.653,0.729,4.806,2.187
		c1.151,1.458,1.761,3.543,1.829,6.255l-3.53,0.233c-0.155-1.486-0.489-2.525-1.003-3.118c-0.514-0.592-1.247-0.888-2.197-0.888
		s-1.683,0.256-2.197,0.769s-0.771,1.15-0.771,1.914c0,0.751,0.235,1.383,0.707,1.896c0.471,0.513,1.541,1.085,3.21,1.717
		c1.766,0.684,3.042,1.396,3.829,2.136c0.787,0.74,1.389,1.696,1.804,2.866c0.416,1.171,0.623,2.591,0.623,4.262
		c0,2.416-0.567,4.447-1.702,6.092c-1.134,1.646-2.908,2.468-5.322,2.468C372.482,461,370.107,457.824,369.625,451.47z"/>
	<path fill-rule="evenodd" clip-rule="evenodd" d="M396.958,437.387v18.439h2.642c1.133,0,1.952-0.14,2.46-0.418
		s0.924-0.699,1.248-1.263s0.593-1.453,0.806-2.668c0.213-1.216,0.319-2.817,0.319-4.805c0-2.063-0.108-3.69-0.327-4.88
		c-0.217-1.19-0.556-2.127-1.016-2.811c-0.459-0.685-1.018-1.134-1.676-1.349c-0.494-0.164-1.447-0.247-2.859-0.247H396.958z
		 M393.458,432.68h6.412c1.622,0,2.845,0.237,3.67,0.713c0.825,0.475,1.586,1.275,2.28,2.403c0.695,1.127,1.24,2.59,1.636,4.389
		c0.396,1.799,0.594,4.034,0.594,6.707c0,2.406-0.207,4.5-0.622,6.279s-0.94,3.188-1.578,4.228c-0.637,1.039-1.407,1.821-2.31,2.347
		c-0.901,0.525-2.063,0.788-3.48,0.788h-6.602V432.68z"/>
	<polygon fill-rule="evenodd" clip-rule="evenodd" points="411.032,460.534 411.032,432.68 423.933,432.68 423.933,437.387 
		414.532,437.387 414.532,443.534 423.281,443.534 423.281,448.241 414.532,448.241 414.532,455.827 424.259,455.827 
		424.259,460.534 	"/>
	<path fill-rule="evenodd" clip-rule="evenodd" d="M442.513,449.525l-2.413-10.343l-2.363,10.343H442.513z M448.954,460.534h-3.807
		l-1.489-6.302h-6.996l-1.44,6.302h-3.737l6.768-27.854h3.745L448.954,460.534z"/>
	<path fill-rule="evenodd" clip-rule="evenodd" d="M449.917,451.47l3.411-0.545c0.388,3.553,1.656,5.329,3.808,5.329
		c1.065,0,1.903-0.363,2.514-1.091c0.61-0.727,0.916-1.628,0.916-2.702c0-0.633-0.107-1.17-0.32-1.612
		c-0.214-0.443-0.539-0.807-0.976-1.091s-1.491-0.762-3.163-1.433c-1.498-0.594-2.595-1.239-3.291-1.936
		c-0.695-0.695-1.248-1.609-1.659-2.742s-0.616-2.35-0.616-3.652c0-1.519,0.264-2.886,0.791-4.1
		c0.527-1.215,1.256-2.133,2.185-2.752c0.929-0.62,2.076-0.931,3.44-0.931c2.052,0,3.653,0.729,4.805,2.187
		c1.152,1.458,1.762,3.543,1.83,6.255l-3.53,0.233c-0.155-1.486-0.489-2.525-1.004-3.118c-0.514-0.592-1.246-0.888-2.196-0.888
		c-0.951,0-1.684,0.256-2.197,0.769c-0.515,0.513-0.771,1.15-0.771,1.914c0,0.751,0.235,1.383,0.707,1.896
		c0.471,0.513,1.541,1.085,3.21,1.717c1.765,0.684,3.042,1.396,3.829,2.136c0.787,0.74,1.389,1.696,1.804,2.866
		c0.416,1.171,0.624,2.591,0.624,4.262c0,2.416-0.568,4.447-1.702,6.092c-1.134,1.646-2.908,2.468-5.321,2.468
		C452.775,461,450.4,457.824,449.917,451.47z"/>
	<polygon fill-rule="evenodd" clip-rule="evenodd" points="470.943,460.534 470.943,437.387 465.782,437.387 465.782,432.68 
		479.603,432.68 479.603,437.387 474.443,437.387 474.443,460.534 	"/>
	<path fill-rule="evenodd" clip-rule="evenodd" d="M481.828,432.68h3.5v15.069c0,2.342,0.044,3.866,0.131,4.574
		c0.156,1.228,0.527,2.177,1.115,2.848c0.589,0.67,1.363,1.006,2.326,1.006c0.816,0,1.482-0.237,1.997-0.712
		c0.516-0.475,0.868-1.133,1.058-1.975c0.189-0.841,0.284-2.647,0.284-5.418V432.68h3.499v14.626c0,3.735-0.152,6.436-0.456,8.101
		c-0.305,1.665-0.991,3.014-2.06,4.046c-1.069,1.032-2.479,1.548-4.229,1.548c-1.818,0-3.237-0.427-4.258-1.282
		c-1.02-0.854-1.76-2.058-2.219-3.609c-0.459-1.551-0.689-4.409-0.689-8.575V432.68z"/>
	<path fill-rule="evenodd" clip-rule="evenodd" d="M502.902,444.467h2.609c1.595,0,2.609-0.092,3.044-0.275
		c0.436-0.185,0.788-0.556,1.059-1.113c0.271-0.559,0.406-1.301,0.406-2.228c0-0.888-0.136-1.602-0.406-2.141
		c-0.271-0.54-0.638-0.911-1.102-1.114c-0.329-0.139-1.28-0.209-2.856-0.209h-2.754V444.467z M499.402,460.534V432.68h7.4
		c1.893,0,3.244,0.25,4.056,0.751c0.811,0.5,1.477,1.367,1.998,2.603c0.521,1.234,0.782,2.713,0.782,4.436
		c0,2.179-0.398,3.933-1.195,5.263c-0.797,1.329-1.929,2.165-3.397,2.507c0.754,0.71,1.378,1.487,1.87,2.33
		c0.493,0.844,1.167,2.354,2.021,4.532l2.126,5.433h-4.207l-2.55-6.058c-0.917-2.189-1.54-3.562-1.868-4.114
		c-0.329-0.554-0.677-0.935-1.044-1.145s-0.956-0.315-1.768-0.315h-0.724v11.632H499.402z"/>
	<rect x="516.827" y="432.68" fill-rule="evenodd" clip-rule="evenodd" width="3.5" height="27.854"/>
	<path fill-rule="evenodd" clip-rule="evenodd" d="M532.949,449.525l-2.414-10.343l-2.363,10.343H532.949z M539.388,460.534h-3.807
		l-1.489-6.302h-6.996l-1.44,6.302h-3.736l6.768-27.854h3.744L539.388,460.534z"/>
	<path fill-rule="evenodd" clip-rule="evenodd" d="M540.353,451.47l3.41-0.545c0.388,3.553,1.657,5.329,3.808,5.329
		c1.065,0,1.903-0.363,2.515-1.091c0.609-0.727,0.915-1.628,0.915-2.702c0-0.633-0.106-1.17-0.32-1.612
		c-0.214-0.443-0.538-0.807-0.976-1.091c-0.437-0.284-1.49-0.762-3.163-1.433c-1.497-0.594-2.595-1.239-3.29-1.936
		c-0.695-0.695-1.249-1.609-1.66-2.742c-0.41-1.133-0.615-2.35-0.615-3.652c0-1.519,0.264-2.886,0.791-4.1
		c0.527-1.215,1.255-2.133,2.184-2.752c0.93-0.62,2.076-0.931,3.441-0.931c2.052,0,3.653,0.729,4.805,2.187
		c1.152,1.458,1.762,3.543,1.829,6.255l-3.529,0.233c-0.155-1.486-0.49-2.525-1.004-3.118c-0.515-0.592-1.247-0.888-2.197-0.888
		s-1.683,0.256-2.197,0.769c-0.514,0.513-0.771,1.15-0.771,1.914c0,0.751,0.235,1.383,0.706,1.896
		c0.472,0.513,1.541,1.085,3.21,1.717c1.766,0.684,3.042,1.396,3.83,2.136c0.787,0.74,1.389,1.696,1.804,2.866
		c0.415,1.171,0.623,2.591,0.623,4.262c0,2.416-0.567,4.447-1.702,6.092c-1.134,1.646-2.908,2.468-5.321,2.468
		C543.21,461,540.835,457.824,540.353,451.47z"/>
	<path fill-rule="evenodd" clip-rule="evenodd" d="M15.045,411.363l3.411,1.711c-0.531,3.13-1.414,5.416-2.649,6.859
		c-1.235,1.444-2.755,2.166-4.56,2.166c-2.268,0-4.106-1.146-5.516-3.437c-1.621-2.646-2.432-6.216-2.432-10.71
		c0-4.747,0.816-8.463,2.449-11.146c1.42-2.329,3.328-3.494,5.723-3.494c1.951,0,3.583,0.876,4.897,2.628
		c0.937,1.244,1.623,3.092,2.058,5.542l-3.47,1.322c-0.223-1.506-0.665-2.66-1.328-3.463c-0.663-0.804-1.444-1.205-2.343-1.205
		c-1.286,0-2.335,0.732-3.148,2.198c-0.813,1.466-1.219,3.885-1.219,7.258c0,3.499,0.396,5.988,1.186,7.466
		c0.791,1.479,1.817,2.218,3.08,2.218c0.925,0,1.726-0.473,2.4-1.417S14.747,413.416,15.045,411.363z"/>
	<path fill-rule="evenodd" clip-rule="evenodd" d="M28.229,407.687c0,3.196,0.464,5.593,1.392,7.191
		c0.928,1.598,2.078,2.397,3.45,2.397c1.382,0,2.527-0.793,3.436-2.379c0.908-1.585,1.362-4.021,1.362-7.305
		c0-3.222-0.442-5.603-1.326-7.145c-0.884-1.541-2.042-2.312-3.472-2.312s-2.595,0.776-3.493,2.33
		C28.679,402.021,28.229,404.427,28.229,407.687z M24.611,407.876c0-3.316,0.374-6.048,1.122-8.193s1.725-3.744,2.931-4.795
		s2.668-1.576,4.385-1.576c2.49,0,4.519,1.247,6.086,3.741s2.352,6.045,2.352,10.652c0,4.658-0.83,8.298-2.49,10.919
		c-1.457,2.316-3.435,3.475-5.935,3.475c-2.518,0-4.506-1.146-5.963-3.437C25.44,416.042,24.611,412.447,24.611,407.876z"/>
	<polygon fill-rule="evenodd" clip-rule="evenodd" points="48.171,421.632 48.171,394.012 51.671,394.012 51.671,416.925 
		60.421,416.925 60.421,421.632 	"/>
	<polygon fill-rule="evenodd" clip-rule="evenodd" points="66.798,421.632 66.798,393.779 79.7,393.779 79.7,398.486 
		70.297,398.486 70.297,404.632 79.047,404.632 79.047,409.339 70.297,409.339 70.297,416.925 80.026,416.925 80.026,421.632 	"/>
	<path fill-rule="evenodd" clip-rule="evenodd" d="M97.996,411.363l3.411,1.711c-0.531,3.13-1.414,5.416-2.649,6.859
		c-1.235,1.444-2.755,2.166-4.56,2.166c-2.268,0-4.106-1.146-5.515-3.437c-1.622-2.646-2.432-6.216-2.432-10.71
		c0-4.747,0.816-8.463,2.449-11.146c1.42-2.329,3.328-3.494,5.723-3.494c1.951,0,3.583,0.876,4.897,2.628
		c0.937,1.244,1.623,3.092,2.058,5.542l-3.47,1.322c-0.222-1.506-0.665-2.66-1.327-3.463c-0.663-0.804-1.444-1.205-2.344-1.205
		c-1.286,0-2.335,0.732-3.148,2.198s-1.219,3.885-1.219,7.258c0,3.499,0.395,5.988,1.186,7.466c0.791,1.479,1.817,2.218,3.081,2.218
		c0.925,0,1.725-0.473,2.4-1.417C97.21,414.915,97.697,413.416,97.996,411.363z"/>
	<polygon fill-rule="evenodd" clip-rule="evenodd" points="112.188,421.632 112.188,398.486 107.027,398.486 107.027,393.779 
		120.849,393.779 120.849,398.486 115.688,398.486 115.688,421.632 	"/>
	<rect x="126.84" y="393.779" fill-rule="evenodd" clip-rule="evenodd" width="3.5" height="27.854"/>
	<polygon fill-rule="evenodd" clip-rule="evenodd" points="142.022,421.632 135.787,393.779 139.556,393.779 143.988,414.394 
		148.212,393.779 151.981,393.779 145.814,421.632 	"/>
	<path fill-rule="evenodd" clip-rule="evenodd" d="M160.549,407.687c0,3.196,0.463,5.593,1.391,7.191
		c0.928,1.598,2.078,2.397,3.45,2.397c1.382,0,2.527-0.793,3.436-2.379c0.908-1.585,1.362-4.021,1.362-7.305
		c0-3.222-0.442-5.603-1.326-7.145c-0.884-1.541-2.042-2.312-3.472-2.312s-2.595,0.776-3.494,2.33
		C160.999,402.021,160.549,404.427,160.549,407.687z M156.931,407.876c0-3.316,0.374-6.048,1.122-8.193s1.725-3.744,2.931-4.795
		c1.206-1.051,2.668-1.576,4.385-1.576c2.49,0,4.519,1.247,6.086,3.741s2.352,6.045,2.352,10.652c0,4.658-0.83,8.298-2.49,10.919
		c-1.457,2.316-3.435,3.475-5.934,3.475c-2.519,0-4.506-1.146-5.963-3.437C157.76,416.042,156.931,412.447,156.931,407.876z"/>
	<path fill-rule="evenodd" clip-rule="evenodd" d="M205.119,398.486v18.439h2.642c1.132,0,1.952-0.139,2.46-0.418
		c0.508-0.278,0.924-0.699,1.248-1.263c0.324-0.563,0.593-1.452,0.806-2.668s0.319-2.817,0.319-4.805c0-2.063-0.109-3.69-0.326-4.88
		c-0.218-1.19-0.557-2.127-1.016-2.811s-1.019-1.133-1.676-1.349c-0.494-0.164-1.446-0.247-2.859-0.247H205.119z M201.619,393.779
		h6.413c1.622,0,2.845,0.238,3.67,0.713s1.585,1.275,2.28,2.403c0.695,1.127,1.24,2.59,1.636,4.389s0.594,4.034,0.594,6.707
		c0,2.407-0.208,4.5-0.623,6.279s-0.941,3.188-1.578,4.228c-0.637,1.039-1.407,1.821-2.309,2.347
		c-0.902,0.525-2.063,0.788-3.482,0.788h-6.602V393.779z"/>
	<polygon fill-rule="evenodd" clip-rule="evenodd" points="223.048,421.632 223.048,393.779 235.95,393.779 235.95,398.486 
		226.548,398.486 226.548,404.632 235.298,404.632 235.298,409.339 226.548,409.339 226.548,416.925 236.277,416.925 
		236.277,421.632 	"/>
	<polygon fill-rule="evenodd" clip-rule="evenodd" points="264.4,421.632 264.4,394.012 267.9,394.012 267.9,416.925 
		276.649,416.925 276.649,421.632 	"/>
	<polygon fill-rule="evenodd" clip-rule="evenodd" points="283.026,421.632 283.026,393.779 295.928,393.779 295.928,398.486 
		286.526,398.486 286.526,404.632 295.276,404.632 295.276,409.339 286.526,409.339 286.526,416.925 296.254,416.925 
		296.254,421.632 	"/>
	<path fill-rule="evenodd" clip-rule="evenodd" d="M302.212,412.569l3.411-0.545c0.387,3.553,1.657,5.329,3.808,5.329
		c1.065,0,1.903-0.363,2.514-1.091c0.61-0.727,0.916-1.628,0.916-2.702c0-0.633-0.106-1.17-0.32-1.612
		c-0.213-0.442-0.539-0.807-0.975-1.091c-0.437-0.285-1.491-0.762-3.163-1.433c-1.498-0.594-2.595-1.239-3.291-1.936
		c-0.696-0.695-1.249-1.609-1.66-2.742s-0.616-2.35-0.616-3.653c0-1.518,0.264-2.885,0.791-4.099
		c0.527-1.215,1.255-2.132,2.185-2.752s2.076-0.931,3.44-0.931c2.052,0,3.654,0.729,4.805,2.187
		c1.152,1.458,1.761,3.543,1.829,6.255l-3.53,0.234c-0.155-1.487-0.489-2.526-1.003-3.119c-0.514-0.592-1.247-0.889-2.197-0.889
		s-1.683,0.257-2.197,0.77s-0.771,1.15-0.771,1.914c0,0.751,0.235,1.383,0.707,1.896s1.542,1.085,3.21,1.718
		c1.765,0.684,3.042,1.395,3.829,2.135s1.389,1.696,1.804,2.866c0.415,1.171,0.623,2.591,0.623,4.262
		c0,2.416-0.567,4.447-1.702,6.093c-1.134,1.645-2.908,2.467-5.322,2.467C305.069,422.099,302.695,418.922,302.212,412.569z"/>
	<path fill-rule="evenodd" clip-rule="evenodd" d="M326.677,409.496v7.43h3.272c1.435,0,2.356-0.098,2.763-0.294
		c0.407-0.196,0.749-0.581,1.025-1.156c0.276-0.574,0.415-1.304,0.415-2.188c0-0.91-0.148-1.658-0.443-2.246
		c-0.296-0.588-0.688-0.992-1.178-1.214c-0.49-0.221-1.491-0.331-3.002-0.331H326.677z M326.677,398.409v6.457h2.333
		c1.399,0,2.264-0.031,2.595-0.095c0.602-0.127,1.073-0.461,1.414-1c0.34-0.54,0.51-1.273,0.51-2.2c0-0.826-0.139-1.496-0.416-2.01
		c-0.277-0.515-0.612-0.835-1.006-0.962s-1.523-0.19-3.389-0.19H326.677z M323.177,393.779h6.983c1.907,0,3.247,0.229,4.021,0.685
		c0.774,0.456,1.428,1.261,1.96,2.415c0.532,1.152,0.799,2.458,0.799,3.916c0,1.343-0.227,2.557-0.68,3.64
		c-0.453,1.084-1.041,1.886-1.764,2.405c1.024,0.48,1.826,1.304,2.405,2.469c0.579,1.164,0.868,2.582,0.868,4.254
		c0,2.025-0.372,3.737-1.115,5.137c-0.744,1.398-1.623,2.263-2.638,2.592c-0.705,0.229-2.343,0.342-4.913,0.342h-5.927V393.779z"/>
	<rect x="344.458" y="393.779" fill-rule="evenodd" clip-rule="evenodd" width="3.5" height="27.854"/>
	<path fill-rule="evenodd" clip-rule="evenodd" d="M364.435,410.624l-2.413-10.343l-2.363,10.343H364.435z M370.875,421.632h-3.807
		l-1.489-6.302h-6.996l-1.44,6.302h-3.737l6.768-27.854h3.745L370.875,421.632z"/>
	<polygon fill-rule="evenodd" clip-rule="evenodd" points="376.644,421.632 376.644,393.779 380.052,393.779 387.203,412.379 
		387.203,393.779 390.465,393.779 390.465,421.632 386.941,421.632 379.907,403.469 379.907,421.632 	"/>
	<path fill-rule="evenodd" clip-rule="evenodd" d="M407.234,410.624l-2.413-10.343l-2.363,10.343H407.234z M413.674,421.632h-3.807
		l-1.489-6.302h-6.996l-1.44,6.302h-3.737l6.768-27.854h3.745L413.674,421.632z"/>
	<path fill-rule="evenodd" clip-rule="evenodd" d="M418.494,412.569l3.411-0.545c0.388,3.553,1.657,5.329,3.808,5.329
		c1.065,0,1.903-0.363,2.514-1.091c0.61-0.727,0.916-1.628,0.916-2.702c0-0.633-0.107-1.17-0.32-1.612
		c-0.214-0.442-0.539-0.807-0.976-1.091c-0.437-0.285-1.491-0.762-3.163-1.433c-1.498-0.594-2.595-1.239-3.29-1.936
		c-0.696-0.695-1.249-1.609-1.66-2.742s-0.616-2.35-0.616-3.653c0-1.518,0.264-2.885,0.791-4.099
		c0.527-1.215,1.256-2.132,2.185-2.752c0.93-0.62,2.076-0.931,3.44-0.931c2.053,0,3.654,0.729,4.806,2.187
		c1.151,1.458,1.761,3.543,1.829,6.255l-3.529,0.234c-0.155-1.487-0.49-2.526-1.004-3.119c-0.515-0.592-1.247-0.889-2.197-0.889
		c-0.951,0-1.684,0.257-2.197,0.77s-0.771,1.15-0.771,1.914c0,0.751,0.236,1.383,0.707,1.896s1.541,1.085,3.21,1.718
		c1.766,0.684,3.042,1.395,3.829,2.135s1.389,1.696,1.805,2.866c0.415,1.171,0.623,2.591,0.623,4.262
		c0,2.416-0.567,4.447-1.702,6.093c-1.134,1.645-2.908,2.467-5.321,2.467C421.351,422.099,418.976,418.922,418.494,412.569z"/>
	<path fill-rule="evenodd" clip-rule="evenodd" d="M439.311,416.303h3.322v3.819c0,2.166-0.192,3.775-0.576,4.827
		c-0.47,1.305-1.257,2.273-2.361,2.907l-0.651-2.203c0.651-0.356,1.121-0.836,1.408-1.439c0.288-0.604,0.441-1.464,0.46-2.582
		h-1.602V416.303z"/>
	<path fill-rule="evenodd" clip-rule="evenodd" d="M479.381,411.402v-4.707h7.593v11.093c-0.763,1.177-1.845,2.19-3.245,3.039
		c-1.399,0.849-2.806,1.272-4.216,1.272c-1.719,0-3.234-0.554-4.549-1.661c-1.313-1.108-2.354-2.767-3.121-4.976
		s-1.152-4.807-1.152-7.794c0-3.064,0.389-5.685,1.166-7.862c0.777-2.177,1.786-3.804,3.027-4.88
		c1.24-1.076,2.725-1.614,4.453-1.614c2.075,0,3.738,0.695,4.988,2.086c1.251,1.391,2.055,3.431,2.412,6.123l-3.471,1.05
		c-0.261-1.434-0.739-2.531-1.435-3.293c-0.696-0.761-1.527-1.142-2.493-1.142c-1.498,0-2.711,0.761-3.638,2.283
		c-0.928,1.522-1.392,3.844-1.392,6.964c0,3.349,0.502,5.894,1.506,7.638c0.858,1.503,2.021,2.255,3.488,2.255
		c0.686,0,1.396-0.211,2.135-0.633s1.397-0.998,1.977-1.729v-3.513H479.381z"/>
	<path fill-rule="evenodd" clip-rule="evenodd" d="M503.324,410.624l-2.413-10.343l-2.362,10.343H503.324z M509.764,421.632h-3.807
		l-1.489-6.302h-6.996l-1.44,6.302h-3.737l6.769-27.854h3.744L509.764,421.632z"/>
	<rect x="515.355" y="393.779" fill-rule="evenodd" clip-rule="evenodd" width="3.5" height="27.854"/>
	<path fill-rule="evenodd" clip-rule="evenodd" d="M525.193,412.569l3.41-0.545c0.388,3.553,1.656,5.329,3.808,5.329
		c1.065,0,1.903-0.363,2.515-1.091c0.609-0.727,0.915-1.628,0.915-2.702c0-0.633-0.106-1.17-0.32-1.612s-0.538-0.807-0.976-1.091
		c-0.437-0.285-1.49-0.762-3.163-1.433c-1.498-0.594-2.595-1.239-3.29-1.936c-0.696-0.695-1.249-1.609-1.66-2.742
		c-0.41-1.133-0.616-2.35-0.616-3.653c0-1.518,0.264-2.885,0.792-4.099c0.526-1.215,1.255-2.132,2.184-2.752
		c0.93-0.62,2.076-0.931,3.441-0.931c2.051,0,3.653,0.729,4.805,2.187c1.151,1.458,1.762,3.543,1.829,6.255l-3.53,0.234
		c-0.154-1.487-0.489-2.526-1.003-3.119c-0.515-0.592-1.247-0.889-2.197-0.889c-0.951,0-1.683,0.257-2.197,0.77
		s-0.771,1.15-0.771,1.914c0,0.751,0.235,1.383,0.707,1.896s1.541,1.085,3.21,1.718c1.766,0.684,3.042,1.395,3.829,2.135
		c0.788,0.74,1.389,1.696,1.805,2.866c0.415,1.171,0.623,2.591,0.623,4.262c0,2.416-0.567,4.447-1.702,6.093
		c-1.134,1.645-2.908,2.467-5.321,2.467C528.05,422.099,525.675,418.922,525.193,412.569z"/>
	<path fill-rule="evenodd" clip-rule="evenodd" d="M546.009,416.303h3.322v3.819c0,2.166-0.192,3.775-0.576,4.827
		c-0.471,1.305-1.258,2.273-2.361,2.907l-0.651-2.203c0.651-0.356,1.121-0.836,1.408-1.439c0.288-0.604,0.441-1.464,0.46-2.582
		h-1.602V416.303z"/>
	<polygon fill-rule="evenodd" clip-rule="evenodd" fill="#EA6EA3" points="434.895,161.994 602.945,459.398 769.978,161.994 	"/>
	<polygon fill="none" stroke="#000000" stroke-width="12.0833" stroke-miterlimit="10" points="434.895,161.994 602.945,459.398 
		769.978,161.994 	"/>
	<path fill-rule="evenodd" clip-rule="evenodd" d="M380.916,367.733c24.444-2.038,75.368-15.279,100.83-60.094
		c25.462-44.813,44.814-82.498,58.055-132.405H419.618l-22.405,56.018c8.074-14.921,36.664-15.277,41.756-12.222
		c19.216,11.529,12.063,39.318,9.168,45.833c-4.075,9.167-18.333,47.87-36.667,62.129c-16.862-12.702-27.499-19.353-35.646-40.739
		c-8.148-21.39-21.067-61.729,9.166-143.611c24.443-66.204,72.313-97.777,82.498-102.869c10.185-5.093,32.592-15.278,32.592-15.278
		s9.167,26.481,2.037,55c-2.762,11.047-20.37,67.22-20.37,67.22s34.629-15.276,44.814-27.499
		c10.185-12.223,31.573-61.111,23.424-83.519C541.837,13.292,526.56-0.967,484.8,0.051C453.838,0.806,379.896,19.404,333.046,89.68
		c-49.706,74.561-61.109,158.886-38.702,219.998C315.846,368.322,356.471,369.77,380.916,367.733L380.916,367.733z"/>
	<polygon fill-rule="evenodd" clip-rule="evenodd" points="67.73,378.936 3.564,378.936 89.626,210.882 0,39.773 63.147,39.773 
		118.145,149.771 173.143,39.773 233.234,39.773 151.755,211.9 240.363,378.936 178.235,378.936 119.164,269.956 	"/>
	<polygon fill-rule="evenodd" clip-rule="evenodd" fill="#FFFFFF" points="206.753,111.069 206.753,283.196 355.453,283.196 
		355.453,242.456 265.826,242.456 265.826,216.993 339.156,216.993 339.156,175.234 265.826,175.234 265.826,153.846 
		350.361,153.846 350.361,111.069 	"/>
	<polygon fill="none" stroke="#FFFFFF" stroke-width="12.0832" stroke-miterlimit="10" points="206.753,111.069 206.753,283.196 
		355.453,283.196 355.453,242.456 265.826,242.456 265.826,216.993 339.156,216.993 339.156,175.234 265.826,175.234 
		265.826,153.846 350.361,153.846 350.361,111.069 	"/>
	<polygon fill-rule="evenodd" clip-rule="evenodd" points="206.753,111.069 206.753,283.196 355.453,283.196 355.453,242.456 
		265.826,242.456 265.826,216.993 339.156,216.993 339.156,175.234 265.826,175.234 265.826,153.846 350.361,153.846 
		350.361,111.069 	"/>
	<path fill-rule="evenodd" clip-rule="evenodd" d="M590.725,224.122h32.592l-16.297-59.073L590.725,224.122z M577.484,111.069
		L519.43,283.196h53.979l7.13-20.369h53.979l8.147,20.369h57.037L633.5,111.069H577.484z"/>
</g>
</svg>
