<?xml version="1.0" encoding="UTF-8" standalone="no"?>
<!-- Created with Inkscape (http://www.inkscape.org/) -->

<svg
   xmlns:dc="http://purl.org/dc/elements/1.1/"
   xmlns:cc="http://creativecommons.org/ns#"
   xmlns:rdf="http://www.w3.org/1999/02/22-rdf-syntax-ns#"
   xmlns:svg="http://www.w3.org/2000/svg"
   xmlns="http://www.w3.org/2000/svg"
   xmlns:sodipodi="http://sodipodi.sourceforge.net/DTD/sodipodi-0.dtd"
   xmlns:inkscape="http://www.inkscape.org/namespaces/inkscape"
   version="1.1"
   width="139.12125"
   height="98.08902"
   id="svg3080"
   inkscape:version="0.48.3.1 r9886"
   sodipodi:docname="logo_salud.svg">
  <sodipodi:namedview
     pagecolor="#ffffff"
     bordercolor="#666666"
     borderopacity="1"
     objecttolerance="10"
     gridtolerance="10"
     guidetolerance="10"
     inkscape:pageopacity="0"
     inkscape:pageshadow="2"
     inkscape:window-width="1366"
     inkscape:window-height="715"
     id="namedview85"
     showgrid="false"
     fit-margin-top="0"
     fit-margin-left="0"
     fit-margin-right="0"
     fit-margin-bottom="0"
     inkscape:zoom="5.0743655"
     inkscape:cx="102.42953"
     inkscape:cy="49.330245"
     inkscape:window-x="0"
     inkscape:window-y="0"
     inkscape:window-maximized="1"
     inkscape:current-layer="svg3080" />
  <defs
     id="defs3082" />
  <metadata
     id="metadata3085">
    <rdf:RDF>
      <cc:Work
         rdf:about="">
        <dc:format>image/svg+xml</dc:format>
        <dc:type
           rdf:resource="http://purl.org/dc/dcmitype/StillImage" />
        <dc:title></dc:title>
      </cc:Work>
    </rdf:RDF>
  </metadata>
  <g
     id="g4081">
    <path
       d="M 78.599875,12.607765 62.485,12.60764 l 0.03,11.663125 0.0125,4.066875 c -0.02875,0.615875 0.07,1.335125 0.37075,1.870875 0.526875,0.98625 1.5345,1.605625 2.63825,1.675875 l 4.097375,0.0125 c 0.353625,0.03 0.707625,0.13225 1.012875,0.314375 0.261875,-0.147 0.535875,-0.263625 0.84675,-0.307125 l 4.024125,0 c 0.45725,-0.0125 0.896125,-0.06875 1.285875,-0.24725 0.99875,-0.45375 1.661,-1.364 1.841125,-2.407125 l 0,-6.962875 -0.0375,-9.676 z m 0.4195,-0.470625 0.0625,16.974375 c -0.130875,1.262375 -0.98125,2.484 -2.18725,2.96275 -0.377625,0.153375 -0.77375,0.245875 -1.2005,0.265375 l -3.103375,0 c -0.682875,0 -1.46975,-0.13625 -1.93175,0.413625 C 70.237375,32.38239 69.725,32.28014 69.194625,32.31814 l -3.597375,0.0125 c -1.32925,-0.03875 -2.630125,-0.883375 -3.169875,-2.125875 -0.172,-0.4445 -0.3255,-0.88925 -0.32075,-1.4075 l -0.0125,-7.17025 0,-2.195 -0.06125,-7.298625 16.986625,0.0125 z"
       id="path604"
       style="fill:#706d6e;fill-opacity:1;fill-rule:evenodd;stroke:#706d6e;stroke-width:0.076875;stroke-linecap:butt;stroke-linejoin:miter;stroke-miterlimit:3.86369991;stroke-opacity:1;stroke-dasharray:none"
       inkscape:connector-curvature="0" />
    <path
       d="m 70.763375,0.293515 -0.625625,0 0,0.353 -0.38575,0 0.0125,0.58875 0.378,0.0125 -0.0125,0.5975 c -0.505875,0.0625 -1.042,0.21 -1.504875,0.443 L 68.1245,2.070015 c -1.519375,-0.489875 -3.2195,-0.1075 -4.283125,1.1575 -0.89975,1.008375 -1.243,2.679875 -0.64825,3.977 0.250125,0.04875 0.458,0.2305 0.5865,0.4375 0.141375,0.420375 0.3375,0.834375 0.47275,1.2425 0.147375,0.389875 0.550375,0.645 0.965,0.643875 0.01875,0.10375 0.07375,0.18275 0.147,0.26175 0.0675,0.0425 0.16475,0.04875 0.231875,0.0425 l 10.084625,-0.0125 c 0.134,-0.0425 0.20675,-0.1895 0.230875,-0.3115 0.23775,-0.025 0.457125,-0.09875 0.645625,-0.245625 0.58375,-0.61725 0.38575,-1.702 1.2995,-2.03975 L 78.04425,6.57639 C 78.338625,4.905015 77.60275,3.291265 76.20425,2.429015 75.135375,1.724515 73.41575,1.63764 72.295625,2.29289 72.008625,2.159515 71.71575,2.02614 71.4045,1.95989 71.203125,1.88739 71.021625,1.87864 70.788375,1.81514 l 0,-0.573625 0.377875,-0.0125 0,-0.572625 -0.39025,0 0,-0.368125 z m 4.51975,10.0425 -9.493125,-1.25e-4 0.14775,0.591625 -0.133875,0.09125 c -0.0725,0.04875 -0.10375,0.146625 -0.085,0.25025 0.01875,0.12125 0.08,0.1765 0.189625,0.231125 l 9.200625,0.0125 0.164375,-0.07375 c 0.07875,-0.07375 0.0725,-0.19525 0.0725,-0.280625 -0.03125,-0.1225 -0.140625,-0.146 -0.220125,-0.231125 0.05375,-0.19525 0.133125,-0.378375 0.157,-0.58575 z m -4.0925,-9.86675 c 0.146875,0.1825 0.159875,0.505625 0.105,0.761875 -0.05375,0.183 -0.230875,0.329875 -0.334125,0.482625 0.463625,0.07125 0.890875,0.2355 1.318125,0.405 1.4005,-0.710875 3.35225,-0.472125 4.50725,0.573625 1.179375,1.02125 1.72025,2.641625 1.2975,4.228 -0.09125,0.225875 -0.09,0.591625 -0.4375,0.568125 C 77.1725,7.91664 77.168125,8.59339 76.8585,9.11864 c -0.169875,0.311375 -0.50475,0.47075 -0.82775,0.538625 -0.0975,0.152625 -0.230875,0.342 -0.456375,0.324375 -0.1335,0.268625 -0.206,0.5675 -0.27225,0.8665 0.08625,0.14 0.220125,0.219 0.190125,0.408 0.01875,0.12125 -0.09125,0.2075 -0.133375,0.293 l -0.219125,0.11625 -9.219,-0.0125 c -0.1225,-0.03 -0.25025,-0.10875 -0.3055,-0.231 -0.07375,-0.0975 -0.055,-0.274125 -0.01875,-0.377875 0.04875,-0.08 0.085,-0.152625 0.164125,-0.195625 -0.01875,-0.2865 -0.12375,-0.57275 -0.252125,-0.8285 -0.164625,-0.03 -0.33575,-0.157625 -0.397125,-0.322125 -1.189375,-0.11875 -1.03425,-1.43625 -1.597,-2.135875 -0.1345,-0.16425 -0.378375,-0.133125 -0.47025,-0.303625 -0.55875,-1.468 -0.233875,-3.200375 0.8485,-4.2885 1.143125,-1.216375 2.90425,-1.5745 4.40575,-0.99325 L 68.6035,2.10989 c 0.42025,-0.17175 0.85275,-0.325375 1.316,-0.3875 -0.275,-0.24925 -0.41625,-0.657375 -0.325875,-1.054 0.07875,-0.305 0.407,-0.555875 0.705625,-0.6115 0.37175,-0.05625 0.7075,0.12 0.89125,0.406125 z"
       id="path606"
       style="fill:#706d6e;fill-opacity:1;fill-rule:evenodd;stroke:#706d6e;stroke-width:0.076875;stroke-linecap:butt;stroke-linejoin:miter;stroke-miterlimit:3.86369991;stroke-opacity:1;stroke-dasharray:none"
       inkscape:connector-curvature="0" />
    <path
       d="M 76.6455,4.33289 C 76.033125,3.346765 74.977,2.800765 73.831,2.931765 c 0.4345,0.58425 0.820375,1.266 0.968625,2.003375 l 0.868625,0 c 0.594625,0.015 1.16275,0.408375 1.358875,0.8225 0,-0.512125 -0.14275,-0.975125 -0.381625,-1.419625 z M 73.250875,4.96364 C 72.968125,4.10464 72.16125,3.241015 71.2705,3.02989 l 0,1.93275 1.975375,10e-4 z M 69.704,3.223015 c -1.25e-4,-0.055 0.0175,-0.176875 -0.07375,-0.188875 -0.90175,0.24625 -1.680125,1.034875 -1.9095,1.907375 0.652375,0.01625 1.987625,8.75e-4 1.987625,8.75e-4 l 0,-1.719375 z M 67.087625,2.93714 C 66.557,2.88339 66.112125,2.97589 65.64925,3.16039 64.6565,3.61414 63.982375,4.59764 63.973125,5.71339 l 0.194375,-0.281 c 0.461625,-0.66575 1.419375,-0.436625 1.955875,-0.48675 0.126875,-0.43325 0.266125,-0.823875 0.45425,-1.17175 0.151625,-0.29925 0.334,-0.5315 0.51,-0.83675 z m -0.976,2.18525 c -0.46325,0.02625 -1.189375,-0.1615 -1.609125,0.2055 -0.371375,0.2265 -0.504125,0.726875 -0.45425,1.129125 0.237375,-0.10375 0.56675,-0.075 0.762375,0.10125 0.2565,0.188375 0.287875,0.511375 0.2215,0.804125 l 0.09125,0.0125 c 0.25625,0.085 0.51625,0.36025 0.559625,0.6345 0.19825,-0.1525 0.335375,-0.09125 0.457375,-0.03 0,-0.335375 0.403625,-0.58325 0.63525,-0.60825 -0.01875,-0.085 -0.03125,-0.17675 -0.04375,-0.262125 -0.0125,-0.280375 0.19975,-0.543125 0.43725,-0.659625 0.195,-0.03125 0.4145,-0.08 0.5855,0.04125 0.321375,0.08625 0.4585,0.559 0.306125,0.909625 0.311,0.035 0.575,0.332 0.649,0.61225 0.09125,-0.07375 0.200875,-0.10375 0.335,-0.0925 0.085,-0.0125 0.165,0.139875 0.231875,0.04875 0.0425,-0.286625 0.309625,-0.519 0.571625,-0.574625 L 69.817,7.028515 c 0.03,-0.231875 0.199875,-0.464 0.407,-0.556 0.2435,-0.1225 0.55475,-0.04375 0.75025,0.126125 0.1895,0.182375 0.3,0.499125 0.191125,0.779875 0.304875,0.0425 0.56775,0.297375 0.64175,0.596 0.139875,-0.10375 0.347375,-0.0375 0.48775,-0.01375 0.05375,-0.292875 0.34,-0.54975 0.626375,-0.605375 L 72.89,7.008015 c 0.06,-0.262375 0.2365,-0.4885 0.4985,-0.5745 0.2985,-0.08 0.561,0.05375 0.7445,0.26025 0.159,0.1765 0.12925,0.463 0.135875,0.676375 0.32325,0.0475 0.537375,0.297375 0.629625,0.596 0.152125,-0.08 0.3535,-0.05 0.49375,-0.01375 0.03625,-0.07875 0.04875,-0.16475 0.09125,-0.238 0.115,-0.20775 0.3345,-0.311875 0.541625,-0.367375 l -0.05,-0.249875 c 0.0175,-0.30475 0.19975,-0.561375 0.486,-0.671875 0.15225,-0.0675 0.3475,-8.75e-4 0.493875,0 0.0425,-0.20125 -0.0125,-0.4085 -0.075,-0.585125 -0.42,-0.96925 -2.050375,-0.69575 -2.050375,-0.69575 0.0675,0.304625 0.0625,0.68875 0.06375,1.018 l -1.463125,0.0125 c 0,0 -7.5e-4,-0.23775 -0.03125,-0.36575 -0.025,-0.23775 0,-0.219125 -0.0925,-0.6825 l -2.043,0.0125 c 0,0.3475 0,1.042625 0,1.042625 l -1.555375,0 0,-1.036375 -2.048625,0 C 67.5745,5.450515 67.582,5.810265 67.607,6.145515 l -1.493875,0.04 c -0.0675,-0.34125 0,-0.7255 0,-1.061 z m 1.85325,-2.41925 c -0.924625,0.801125 -1.53125,1.985625 -1.4425,3.290125 l 0.64625,0 c -0.07,-1.31675 0.63375,-2.531875 1.747875,-3.1385 0.377625,-0.1655 0.749125,-0.34325 1.194125,-0.356625 l 0,3.50575 0.701375,0 -0.0125,-3.481375 c 0.164375,-0.09125 0.305,0.05375 0.469625,0.04125 1.153125,0.259125 2.15575,1.317375 2.433,2.426375 0.08,0.304625 0.09375,0.6765 0.10625,0.981375 l 0.686,0 c 0,-0.23475 -0.0225,-0.390375 -0.04125,-0.5855 -0.125,-1.03625 -0.63925,-1.96775 -1.458125,-2.660625 0.03625,-0.12825 0.213125,-0.11 0.322875,-0.1655 1.364875,-0.3145 2.732,0.20625 3.503125,1.295625 0.648375,0.8275 0.81025,2.113625 0.42875,3.1145 -0.06125,-0.03 -0.055,-0.146125 -0.11625,-0.200875 -0.128375,-0.133875 -0.268875,-0.243125 -0.451875,-0.236625 -0.2195,-0.0175 -0.41425,0.1175 -0.511375,0.294 -0.1025,0.165 -0.0725,0.421 0.02625,0.573125 l 0.146625,0.146 c -0.164625,-0.0175 -0.37825,-0.1025 -0.524375,0.01375 -0.13375,0.0975 -0.261625,0.201875 -0.291625,0.3665 -0.0125,0.16475 0.0125,0.311 0.08625,0.438875 0.09125,0.115 0.2445,0.21275 0.397,0.23675 0.1645,-0.0125 0.323,-0.0375 0.456875,-0.12375 0.03125,0.17675 -0.0475,0.32325 -0.12125,0.43925 -0.16425,0.165125 -0.42,0.269375 -0.67025,0.178625 -0.177,-0.0975 -0.366375,-0.249125 -0.37925,-0.4685 0.10375,-0.11 0.1945,-0.268875 0.115,-0.421 -0.09125,-0.14 -0.24425,-0.164 -0.3845,-0.145375 -0.09125,0.0425 -0.1825,0.146875 -0.2005,0.2505 -0.06625,0.201375 0.305625,0.291875 0.08625,0.4815 -0.11,0.177125 -0.32225,0.3545 -0.56625,0.324625 -0.164625,0 -0.292875,-0.09625 -0.415125,-0.20625 -0.07375,-0.133875 -0.16525,-0.26175 -0.12925,-0.438625 0.140625,0.13975 0.39675,0.157375 0.597875,0.1025 0.213125,-0.0925 0.35275,-0.305875 0.364375,-0.5315 -0.0375,-0.18275 -0.11625,-0.383875 -0.306125,-0.480875 -0.140375,-0.055 -0.311125,-0.0725 -0.469625,-0.04125 0.10875,-0.158875 0.176,-0.348125 0.145,-0.543125 -0.04875,-0.18275 -0.1715,-0.29825 -0.336375,-0.395375 -0.164625,-0.03625 -0.329375,-0.05375 -0.481625,0.02 -0.194875,0.10375 -0.298,0.299625 -0.309625,0.513 0.01875,0.146375 0.07375,0.274125 0.165625,0.395875 -0.164625,0 -0.384,-0.0125 -0.530125,0.09875 -0.15225,0.11625 -0.243,0.35425 -0.19975,0.573625 0.0375,0.15225 0.15325,0.3105 0.305875,0.37725 0.201375,0.085 0.457375,0.04125 0.627875,-0.075 0.06125,0.146125 -0.03,0.29275 -0.1025,0.414875 -0.10375,0.11625 -0.2495,0.18975 -0.408,0.220625 -0.188875,0.01875 -0.341625,-0.085 -0.469875,-0.175625 -0.08625,-0.115 -0.19575,-0.23725 -0.129125,-0.396 0.06625,-0.07875 0.115,-0.18925 0.0725,-0.292875 -0.03625,-0.09125 -0.1345,-0.158125 -0.22,-0.188375 -0.10375,0 -0.231625,6.25e-4 -0.310625,0.08625 -0.06625,0.08 -0.06,0.2075 -0.0425,0.311125 0.06125,0.0725 0.08625,0.15825 0.07375,0.262 -0.0725,0.219625 -0.322125,0.378875 -0.553875,0.409875 -0.1585,0 -0.329375,-0.0725 -0.451625,-0.206125 -0.1225,-0.12775 -0.153375,-0.32875 -0.1355,-0.481375 0.195625,0.206875 0.445625,0.194 0.689375,0.10125 0.158125,-0.09125 0.291875,-0.268875 0.273125,-0.470125 0.0125,-0.23175 -0.129125,-0.396 -0.30625,-0.511375 -0.146625,-0.0725 -0.29275,-0.0425 -0.45125,-0.04125 0.0975,-0.12825 0.15775,-0.2625 0.1695,-0.42725 -0.0125,-0.20725 -0.129,-0.3715 -0.293875,-0.480875 -0.183125,-0.07875 -0.445375,-0.10875 -0.609625,0.0325 -0.182625,0.140625 -0.243,0.335875 -0.218,0.555375 0.0125,0.128 0.08625,0.225375 0.15925,0.32275 -0.195125,-0.02375 -0.43275,0.01875 -0.572625,0.17825 -0.12125,0.1345 -0.181875,0.36025 -0.11375,0.555125 0.0675,0.18275 0.250875,0.359125 0.4705,0.364625 0.1585,0.02375 0.280375,-0.0375 0.40825,-0.07375 0.01875,0.25 -0.1635,0.421125 -0.376625,0.543625 -0.195,0.06125 -0.420625,0.03125 -0.573375,-0.1025 -0.10375,-0.11 -0.207875,-0.225 -0.202125,-0.3775 0.11,-0.09125 0.157875,-0.232125 0.115,-0.366125 -0.055,-0.07875 -0.11625,-0.170375 -0.219875,-0.17625 -0.10375,-0.03 -0.2195,0 -0.292375,0.08625 -0.07875,0.07375 -0.085,0.195375 -0.06,0.292875 0.01875,0.11 0.152625,0.139875 0.10375,0.280125 -0.07875,0.164875 -0.2005,0.287125 -0.364875,0.36675 -0.243625,0.0925 -0.487875,-0.02875 -0.658875,-0.175 -0.08625,-0.11 -0.141,-0.274 -0.08625,-0.408375 0.14075,0.133875 0.329625,0.115 0.512375,0.07125 0.201,-0.10375 0.37125,-0.2875 0.3645,-0.531375 C 68.5515,7.89514 68.47775,7.75514 68.3435,7.63964 68.209,7.51189 68.00775,7.51839 67.843125,7.52464 c 0.0975,-0.165 0.20025,-0.38475 0.11375,-0.604 -0.0425,-0.15225 -0.18975,-0.255625 -0.324125,-0.3345 -0.158625,-0.03625 -0.3355,-0.06625 -0.481625,0.03125 -0.188625,0.10375 -0.304,0.2935 -0.29125,0.513 0.0125,0.14625 0.09875,0.261875 0.147375,0.395875 -0.182875,0.0125 -0.366,-0.03625 -0.511875,0.09875 -0.12775,0.10375 -0.157875,0.23825 -0.2185,0.384625 -0.0125,0.219625 0.1175,0.463125 0.33675,0.566125 0.2015,0.085 0.4575,0.05375 0.615625,-0.0875 0.0425,0.12125 0,0.274375 -0.0725,0.378125 C 67.011,9.037515 66.810125,9.172265 66.572125,9.118015 66.4135,9.088015 66.267,8.98464 66.162875,8.84464 c -0.238375,-0.231 0.139375,-0.354 0.02875,-0.60375 -0.0425,-0.085 -0.1345,-0.158 -0.238375,-0.18825 -0.128,-0.0125 -0.24975,0.0375 -0.316625,0.147125 -0.04875,0.0975 -0.02375,0.20125 0.0125,0.292625 0.03125,0.085 0.1465,0.09125 0.10375,0.207 -0.085,0.225875 -0.27325,0.384875 -0.511,0.422125 -0.20725,0.025 -0.384375,-0.0725 -0.512625,-0.199875 -0.11,-0.12125 -0.15325,-0.28625 -0.135375,-0.43875 0.128375,0.10375 0.3175,0.163875 0.50025,0.115 0.188875,-0.055 0.389625,-0.208375 0.419625,-0.409625 0.03,-0.183 -0.03125,-0.33525 -0.1175,-0.469125 -0.146875,-0.200875 -0.390875,-0.224625 -0.616375,-0.20575 0.133625,-0.189375 0.20625,-0.402875 0.1325,-0.628375 -0.04875,-0.152375 -0.214125,-0.26775 -0.3545,-0.334375 -0.177,-0.0425 -0.34775,-0.0475 -0.49375,0.05625 -0.152125,0.11 -0.255375,0.25675 -0.248875,0.439625 -0.490125,-0.962 -0.27425,-2.31 0.315,-3.146875 0.674125,-0.977375 1.87375,-1.571875 3.124125,-1.4105 0.25,0.03 0.488,0.1025 0.70775,0.205375 z"
       id="path608"
       style="fill:#706d6e;fill-opacity:1;fill-rule:evenodd;stroke:#706d6e;stroke-width:0.076875;stroke-linecap:butt;stroke-linejoin:miter;stroke-miterlimit:3.86369991;stroke-opacity:1;stroke-dasharray:none"
       inkscape:connector-curvature="0" />
    <path
       d="m 70.847875,13.97539 c -0.07375,-0.146125 -0.250625,-0.21275 -0.415125,-0.157375 -0.0975,0.055 -0.158125,0.140625 -0.169875,0.2625 -0.02375,0.11625 0.055,0.20725 0.11625,0.274125 -0.11,0.08625 -0.213,0.1895 -0.261375,0.32375 -0.316625,0.153375 -0.2385,-0.255375 -0.458,-0.273125 -0.10375,-0.02375 -0.237875,-0.03 -0.323,0.05625 -0.085,0.08 -0.1025,0.213625 -0.0725,0.32325 0.04875,0.11 0.17125,0.188625 0.268875,0.188375 0.10375,-2.5e-4 0.03625,0.128 0.055,0.188875 0.0375,0.1585 0.183875,0.334875 0.354625,0.364875 l 0.0675,4.60925 -0.0425,0.134375 c -0.201,0.134625 -0.334625,0.28125 -0.46825,0.470625 L 65.841,20.68989 c -0.03625,-0.03 -0.06125,-0.07375 -0.07375,-0.11625 -0.07375,-0.152125 -0.232375,-0.231 -0.390875,-0.230625 -0.11,-0.06 -0.0925,-0.219125 -0.208,-0.292125 -0.0975,-0.0725 -0.213625,-0.04875 -0.305,-0.03 -0.12125,0.04875 -0.188625,0.16525 -0.176,0.305375 0.025,0.152375 0.16525,0.23125 0.293375,0.291875 l -0.0175,0.29275 c -0.11625,0.055 -0.213,0.10375 -0.292,0.22025 -0.085,-0.09125 -0.21975,-0.115 -0.3355,-0.1025 -0.11,0.0375 -0.1705,0.1285 -0.200625,0.238375 -0.02375,0.0975 0.0375,0.15225 0.055,0.2315 0.08,0.09125 0.20775,0.151875 0.33575,0.1025 0.0725,-1.25e-4 0.12125,-0.11625 0.194875,-0.07375 0.03625,0.0975 0.159,0.170375 0.244375,0.231125 l 0.01875,0.20725 c -0.09125,0.0675 -0.207125,0.0925 -0.261625,0.208 -0.055,0.10375 -0.03625,0.250125 0.04375,0.33525 0.07875,0.09125 0.207625,0.12125 0.32325,0.085 0.14025,-0.0375 0.188625,-0.195625 0.24325,-0.3055 0.0675,0.0125 0.11,-0.03125 0.17675,-0.01875 0.15225,-0.04375 0.2495,-0.183625 0.31,-0.317875 l 1.268375,0.0125 -0.665,2.1845 0.366875,-6.25e-4 0.1565,-0.354375 0.5745,0.4985 0.571125,-0.532 0.17225,0.38375 0.384125,-0.01875 -0.73725,-2.1625 1.609375,-0.065 c 0.153,0.20075 0.26925,0.371125 0.495125,0.51075 l -0.0975,6.896125 c -0.249875,0.0675 -0.2185,0.38475 -0.46825,0.47075 -0.12125,0.11 -0.182,0.342 -0.115,0.524625 0.04875,0.10375 0.165125,0.188625 0.262875,0.231 0.152375,0.0125 0.329125,-8.75e-4 0.456875,-0.09875 0.348,0.1515 0.835875,0.150125 1.182875,0 0.10375,0.12125 0.293125,0.133375 0.457625,0.09625 0.12125,-0.06125 0.219,-0.140875 0.261375,-0.275125 0.03625,-0.146375 0,-0.29875 -0.0925,-0.40825 -0.305125,-0.09625 -0.2025,-0.499375 -0.538,-0.5595 l -0.11,-6.8895 c 0.1765,-0.14075 0.340875,-0.2875 0.46825,-0.482875 l 0.920875,0.0525 0.0225,1.53625 c -0.0125,0.292875 0.0625,0.58525 0.33725,0.71875 0.158625,0.05375 0.366,0.09 0.524375,0.0125 0.236875,-0.342 0.464,0.2305 0.79275,0.04625 0.219375,-0.055 0.407875,-0.220625 0.46825,-0.44025 l 0.02,-1.8475 0.573125,-0.01375 c 0.0975,0.10375 0.140875,0.249625 0.2935,0.322375 0.08,0.09125 0.365625,-0.08625 0.293125,0.15775 0.0425,0.0675 0.09125,0.164375 0.17725,0.1885 0.1225,0.03625 0.256125,0 0.347375,-0.07375 0.06625,-0.07375 0.06,-0.177 0.06,-0.274625 -0.01875,-0.152375 -0.1895,-0.1885 -0.29325,-0.249125 -0.0925,-0.2925 0.20025,-0.348125 0.32175,-0.500875 0.0675,0.0725 0.171125,0.127625 0.293,0.1025 0.085,-0.03625 0.1705,-0.08 0.219,-0.177375 0.02375,-0.10375 0.0175,-0.243875 -0.06125,-0.304625 -0.07375,-0.0975 -0.18325,-0.115 -0.30525,-0.1025 -0.20025,0.317625 -0.256375,-0.157875 -0.4575,-0.145125 -0.177625,-0.29225 0.2005,-0.2445 0.27925,-0.43975 0.02375,-0.11625 0.02375,-0.256125 -0.07375,-0.33525 -0.085,-0.06 -0.18925,-0.085 -0.305125,-0.0725 -0.06625,0.03625 -0.15825,0.08 -0.176375,0.158875 0.05,0.219375 -0.188625,0.146875 -0.29225,0.1655 -0.170625,0.055 -0.23725,0.1835 -0.31,0.336125 l -3.682625,0.0125 C 71.54125,20.55789 71.364,20.375515 71.18075,20.26614 l -1.25e-4,-0.06125 0,-4.6705 0.23125,-0.128625 c 0.11,-0.11 0.14575,-0.24425 0.145375,-0.39675 l 0.21925,-0.10375 c 0.0725,-0.08 0.10375,-0.195375 0.09,-0.292875 -0.025,-0.07375 -0.08,-0.1645 -0.165125,-0.188625 -0.128125,-0.06 -0.311,-0.03 -0.396,0.08625 0.0125,0.23775 -0.213125,0.147 -0.335,0.1655 -0.025,-0.128 -0.17125,-0.219 -0.22025,-0.322625 0.07875,-0.10375 0.1335,-0.232 0.09,-0.366 z m 0.12775,-0.08625 c 0.153,0.213 -0.181625,0.482125 0.1175,0.62775 0.115,-0.146625 0.273625,-0.2995 0.468625,-0.312125 0.183,0.02375 0.390625,0.139125 0.439875,0.322 0.09875,0.225375 -0.0475,0.4025 -0.175375,0.543 l 0.04375,4.94475 0.07375,0.0425 3.950875,-0.0225 c 0.07875,-0.0975 0.213125,-0.140875 0.335,-0.1595 0.146375,0.03 0.292875,0.0725 0.384625,0.20025 0.085,0.12125 0.08,0.2925 0.05625,0.438875 -0.055,0.1225 -0.151875,0.226 -0.273625,0.281125 0.0125,0.055 0.07375,0.10375 0.11625,0.12775 0.17675,-0.0675 0.43275,-0.06875 0.573375,0.07125 0.0975,0.11 0.147,0.2375 0.147375,0.383875 -0.0175,0.12125 -0.07875,0.238 -0.145625,0.3235 -0.127625,0.11 -0.322625,0.147125 -0.4875,0.08625 -0.07375,-0.09125 -0.134,0.0375 -0.201,0.06125 -0.04875,0.11625 0.128375,0.10875 0.159125,0.20075 0.11625,0.11625 0.12875,0.274 0.1175,0.43875 -0.03,0.140375 -0.151875,0.24425 -0.273625,0.311625 -0.2315,0.0925 -0.445125,-0.02375 -0.604125,-0.1935 l -0.8475,-0.0125 -0.0425,0.06125 c -0.09,0.6405 0.25975,1.432125 -0.465,1.739 -0.243625,0.11625 -0.560875,0.05625 -0.7745,-0.08375 -0.18275,0.0975 -0.408125,0.177875 -0.62775,0.105 -0.78725,-0.229625 -0.515125,-1.1265 -0.57775,-1.77275 -0.152625,-0.05375 -0.420875,-0.05375 -0.585375,-0.0125 l 0.03625,7.023875 c 0.12825,0.10875 0.1715,0.304375 0.19025,0.481125 -0.0175,0.225625 -0.1635,0.43325 -0.382875,0.513125 -0.158375,0.06125 -0.34125,0.01875 -0.48175,-0.06 -0.359375,0.135 -0.835,0.13625 -1.201125,0 -0.152375,0.04875 -0.341125,0.11625 -0.512,0.05 -0.2015,-0.07875 -0.3545,-0.31 -0.349,-0.54175 0,-0.1645 0.09,-0.311125 0.17575,-0.427125 l 0.0125,-1.695125 -0.02625,-5.328875 -1.01225,-0.0275 0.516625,1.675375 -0.67075,0.0125 -0.165125,-0.2435 -0.49275,0.452375 c 0,0 -0.318,-0.346625 -0.531625,-0.4375 l -0.1025,0.21975 -0.683125,0 0.508,-1.6475 -1.347625,-0.03875 c -0.139875,0.10375 -0.292125,0.208 -0.48125,0.147625 -0.13425,-0.0425 -0.244375,-0.170125 -0.293375,-0.27975 -0.0375,-0.17675 -0.025,-0.365875 0.09625,-0.50025 0.04875,-0.04875 0.14,-0.06125 0.13375,-0.146625 -0.147,-0.2435 -0.365625,0.08625 -0.555,-0.08375 -0.1465,-0.06 -0.1895,-0.158 -0.25075,-0.292 -0.04875,-0.164375 0.0125,-0.323125 0.08375,-0.451375 0.11,-0.1405 0.3045,-0.1655 0.469125,-0.1475 0.0975,0.12775 0.176625,-0.04875 0.262,-0.07375 -0.09125,-0.14 -0.232375,-0.2555 -0.2755,-0.426125 -0.025,-0.146375 0.02375,-0.26225 0.1025,-0.366125 0.09125,-0.11 0.225125,-0.17125 0.377625,-0.159375 0.1585,0 0.280875,0.139375 0.396875,0.218375 l 3.84725,-0.0125 0.01875,-4.524125 c -0.04875,-0.194875 0.115,-0.530625 -0.148,-0.645875 -0.055,-0.176625 -0.04375,-0.40225 0.1025,-0.53675 0.12125,-0.08625 0.273875,-0.15925 0.43875,-0.105 0.140375,0.04875 0.24425,0.170125 0.336,0.291875 l 0.146,-0.165125 c -0.0675,-0.15225 -0.0675,-0.335125 -0.0012,-0.493875 0.09125,-0.140375 0.231,-0.23825 0.395625,-0.23875 0.183,0.02375 0.31725,0.115 0.421375,0.267125 z"
       id="path610"
       style="fill:#706d6e;fill-opacity:1;fill-rule:evenodd;stroke:#706d6e;stroke-width:0.076875;stroke-linecap:butt;stroke-linejoin:miter;stroke-miterlimit:3.86369991;stroke-opacity:1;stroke-dasharray:none"
       inkscape:connector-curvature="0" />
    <path
       d="m 67.958,23.37864 -0.468375,0.421875 -0.44,-0.389 0.435125,-1.45225 0.47325,1.419375 z"
       id="path612"
       style="fill:#706d6e;fill-opacity:1;fill-rule:evenodd;stroke:#706d6e;stroke-width:0.076875;stroke-linecap:butt;stroke-linejoin:miter;stroke-miterlimit:3.86369991;stroke-opacity:1;stroke-dasharray:none"
       inkscape:connector-curvature="0" />
    <path
       d="m 73.47675,23.73014 c -0.03625,0.07875 -0.0975,0.140375 -0.17625,0.177125 -0.11625,3.75e-4 -0.238,-0.0475 -0.281,-0.163875 -0.02,-0.61575 0,-1.768125 0,-1.768125 0,0 0.292625,-0.0125 0.439,-0.01875 l 0.0225,1.77425 z"
       id="path614"
       style="fill:#706d6e;fill-opacity:1;fill-rule:evenodd;stroke:#706d6e;stroke-width:0.076875;stroke-linecap:butt;stroke-linejoin:miter;stroke-miterlimit:3.86369991;stroke-opacity:1;stroke-dasharray:none"
       inkscape:connector-curvature="0" />
    <path
       d="m 74.35025,21.971765 0.0175,1.7865 c -0.02375,0.07875 -0.11,0.134375 -0.18875,0.159 -0.134,0.01875 -0.219625,-0.085 -0.262625,-0.18825 l 0,-1.743875 0.439,-0.01375 z"
       id="path616"
       style="fill:#706d6e;fill-opacity:1;fill-rule:evenodd;stroke:#706d6e;stroke-width:0.076875;stroke-linecap:butt;stroke-linejoin:miter;stroke-miterlimit:3.86369991;stroke-opacity:1;stroke-dasharray:none"
       inkscape:connector-curvature="0" />
    <path
       d="m 0.012125,97.90014 139.085745,0"
       id="path618"
       style="fill:none;stroke:#181c52;stroke-width:0.41337502;stroke-linecap:butt;stroke-linejoin:miter;stroke-miterlimit:3.86369991;stroke-opacity:1;stroke-dasharray:none"
       inkscape:connector-curvature="0" />
    <path
       d="m 0,43.55014 139.12125,0 0,31.493875 L 0,75.044015 0,43.55014 z"
       id="path620"
       style="fill:#181c52;fill-opacity:1;fill-rule:evenodd;stroke:none"
       inkscape:connector-curvature="0" />
    <path
       d="m 12.74575,63.511515 -1.274875,0 0.55125,0.78675 0.723625,0 c 0,0 0.654625,0 1.033625,-0.131125 0.447875,-0.131125 0.7235,-0.26225 1.033625,-0.5245 0.275625,-0.262375 0.482375,-0.557375 0.551375,-0.88525 0.13775,-0.5245 0.035,-1.081875 -0.172375,-1.540875 -0.17225,-0.295125 -0.379,-0.590125 -0.758,-0.819625 -0.241125,-0.09875 -0.379,-0.131125 -0.62025,-0.19675 -0.275625,-0.065 -0.447875,-0.09875 -0.7235,-0.09875 l -3.48,0 c 0,0 0.10375,0.229375 0.137875,0.360625 0.03375,0.163875 0.03375,0.393375 0.03375,0.393375 l 0,6.6225 c 0,0 0,0.2295 -0.03375,0.327875 -0.035,0.131125 -0.137875,0.327875 -0.137875,0.327875 l 1.79175,0 c 0,0 -0.137875,-0.19675 -0.172375,-0.327875 -0.035,-0.09875 -0.035,-0.327875 -0.035,-0.327875 l 0,-6.6225 c 0.482375,0.065 1.068125,-0.0325 1.584875,0 0.344625,0.0325 0.654625,0.131125 0.930375,0.42625 0.17225,0.196625 0.241125,0.393375 0.31,0.622875 0.035,0.327875 0.035,0.590125 -0.13775,0.918 -0.10375,0.2295 -0.24125,0.393375 -0.448,0.49175 -0.20675,0.131125 -0.447875,0.163875 -0.689,0.19675 z"
       id="path622"
       style="fill:#ffffff;fill-opacity:1;fill-rule:evenodd;stroke:none"
       inkscape:connector-curvature="0" />
    <path
       d="m 18.745875,64.815015 -0.872,0 1.769,2.3945 c 0.373625,0.640125 1.046375,1.019375 1.81875,0.924625 -0.747375,-0.900875 -1.24575,-2.062625 -2.317125,-2.7265 0.249125,-0.02375 0.498375,-0.07125 0.697625,-0.165875 l 0.025,-0.02375 c 0.174375,-0.07125 0.34875,-0.165875 0.523125,-0.355625 0.274125,-0.308125 0.37375,-0.592625 0.39875,-0.972 0.025,-0.165875 0,-0.308125 -0.05,-0.497875 -0.05,-0.165875 -0.125,-0.2845 -0.199375,-0.403 -0.22425,-0.2845 -0.52325,-0.497875 -0.921875,-0.59275 -0.274,-0.07125 -0.697625,-0.07125 -0.697625,-0.07125 l -2.367,0 c 0.025,0.0475 0.1,0.165875 0.125,0.26075 0.05,0.11875 0,0.237 0.025,0.2845 l 0,4.812625 c 0,0 0,0.14225 -0.025,0.237125 -0.025,0.095 -0.125,0.213375 -0.125,0.213375 l 1.295625,0 c 0,0 -0.1,-0.11875 -0.1495,-0.213375 -0.025,-0.095 -0.025,-0.213375 -0.025,-0.213375 l 0,-4.836375 1.245875,0 c 0.199375,0.02375 0.37375,0.07125 0.548125,0.237 0.125,0.11875 0.1745,0.237125 0.22425,0.379375 0.1,0.237125 0.125,0.521625 -0.025,0.806125 -0.1,0.189625 -0.1495,0.308125 -0.348875,0.403 -0.19925,0.07125 -0.398625,0.11875 -0.573,0.11875 z"
       id="path624"
       style="fill:#ffffff;fill-opacity:1;fill-rule:evenodd;stroke:none"
       inkscape:connector-curvature="0" />
    <path
       d="m 23.572625,65.40764 0,-0.592625 0,-2.11 c 0.025,-0.07125 0.025,-0.11875 0.05,-0.189625 0.05,-0.095 0.1,-0.11875 0.125,-0.189625 l -1.3455,0 c 0,0 0.075,0.11875 0.1,0.189625 0.025,0.07125 0.05,0.189625 0.05,0.189625 l 0,4.789 c 0,0 0,0.11875 0,0.213375 0,0.07125 0,0.14225 -0.025,0.213375 -0.025,0.07125 -0.075,0.14225 -0.125,0.213375 l 1.3455,0 -0.125,-0.213375 c 0,0 -0.025,-0.11875 -0.05,-0.213375 0,-0.07125 0,-0.213375 0,-0.213375 l 0,-2.086375 z"
       id="path626"
       style="fill:#ffffff;fill-opacity:1;fill-rule:evenodd;stroke:none"
       inkscape:connector-curvature="0" />
    <path
       d="m 29.5665,62.847265 0,3.698375 -4.709,-4.385875 0,4.623 c 0,0.474125 0,0.94825 -0.199375,1.351375 l 0.946875,0 c -0.025,-0.189625 -0.125,-0.30825 -0.1495,-0.5215 -0.025,-0.11875 0,-0.332 0,-0.332 l 0,-3.295375 0.025,0 4.65925,4.31475 0,-5.45275 c 0,0 0.025,-0.189625 0.075,-0.30825 0.025,-0.095 0.125,-0.21325 0.125,-0.21325 l -0.946875,0 c 0,0 0.1,0.142125 0.125,0.237 0.025,0.11875 0.05,0.2845 0.05,0.2845 z"
       id="path628"
       style="fill:#ffffff;fill-opacity:1;fill-rule:evenodd;stroke:none"
       inkscape:connector-curvature="0" />
    <path
       d="m 36.393125,63.866765 0,-1.2565 c -0.82225,-0.47425 -2.117875,-0.569 -3.089625,-0.260875 -0.1,0.0475 -0.174375,0.07125 -0.299,0.11875 -0.1,0.07125 -0.174375,0.095 -0.274,0.166 -0.897,0.521625 -1.42025,1.39875 -1.495,2.370875 0,0.165875 -0.025,0.284375 0,0.450375 0.025,0.166 0.05,0.2845 0.075,0.42675 0.1495,0.592625 0.498375,1.138 0.97175,1.56475 0.249125,0.237 0.498375,0.403 0.872,0.54525 0.373875,0.165875 0.647875,0.213375 0.996625,0.237 0.797375,0.07125 1.6445,-0.07125 2.2425,-0.474125 l 0,-0.806 c -0.299,0.308125 -0.622875,0.5215 -0.996625,0.64 -0.22425,0.07125 -0.473375,0.11875 -0.772375,0.095 -0.299,0 -0.498375,-0.02375 -0.722625,-0.14225 -0.4485,-0.165875 -0.822125,-0.5215 -1.09625,-0.900875 -0.1,-0.11875 -0.1495,-0.213375 -0.22425,-0.355625 -0.075,-0.14225 -0.125,-0.26075 -0.174375,-0.403 -0.199375,-0.640125 -0.199375,-1.375 0.075,-1.96775 0.05,-0.11875 0.1,-0.213375 0.19925,-0.355625 0.1,-0.14225 0.199375,-0.237125 0.323875,-0.331875 0.299,-0.237125 0.647875,-0.379375 1.0465,-0.4505 0.1,-0.02375 0.174375,-0.02375 0.274125,-0.0475 0.1,0 0.174375,0.02375 0.274,0.02375 0.722625,0.095 1.395375,0.497875 1.794,1.114375 z"
       id="path630"
       style="fill:#ffffff;fill-opacity:1;fill-rule:evenodd;stroke:none"
       inkscape:connector-curvature="0" />
    <path
       d="m 38.426625,65.40764 0,-0.592625 0,-2.11 c 0.025,-0.07125 0.025,-0.11875 0.05,-0.189625 0.05,-0.095 0.1,-0.11875 0.125,-0.189625 l -1.345375,0 c 0,0 0.075,0.11875 0.1,0.189625 0.025,0.07125 0.05,0.189625 0.05,0.189625 l 0,4.789 c 0,0 0,0.11875 0,0.213375 0,0.07125 0,0.14225 -0.025,0.213375 -0.025,0.07125 -0.075,0.14225 -0.125,0.213375 l 1.345375,0 -0.125,-0.213375 c 0,0 -0.025,-0.11875 -0.05,-0.213375 0,-0.07125 0,-0.213375 0,-0.213375 l 0,-2.086375 z"
       id="path632"
       style="fill:#ffffff;fill-opacity:1;fill-rule:evenodd;stroke:none"
       inkscape:connector-curvature="0" />
    <path
       d="m 41.829375,64.791265 -0.921875,0 0.398625,0.569 0.52325,0 c 0,0 0.473375,0 0.7475,-0.095 0.323875,-0.095 0.523125,-0.189625 0.747375,-0.37925 0.199375,-0.189625 0.348875,-0.403 0.398625,-0.640125 0.1,-0.37925 0.025,-0.782375 -0.125,-1.11425 -0.125,-0.213375 -0.274125,-0.42675 -0.548125,-0.59275 -0.1745,-0.07125 -0.274125,-0.095 -0.4485,-0.14225 -0.199375,-0.0475 -0.323875,-0.07125 -0.52325,-0.07125 l -2.5165,0 c 0,0 0.075,0.165875 0.1,0.26075 0.025,0.11875 0.025,0.2845 0.025,0.2845 l 0,4.789 c 0,0 0,0.165875 -0.025,0.237 -0.025,0.095 -0.1,0.237125 -0.1,0.237125 l 1.295625,0 c 0,0 -0.1,-0.14225 -0.125,-0.237125 -0.025,-0.07125 -0.025,-0.237 -0.025,-0.237 l 0,-4.789 c 0.348875,0.0475 0.772375,-0.02375 1.146125,0 0.249125,0.02375 0.473375,0.095 0.67275,0.308125 0.125,0.14225 0.174375,0.2845 0.22425,0.4505 0.025,0.237125 0.025,0.42675 -0.1,0.663875 -0.075,0.165875 -0.174375,0.2845 -0.323875,0.3555 -0.1495,0.095 -0.323875,0.11875 -0.49825,0.14225 z"
       id="path634"
       style="fill:#ffffff;fill-opacity:1;fill-rule:evenodd;stroke:none"
       inkscape:connector-curvature="0" />
    <path
       d="m 48.544375,66.119015 0.573,1.11425 c 0.05,0.11875 0.075,0.237 0.1,0.3555 0.025,0.2135 0.025,0.35575 0,0.545375 l 1.54475,0 -0.4485,-0.545375 -2.59125,-5.28675 -1.021625,0 0.274125,0.592625 -1.818875,4.40975 c 0,0 -0.075,0.14225 -0.125,0.237 -0.05,0.07125 -0.075,0.11875 -0.125,0.189625 -0.125,0.166 -0.323875,0.403125 -0.323875,0.403125 l 1.071375,0 c 0,-0.095 0,-0.189625 0,-0.260875 0,-0.14225 0,-0.237 0.05,-0.3555 0.025,-0.11875 0.1,-0.260875 0.1,-0.260875 l 1.569625,-3.556125 c 0.274125,0.54525 0.872125,1.872875 0.872125,1.872875 l -1.3455,0 0.299,0.545375 1.3455,0 z"
       id="path636"
       style="fill:#ffffff;fill-opacity:1;fill-rule:evenodd;stroke:none"
       inkscape:connector-curvature="0" />
    <path
       d="m 51.74,62.49164 c 0.05,0.095 0.075,0.26075 0.075,0.26075 l 0,4.552 c 0,0 0.025,0.189625 0,0.30825 -0.025,0.21325 -0.174375,0.5215 -0.174375,0.5215 l 3.139375,0 c 0.872125,-0.07125 1.6445,-0.4505 2.2175,-1.138 0.697625,-0.806125 0.82225,-2.204875 0.274125,-3.10575 -0.473375,-0.877125 -1.42025,-1.469875 -2.391875,-1.588375 l -3.264,0 c 0,0 0.075,0.11875 0.125,0.189625 z m 2.865375,0.42675 c 0.473375,0.0475 0.921875,0.166 1.24575,0.521625 0.67275,0.6875 0.847125,1.730625 0.573125,2.65525 -0.1745,0.592625 -0.697625,1.209125 -1.370375,1.375 -0.1495,0.02375 -0.324,0.02375 -0.473375,0.0475 l -1.744125,0 0,-0.0475 0,-4.551875 1.769,0 z"
       id="path638"
       style="fill:#ffffff;fill-opacity:1;fill-rule:evenodd;stroke:none"
       inkscape:connector-curvature="0" />
    <path
       d="m 59.660625,62.79989 c -0.199375,0.14225 -0.348875,0.2845 -0.473375,0.42675 -0.37375,0.403 -0.598,0.900875 -0.69775,1.422375 -0.05,0.260875 -0.075,0.498 -0.05,0.829875 0.025,0.355625 0.1,0.616375 0.22425,0.900875 0.22425,0.474125 0.548125,0.900875 0.94675,1.232875 0.22425,0.189625 0.4485,0.308125 0.797375,0.450375 0.34875,0.14225 0.622875,0.189625 0.971625,0.237 0.423625,0.02375 0.872125,0 1.27075,-0.07125 0.34875,-0.095 0.597875,-0.165875 0.94675,-0.37925 0.348875,-0.213375 0.598,-0.42675 0.82225,-0.6875 0.299,-0.379375 0.52325,-0.806125 0.622875,-1.28025 0.1,-0.379375 0.125,-0.734875 0.05,-1.185375 -0.075,-0.379375 -0.174375,-0.640125 -0.348875,-0.948375 -0.22425,-0.403 -0.52325,-0.734875 -0.897,-1.019375 -0.274,-0.213375 -0.523125,-0.332 -0.896875,-0.4505 -0.37375,-0.11875 -0.67275,-0.14225 -1.021625,-0.165875 -0.598,-0.02375 -1.220875,0.095 -1.744125,0.3555 -0.19925,0.095 -0.34875,0.18975 -0.523125,0.332 z m 0.872,0.213375 c 0.348875,-0.213375 0.67275,-0.2845 1.0465,-0.30825 0.299,0 0.573,0 0.897,0.11875 0.398625,0.14225 0.64775,0.379375 0.896875,0.663875 0.199375,0.237125 0.37375,0.521625 0.498375,0.82975 0.1,0.260875 0.174375,0.474125 0.19925,0.806125 0.025,0.284375 0,0.474125 -0.05,0.71125 -0.025,0.237 -0.075,0.474125 -0.1745,0.6875 -0.125,0.26075 -0.274,0.497875 -0.548125,0.71125 -0.37375,0.308125 -0.7225,0.42675 -1.146125,0.474125 -0.323875,0.0475 -0.598,0.0475 -0.94675,-0.07125 -0.323875,-0.095 -0.52325,-0.237125 -0.722625,-0.403 -0.299,-0.260875 -0.52325,-0.569 -0.697625,-0.900875 -0.125,-0.30825 -0.249125,-0.59275 -0.274,-0.972125 -0.05,-0.403 0,-0.6875 0.075,-1.019375 0.05,-0.237125 0.149375,-0.474125 0.299,-0.687625 0.149375,-0.237 0.323875,-0.450375 0.64775,-0.64 z"
       id="path640"
       style="fill:#ffffff;fill-opacity:1;fill-rule:evenodd;stroke:none"
       inkscape:connector-curvature="0" />
    <path
       d="m 70.360125,62.49164 c 0.05,0.095 0.075,0.26075 0.075,0.26075 l 0,4.552 c 0,0 0.025,0.189625 0,0.30825 -0.025,0.21325 -0.174375,0.5215 -0.174375,0.5215 l 3.139375,0 c 0.872125,-0.07125 1.6445,-0.4505 2.2175,-1.138 0.697625,-0.806125 0.82225,-2.204875 0.274125,-3.10575 -0.473375,-0.877125 -1.42025,-1.469875 -2.391875,-1.588375 l -3.264,0 c 0,0 0.075,0.11875 0.125,0.189625 z m 2.865375,0.42675 c 0.473375,0.0475 0.921875,0.166 1.24575,0.521625 0.67275,0.6875 0.847125,1.730625 0.573125,2.65525 -0.1745,0.592625 -0.697625,1.209125 -1.370375,1.375 -0.1495,0.02375 -0.324,0.02375 -0.4735,0.0475 l -1.744,0 0,-0.0475 0,-4.551875 1.769,0 z"
       id="path642"
       style="fill:#ffffff;fill-opacity:1;fill-rule:evenodd;stroke:none"
       inkscape:connector-curvature="0" />
    <path
       d="m 78.25575,62.871015 1.39525,0 c 0.37375,0 0.722625,0.0475 0.946875,0.14225 l 0,-0.6875 -3.513125,0 c 0.025,0.07125 0.075,0.142125 0.125,0.237 0.025,0.11875 0.025,0.213375 0.05,0.30825 l 0,4.670375 c -0.025,0.095 -0.025,0.189625 -0.05,0.30825 -0.05,0.11875 -0.1,0.189625 -0.125,0.2845 l 3.513125,0 0,-0.782375 c -0.299,0.11875 -0.598,0.166 -0.946875,0.189625 l -1.39525,0 0,-2.157375 1.39525,0 c 0,0 0.1745,0 0.274125,0 0.348875,0.0475 0.423625,0.11875 0.548125,0.165875 l 0,-0.758625 -2.2175,0 0,-1.92025 z"
       id="path644"
       style="fill:#ffffff;fill-opacity:1;fill-rule:evenodd;stroke:none"
       inkscape:connector-curvature="0" />
    <path
       d="m 91.22,65.34739 0.7925,1.540875 c 0.06875,0.164 0.10375,0.327875 0.137875,0.491875 0.03375,0.295 0.03375,0.49175 0,0.754 l 2.136125,0 -0.620125,-0.754 -3.583375,-7.311125 -1.412625,0 0.379,0.819625 -2.51525,6.098 c 0,0 -0.10375,0.19675 -0.172375,0.327875 -0.06875,0.09875 -0.10375,0.163875 -0.17225,0.26225 -0.17225,0.2295 -0.447875,0.557375 -0.447875,0.557375 l 1.481625,0 c 0,-0.131125 0,-0.26225 0,-0.360625 0,-0.19675 0,-0.327875 0.06875,-0.491875 0.03375,-0.163875 0.13775,-0.360625 0.13775,-0.360625 L 89.6005,62.00339 c 0.379,0.754 1.206,2.59 1.206,2.59 l -1.860625,0 0.413375,0.754 1.860625,0 z"
       id="path646"
       style="fill:#ffffff;fill-opacity:1;fill-rule:evenodd;stroke:none"
       inkscape:connector-curvature="0" />
    <path
       d="m 97.23025,62.871015 1.09625,0 c 0.075,0 0.1495,0.02375 0.249125,0.0475 0.149625,0.0475 0.274125,0.11875 0.39875,0.166 l 0,-0.782375 -1.769,0 c -0.348875,0 -0.647875,0.02375 -0.97175,0.213375 -0.22425,0.14225 -0.348875,0.26075 -0.4735,0.450375 -0.075,0.11875 -0.125,0.213375 -0.174375,0.379375 -0.05,0.213375 -0.05,0.403 -0.025,0.59275 0.025,0.14225 0.1,0.308125 0.19925,0.497875 0.125,0.189625 0.224375,0.2845 0.39875,0.426625 0.174375,0.142375 0.323875,0.18975 0.49825,0.260875 0.54825,0.284375 1.12125,0.569 1.6445,0.924625 0.125,0.11875 0.19925,0.2845 0.22425,0.450375 0.05,0.166 0.05,0.331875 -0.05,0.521625 -0.05,0.11875 -0.1,0.189625 -0.174375,0.26075 -0.1495,0.11875 -0.274125,0.189625 -0.498375,0.26075 -0.19925,0.07125 -0.34875,0.02375 -0.52325,0.0475 -0.274,0 -0.523125,0 -0.79725,0 -0.174375,-0.02375 -0.323875,0 -0.52325,-0.0475 -0.174375,-0.0475 -0.274,-0.14225 -0.398625,-0.189625 l 0,0.782375 c 0.299,0.02375 0.622875,0 0.897,0 0.299,0 0.548125,0.02375 0.822125,0 0.224375,0 0.448625,0 0.647875,0 0.274125,-0.02375 0.473375,-0.095 0.7225,-0.237125 0.199375,-0.11875 0.274125,-0.189625 0.423625,-0.355625 0.199375,-0.237 0.274,-0.403 0.323875,-0.71125 0.05,-0.237 0.05,-0.37925 0,-0.640125 -0.05,-0.189625 -0.075,-0.308125 -0.174375,-0.474125 -0.125,-0.213375 -0.22425,-0.30825 -0.423625,-0.4505 -0.174375,-0.165875 -0.323875,-0.237 -0.49825,-0.331875 -0.348875,-0.189625 -0.7475,-0.331875 -1.09625,-0.5215 -0.125,-0.07125 -0.22425,-0.11875 -0.348875,-0.213375 -0.1,-0.07125 -0.199375,-0.095 -0.274125,-0.213375 -0.1,-0.11875 -0.125,-0.237125 -0.1495,-0.403 0,-0.07125 0,-0.166 0.025,-0.260875 0.05,-0.11875 0.1,-0.165875 0.174375,-0.237 0.1,-0.095 0.199375,-0.11875 0.323875,-0.166 0.1,-0.02375 0.1745,-0.0475 0.274125,-0.0475 z"
       id="path648"
       style="fill:#ffffff;fill-opacity:1;fill-rule:evenodd;stroke:none"
       inkscape:connector-curvature="0" />
    <path
       d="m 103.215,62.89464 1.14613,0 c 0.1495,0 0.32387,0 0.49837,0.0475 0.1,0.02375 0.19925,0.07125 0.29887,0.11875 l 0,-0.734875 -4.90837,0 0,0.734875 c 0.1,-0.0475 0.22425,-0.095 0.37375,-0.11875 0.1745,-0.0475 0.32388,-0.02375 0.49825,-0.0475 0.34887,0 0.72263,0.02375 1.09637,0 l 0,4.552 c 0,0 -0.025,0.213375 -0.05,0.355625 -0.05,0.11875 -0.1495,0.331875 -0.1495,0.331875 l 1.39537,0 c -0.075,-0.11875 -0.1,-0.213375 -0.1495,-0.355625 -0.025,-0.11875 -0.025,-0.213375 -0.05,-0.331875 l 0,-4.552 z"
       id="path650"
       style="fill:#ffffff;fill-opacity:1;fill-rule:evenodd;stroke:none"
       inkscape:connector-curvature="0" />
    <path
       d="m 106.19375,63.06064 0,2.916 c 0.05,0.71125 0.299,1.351375 1.02162,1.873 0.7225,0.5215 1.9185,0.640125 2.71575,0.165875 0.67275,-0.402875 1.14613,-1.043125 1.22088,-1.75425 l 0,-3.39025 c 0,0 0,-0.14225 0.025,-0.237125 0.05,-0.11875 0.17437,-0.308125 0.17437,-0.308125 l -0.97162,0 c 0,0 0.125,0.189625 0.17437,0.308125 0.025,0.095 0.025,0.237125 0.025,0.237125 l 0,3.50875 c -0.025,0.165875 -0.075,0.308125 -0.14937,0.474125 -0.125,0.213375 -0.19938,0.331875 -0.37375,0.497875 -0.1745,0.14225 -0.32388,0.213375 -0.49838,0.30825 -0.17437,0.07125 -0.34875,0.11875 -0.57312,0.11875 -0.19925,0.02375 -0.32387,0 -0.52312,-0.0475 -0.22425,-0.07125 -0.37375,-0.14225 -0.54825,-0.26075 -0.17438,-0.11875 -0.32388,-0.26075 -0.44838,-0.450375 -0.125,-0.166 -0.19937,-0.355625 -0.24912,-0.59275 -0.05,-0.189625 -0.025,-0.497875 -0.025,-0.497875 l 0,-2.868625 c 0,0 0.025,-0.26075 0.075,-0.42675 0.05,-0.11875 0.14949,-0.308125 0.14949,-0.308125 l -1.39524,0 c 0.025,0.07125 0.1,0.189625 0.125,0.331875 0.05,0.14225 0.025,0.331875 0.05,0.403 z"
       id="path652"
       style="fill:#ffffff;fill-opacity:1;fill-rule:evenodd;stroke:none"
       inkscape:connector-curvature="0" />
    <path
       d="m 114.411,64.815015 -0.87212,0 1.76912,2.3945 c 0.37375,0.640125 1.04638,1.019375 1.81888,0.924625 -0.7475,-0.900875 -1.24588,-2.062625 -2.31725,-2.7265 0.24912,-0.02375 0.49837,-0.07125 0.69762,-0.165875 l 0.025,-0.02375 c 0.17438,-0.07125 0.34875,-0.165875 0.52313,-0.355625 0.27412,-0.308125 0.37375,-0.592625 0.39875,-0.972 0.025,-0.165875 0,-0.308125 -0.05,-0.497875 -0.05,-0.165875 -0.125,-0.2845 -0.19938,-0.403 -0.22425,-0.2845 -0.52312,-0.497875 -0.92187,-0.59275 -0.274,-0.07125 -0.69763,-0.07125 -0.69763,-0.07125 l -2.367,0 c 0.025,0.0475 0.1,0.165875 0.125,0.26075 0.05,0.11875 0,0.237 0.025,0.2845 l 0,4.812625 c 0,0 0,0.14225 -0.025,0.237125 -0.025,0.095 -0.125,0.213375 -0.125,0.213375 l 1.29563,0 c 0,0 -0.1,-0.11875 -0.1495,-0.213375 -0.025,-0.095 -0.025,-0.213375 -0.025,-0.213375 l 0,-4.836375 1.24575,0 c 0.19937,0.02375 0.37375,0.07125 0.54812,0.237 0.125,0.11875 0.1745,0.237125 0.22425,0.379375 0.1,0.237125 0.125,0.521625 -0.025,0.806125 -0.1,0.189625 -0.1495,0.308125 -0.34887,0.403 -0.19925,0.07125 -0.39863,0.11875 -0.573,0.11875 z"
       id="path654"
       style="fill:#ffffff;fill-opacity:1;fill-rule:evenodd;stroke:none"
       inkscape:connector-curvature="0" />
    <path
       d="m 119.23775,65.40764 0,-0.592625 0,-2.11 c 0.025,-0.07125 0.025,-0.11875 0.05,-0.189625 0.05,-0.095 0.1,-0.11875 0.125,-0.189625 l -1.3455,0 c 0,0 0.075,0.11875 0.1,0.189625 0.025,0.07125 0.05,0.189625 0.05,0.189625 l 0,4.789 c 0,0 0,0.11875 0,0.213375 0,0.07125 0,0.14225 -0.025,0.213375 -0.025,0.07125 -0.075,0.14225 -0.125,0.213375 l 1.3455,0 -0.125,-0.213375 c 0,0 -0.025,-0.11875 -0.05,-0.213375 0,-0.07125 0,-0.213375 0,-0.213375 l 0,-2.086375 z"
       id="path656"
       style="fill:#ffffff;fill-opacity:1;fill-rule:evenodd;stroke:none"
       inkscape:connector-curvature="0" />
    <path
       d="m 124.23512,66.119015 0.573,1.11425 c 0.05,0.11875 0.075,0.237 0.1,0.3555 0.025,0.2135 0.025,0.35575 0,0.545375 l 1.54488,0 -0.4485,-0.545375 -2.59125,-5.28675 -1.02162,0 0.27412,0.592625 -1.81888,4.40975 c 0,0 -0.075,0.14225 -0.125,0.237 -0.05,0.07125 -0.075,0.11875 -0.125,0.189625 -0.125,0.166 -0.32387,0.403125 -0.32387,0.403125 l 1.07137,0 c 0,-0.095 0,-0.189625 0,-0.260875 0,-0.14225 0,-0.237 0.05,-0.3555 0.025,-0.11875 0.1,-0.260875 0.1,-0.260875 l 1.56963,-3.556125 c 0.27412,0.54525 0.87212,1.872875 0.87212,1.872875 l -1.3455,0 0.299,0.545375 1.3455,0 z"
       id="path658"
       style="fill:#ffffff;fill-opacity:1;fill-rule:evenodd;stroke:none"
       inkscape:connector-curvature="0" />
    <path
       d="m 129.05038,62.871015 1.09625,0 c 0.075,0 0.1495,0.02375 0.24912,0.0475 0.1495,0.0475 0.27412,0.11875 0.39862,0.166 l 0,-0.782375 -1.769,0 c -0.34887,0 -0.64774,0.02375 -0.97175,0.213375 -0.22424,0.14225 -0.34874,0.26075 -0.47337,0.450375 -0.075,0.11875 -0.125,0.213375 -0.17437,0.379375 -0.05,0.213375 -0.05,0.403 -0.025,0.59275 0.025,0.14225 0.1,0.308125 0.19925,0.497875 0.125,0.189625 0.22425,0.2845 0.39862,0.426625 0.1745,0.142375 0.324,0.18975 0.49838,0.260875 0.54812,0.284375 1.12125,0.569 1.64437,0.924625 0.125,0.11875 0.19937,0.2845 0.22425,0.450375 0.05,0.166 0.05,0.331875 -0.05,0.521625 -0.05,0.11875 -0.1,0.189625 -0.1745,0.26075 -0.14938,0.11875 -0.274,0.189625 -0.49825,0.26075 -0.19937,0.07125 -0.34875,0.02375 -0.52325,0.0475 -0.274,0 -0.52325,0 -0.79725,0 -0.1745,-0.02375 -0.324,0 -0.52325,-0.0475 -0.17438,-0.0475 -0.27413,-0.14225 -0.39863,-0.189625 l 0,0.782375 c 0.299,0.02375 0.62288,0 0.89688,0 0.299,0 0.54825,0.02375 0.82225,0 0.22425,0 0.4485,0 0.64787,0 0.274,-0.02375 0.47338,-0.095 0.7225,-0.237125 0.19938,-0.11875 0.27413,-0.189625 0.4235,-0.355625 0.19938,-0.237 0.27413,-0.403 0.324,-0.71125 0.05,-0.237 0.05,-0.37925 0,-0.640125 -0.05,-0.189625 -0.075,-0.308125 -0.17437,-0.474125 -0.125,-0.213375 -0.22425,-0.30825 -0.42363,-0.4505 -0.17437,-0.165875 -0.32387,-0.237 -0.49837,-0.331875 -0.34875,-0.189625 -0.74738,-0.331875 -1.09625,-0.5215 -0.125,-0.07125 -0.22425,-0.11875 -0.34888,-0.213375 -0.1,-0.07125 -0.19925,-0.095 -0.274,-0.213375 -0.1,-0.11875 -0.125,-0.237125 -0.1495,-0.403 0,-0.07125 0,-0.166 0.025,-0.260875 0.05,-0.11875 0.1,-0.165875 0.1745,-0.237 0.1,-0.095 0.19925,-0.11875 0.32388,-0.166 0.1,-0.02375 0.17437,-0.0475 0.27412,-0.0475 z"
       id="path660"
       style="fill:#ffffff;fill-opacity:1;fill-rule:evenodd;stroke:none"
       inkscape:connector-curvature="0" />
    <path
       d="m 44.519625,54.154765 0,2.1965 -0.10375,0.09875 c -0.379125,0.09875 -0.7925,0.164 -1.206,0.19675 -0.24125,0 -0.4135,0.06625 -0.689125,0.06625 -0.3445,0 -0.58575,-0.0325 -0.895875,-0.13125 -0.96475,-0.295 -1.757125,-1.081875 -2.136125,-1.93425 -0.551375,-1.016375 -0.516875,-2.5245 0.10375,-3.508 0.62025,-0.95075 1.585,-1.311375 2.687625,-1.311375 1.068125,0.0325 1.998375,0.623 2.549625,1.540875 l 0,-1.672 c -1.240375,-0.819625 -3.27325,-0.852375 -4.617,-0.2295 -1.1025,0.459 -1.9295,1.4425 -2.274,2.491625 -0.10375,0.19675 -0.137875,0.360625 -0.17225,0.622875 -0.10375,0.623 -0.06875,1.11475 0.06875,1.6065 0.206625,0.95075 0.792375,1.737625 1.619375,2.426125 1.653875,1.377 4.513625,0.852375 6.37425,0.2295 l 0,-3.573625 -1.585,0 c 0.172375,0.262375 0.24125,0.557375 0.275625,0.88525 z"
       id="path662"
       style="fill:#ffffff;fill-opacity:1;fill-rule:evenodd;stroke:none"
       inkscape:connector-curvature="0" />
    <path
       d="m 48.2185,51.936015 c -0.199375,0.14225 -0.34875,0.2845 -0.473375,0.426625 -0.373625,0.403 -0.597875,0.90075 -0.6975,1.42225 -0.05,0.26075 -0.075,0.49775 -0.05,0.829625 0.025,0.3555 0.1,0.61625 0.224125,0.90075 0.22425,0.474 0.548125,0.90075 0.946625,1.232625 0.22425,0.189625 0.448375,0.308125 0.79725,0.450375 0.34875,0.142125 0.62275,0.189625 0.9715,0.237 0.4235,0.02375 0.871875,0 1.2705,-0.07125 0.34875,-0.095 0.597875,-0.165875 0.9465,-0.37925 C 52.503,56.77139 52.752,56.55814 52.97625,56.29739 c 0.299,-0.37925 0.523125,-0.806 0.62275,-1.28 0.1,-0.37925 0.125,-0.734875 0.05,-1.18525 -0.075,-0.37925 -0.174375,-0.64 -0.34875,-0.948125 -0.22425,-0.403 -0.523125,-0.73475 -0.896875,-1.01925 -0.274,-0.21325 -0.523125,-0.33175 -0.89675,-0.450375 C 51.133,51.29564 50.834,51.272265 50.48525,51.248515 c -0.597875,-0.02375 -1.220625,0.095 -1.74375,0.355625 -0.19925,0.095 -0.34875,0.1895 -0.523125,0.33175 z m 0.871875,0.213375 c 0.34875,-0.213375 0.672625,-0.2845 1.04625,-0.308125 0.299,0 0.573,0 0.896875,0.11875 0.3985,0.14225 0.647625,0.37925 0.89675,0.663625 0.19925,0.237125 0.373625,0.5215 0.49825,0.829625 0.1,0.260875 0.174375,0.474125 0.19925,0.805875 0.025,0.2845 0,0.474125 -0.05,0.711125 -0.025,0.237125 -0.075,0.474125 -0.1745,0.6875 -0.125,0.26075 -0.274,0.49775 -0.548,0.711 -0.373625,0.30825 -0.722375,0.42675 -1.145875,0.474125 -0.323875,0.0475 -0.597875,0.0475 -0.946625,-0.07125 -0.323875,-0.095 -0.523125,-0.237 -0.7225,-0.403 -0.298875,-0.260625 -0.523125,-0.568875 -0.6975,-0.900625 -0.125,-0.308125 -0.249125,-0.592625 -0.274,-0.971875 -0.05,-0.403 0,-0.687375 0.075,-1.01925 0.05,-0.237 0.1495,-0.474125 0.298875,-0.687375 0.1495,-0.237 0.323875,-0.450375 0.64775,-0.64 z"
       id="path664"
       style="fill:#ffffff;fill-opacity:1;fill-rule:evenodd;stroke:none"
       inkscape:connector-curvature="0" />
    <path
       d="m 57.414875,51.462015 -2.889625,0 c 0.125,0.189625 0.125,0.426625 0.19925,0.663625 l 0,4.669625 -0.1495,0.474 2.790125,0 c 0.373625,-0.02375 0.722375,-0.02375 1.021375,-0.21325 0.523125,-0.308125 0.822,-0.7585 0.822,-1.374875 0,-0.687375 -0.373625,-1.208875 -0.946625,-1.49325 l 0.19925,-0.213375 c 0.34875,-0.426625 0.4485,-1.042875 0.1495,-1.682875 C 58.3615,51.793765 57.938,51.50939 57.414875,51.462015 z m -1.071125,3.12875 c 0.19925,0 0.4235,0 0.647625,0 0.4235,0 0.79725,0.095 1.021375,0.4505 0.125,0.1895 0.125,0.3555 0.125,0.545125 0.025,0.284375 -0.025,0.568875 -0.199375,0.782125 -0.249,0.26075 -0.548,0.30825 -0.921625,0.331875 l -1.295375,0 0,-4.622125 c 0.274,0 0.572875,0 0.89675,0 0.398625,0 0.77225,0.07125 0.9965,0.426625 0.19925,0.331875 0.149375,0.734875 -0.05,1.090375 -0.19925,0.331875 -0.548,0.37925 -0.92175,0.403 l -0.77225,0 0.473375,0.5925 z"
       id="path666"
       style="fill:#ffffff;fill-opacity:1;fill-rule:evenodd;stroke:none"
       inkscape:connector-curvature="0" />
    <path
       d="m 61.1895,54.54339 0,-0.5925 0,-2.109625 c 0.025,-0.07125 0.025,-0.11875 0.05,-0.189625 0.05,-0.095 0.1,-0.11875 0.125,-0.189625 l -1.34525,0 c 0,0 0.075,0.11875 0.1,0.189625 0.025,0.07125 0.05,0.189625 0.05,0.189625 l 0,4.788 c 0,0 0,0.11875 0,0.213375 0,0.07125 0,0.14225 -0.025,0.213375 -0.025,0.07125 -0.075,0.14225 -0.125,0.21325 l 1.34525,0 -0.125,-0.21325 c 0,0 -0.025,-0.11875 -0.05,-0.213375 0,-0.07125 0,-0.213375 0,-0.213375 l 0,-2.085875 z"
       id="path668"
       style="fill:#ffffff;fill-opacity:1;fill-rule:evenodd;stroke:none"
       inkscape:connector-curvature="0" />
    <path
       d="m 63.42075,52.00714 1.395125,0 c 0.373625,0 0.722375,0.0475 0.9465,0.14225 l 0,-0.687375 -3.5125,0 c 0.025,0.07125 0.075,0.14225 0.125,0.237 0.025,0.11875 0.025,0.21325 0.05,0.308125 l 0,4.669625 c -0.025,0.095 -0.025,0.189625 -0.05,0.308125 -0.05,0.11875 -0.1,0.189625 -0.125,0.284375 l 3.5125,0 0,-0.782125 c -0.298875,0.11875 -0.597875,0.165875 -0.9465,0.189625 l -1.395125,0 0,-2.157 1.395125,0 c 0,0 0.174375,0 0.273875,0 0.348875,0.0475 0.4235,0.11875 0.548125,0.165875 l 0,-0.7585 -2.217125,0 0,-1.92 z"
       id="path670"
       style="fill:#ffffff;fill-opacity:1;fill-rule:evenodd;stroke:none"
       inkscape:connector-curvature="0" />
    <path
       d="m 68.80625,53.95089 -0.872,0 1.76875,2.394 c 0.373625,0.64 1.04625,1.01925 1.8185,0.924375 -0.747375,-0.90075 -1.245625,-2.062125 -2.31675,-2.725875 0.249125,-0.02375 0.49825,-0.07125 0.6975,-0.165875 l 0.025,-0.02375 c 0.1745,-0.07125 0.34875,-0.165875 0.523125,-0.3555 0.274125,-0.30825 0.37375,-0.592625 0.398625,-0.971875 0.025,-0.165875 0,-0.308125 -0.05,-0.49775 -0.05,-0.166 -0.125,-0.2845 -0.199375,-0.403 C 70.3755,51.841265 70.0765,51.62789 69.678,51.53314 69.403875,51.46189 68.9805,51.46189 68.9805,51.46189 l -2.366625,0 c 0.025,0.0475 0.1,0.165875 0.125,0.26075 0.05,0.11875 0,0.237 0.025,0.284375 l 0,4.811875 c 0,0 0,0.142125 -0.025,0.237 -0.025,0.095 -0.125,0.21325 -0.125,0.21325 l 1.295375,0 c 0,0 -0.1,-0.11875 -0.149375,-0.21325 -0.025,-0.095 -0.025,-0.213375 -0.025,-0.213375 l 0,-4.8355 1.245625,0 c 0.19925,0.02375 0.373625,0.07125 0.548,0.237 0.125,0.11875 0.174375,0.237 0.224125,0.37925 0.1,0.237125 0.125,0.5215 -0.025,0.806 -0.1,0.189625 -0.1495,0.308125 -0.34875,0.402875 -0.19925,0.07125 -0.3985,0.11875 -0.572875,0.11875 z"
       id="path672"
       style="fill:#ffffff;fill-opacity:1;fill-rule:evenodd;stroke:none"
       inkscape:connector-curvature="0" />
    <path
       d="m 77.393625,51.98339 0,3.69775 -4.70825,-4.385125 0,4.62225 c 0,0.474 0,0.948125 -0.19925,1.351 l 0.946625,0 c -0.025,-0.1895 -0.125,-0.308125 -0.1495,-0.521375 -0.025,-0.11875 0,-0.331875 0,-0.331875 l 0,-3.29475 0.025,0 4.658375,4.314 0,-5.451875 c 0,0 0.025,-0.189625 0.075,-0.308125 0.025,-0.095 0.125,-0.21325 0.125,-0.21325 l -0.946625,0 c 0,0 0.1,0.14225 0.125,0.237 0.025,0.11875 0.05,0.284375 0.05,0.284375 z"
       id="path674"
       style="fill:#ffffff;fill-opacity:1;fill-rule:evenodd;stroke:none"
       inkscape:connector-curvature="0" />
    <path
       d="m 80.283,51.936015 c -0.199375,0.14225 -0.34875,0.2845 -0.473375,0.426625 -0.373625,0.403 -0.597875,0.90075 -0.6975,1.42225 -0.05,0.26075 -0.075,0.49775 -0.05,0.829625 0.025,0.3555 0.1,0.61625 0.224125,0.90075 0.22425,0.474 0.548,0.90075 0.946625,1.232625 0.22425,0.189625 0.448375,0.308125 0.797125,0.450375 0.34875,0.142125 0.622875,0.189625 0.9715,0.237 0.4235,0.02375 0.872,0 1.2705,-0.07125 0.34875,-0.095 0.597875,-0.165875 0.94675,-0.37925 0.348625,-0.213375 0.59775,-0.426625 0.822,-0.687375 0.298875,-0.37925 0.523125,-0.806 0.62275,-1.28 0.1,-0.37925 0.125,-0.734875 0.05,-1.18525 -0.075,-0.37925 -0.174375,-0.64 -0.34875,-0.948125 -0.22425,-0.403 -0.523125,-0.73475 -0.89675,-1.01925 -0.274125,-0.21325 -0.52325,-0.33175 -0.896875,-0.450375 -0.37375,-0.11875 -0.672625,-0.142125 -1.021375,-0.165875 -0.597875,-0.02375 -1.220625,0.095 -1.74375,0.355625 -0.199375,0.095 -0.34875,0.1895 -0.523125,0.33175 z m 0.871875,0.213375 c 0.34875,-0.213375 0.672625,-0.2845 1.04625,-0.308125 0.299,0 0.573,0 0.89675,0.11875 0.398625,0.14225 0.64775,0.37925 0.896875,0.663625 0.19925,0.237125 0.373625,0.5215 0.49825,0.829625 0.1,0.260875 0.174375,0.474125 0.19925,0.805875 0.025,0.2845 0,0.474125 -0.05,0.711125 -0.025,0.237125 -0.075,0.474125 -0.17425,0.6875 -0.125,0.26075 -0.274125,0.49775 -0.548125,0.711 -0.373625,0.30825 -0.7225,0.42675 -1.145875,0.474125 -0.323875,0.0475 -0.598,0.0475 -0.946625,-0.07125 -0.323875,-0.095 -0.52325,-0.237 -0.7225,-0.403 -0.298875,-0.260625 -0.523125,-0.568875 -0.6975,-0.900625 -0.125,-0.308125 -0.249125,-0.592625 -0.274,-0.971875 -0.05,-0.403 0,-0.687375 0.075,-1.01925 0.05,-0.237 0.149375,-0.474125 0.298875,-0.687375 0.1495,-0.237 0.323875,-0.450375 0.64775,-0.64 z"
       id="path676"
       style="fill:#ffffff;fill-opacity:1;fill-rule:evenodd;stroke:none"
       inkscape:connector-curvature="0" />
    <path
       d="m 90.9805,51.62789 c 0.05,0.095 0.075,0.26075 0.075,0.26075 l 0,4.551125 c 0,0 0.025,0.1895 0,0.308125 -0.025,0.21325 -0.174375,0.521375 -0.174375,0.521375 l 3.138875,0 c 0.871875,-0.07125 1.644125,-0.45025 2.217125,-1.13775 0.6975,-0.805875 0.822,-2.204375 0.274,-3.105125 -0.473375,-0.877 -1.42,-1.469625 -2.3915,-1.588125 l -3.263375,0 c 0,0 0.075,0.11875 0.125,0.189625 z m 2.864875,0.426625 c 0.47325,0.0475 0.92175,0.166 1.2455,0.5215 0.672625,0.687375 0.847,1.730375 0.573,2.65475 -0.174375,0.592625 -0.6975,1.209 -1.370125,1.374875 -0.1495,0.02375 -0.323875,0.02375 -0.47325,0.0475 l -1.743875,0 0,-0.0475 0,-4.551125 1.76875,0 z"
       id="path678"
       style="fill:#ffffff;fill-opacity:1;fill-rule:evenodd;stroke:none"
       inkscape:connector-curvature="0" />
    <path
       d="m 98.87475,52.00714 1.395,0 c 0.37362,0 0.7225,0.0475 0.94662,0.14225 l 0,-0.687375 -3.512495,0 c 0.025,0.07125 0.075,0.14225 0.125,0.237 0.025,0.11875 0.025,0.21325 0.05,0.308125 l 0,4.669625 c -0.025,0.095 -0.025,0.189625 -0.05,0.308125 -0.05,0.11875 -0.1,0.189625 -0.125,0.284375 l 3.512495,0 0,-0.782125 c -0.29887,0.11875 -0.59787,0.165875 -0.94662,0.189625 l -1.395,0 0,-2.157 1.395,0 c 0,0 0.17437,0 0.274,0 0.34875,0.0475 0.4235,0.11875 0.54813,0.165875 l 0,-0.7585 -2.21713,0 0,-1.92 z"
       id="path680"
       style="fill:#ffffff;fill-opacity:1;fill-rule:evenodd;stroke:none"
       inkscape:connector-curvature="0" />
    <path
       d="m 103.28863,54.82789 0,-0.592625 0,-2.18075 c 0.025,-0.095 0.025,-0.189625 0.05,-0.308125 0.05,-0.11875 0.10001,-0.189625 0.125,-0.284375 l -0.64774,0 0.47337,0 -1.17087,0 c 0.025,0.095 0.075,0.165875 0.12499,0.284375 0.025,0.11875 0.025,0.213375 0.05,0.308125 l 0,4.669625 c -0.025,0.11875 -0.025,0.189625 -0.05,0.308125 -0.05,0.095 -0.1,0.166 -0.12499,0.237 l 3.5125,0 0,-0.687375 c -0.22425,0.095 -0.57301,0.11875 -0.94663,0.14225 l -1.395,0 0,-1.89625 z"
       id="path682"
       style="fill:#ffffff;fill-opacity:1;fill-rule:evenodd;stroke:none"
       inkscape:connector-curvature="0" />
    <g
       transform="matrix(1.2011327,0,0,1.2011327,-13.310071,-12.621773)"
       id="g4061">
      <path
         inkscape:connector-curvature="0"
         style="fill:#181c52;fill-opacity:1;fill-rule:evenodd;stroke:none"
         id="path684"
         d="m 26.153375,85.74114 c -0.88,0 -1.635,-0.314625 -2.265,-0.943875 -0.63,-0.62925 -0.945,-1.383375 -0.945,-2.262375 0,-0.884 0.3125,-1.640625 0.9375,-2.269875 0.625,-0.62925 1.3825,-0.943875 2.2725,-0.943875 0.4,0 0.7175,0.0225 0.9525,0.0675 0.45,0.085 0.8875,0.259 1.3125,0.523 l 0,1.43475 c -0.21,-0.2985 -0.38,-0.51975 -0.51,-0.664 -0.235,-0.263625 -0.465,-0.44525 -0.69,-0.544625 -0.365,-0.14925 -0.72,-0.223875 -1.065,-0.223875 -0.245,0 -0.49,0.05 -0.735,0.14975 -0.345,0.139875 -0.655,0.3695 -0.93,0.689125 -0.26,0.414375 -0.4325,0.788875 -0.5175,1.123375 -0.05,0.199875 -0.075,0.4595 -0.075,0.779 0,0.3395 0.0225,0.601625 0.0675,0.786375 0.08,0.324625 0.255,0.696625 0.525,1.116 0.275,0.299625 0.585,0.52175 0.93,0.666625 0.26,0.11 0.505,0.16475 0.735,0.16475 0.195,0 0.39,-0.0225 0.585,-0.0675 0.195,-0.045 0.39,-0.11 0.585,-0.195 0.215,-0.11 0.42,-0.235 0.615,-0.375 0.195,-0.14 0.355,-0.285 0.48,-0.435 l 0,0.8325 c -0.28,0.2 -0.595,0.34875 -0.945,0.44625 -0.35,0.0975 -0.79,0.14625 -1.32,0.14625 z" />
      <path
         inkscape:connector-curvature="0"
         style="fill:#181c52;fill-opacity:1;fill-rule:evenodd;stroke:none"
         id="path686"
         d="m 32.250125,79.32114 c -0.935,0 -1.7225,0.3125 -2.3625,0.9375 -0.64,0.625 -0.96,1.385 -0.96,2.28 0,0.89 0.325,1.65 0.975,2.28 0.65,0.63 1.435,0.945 2.355,0.945 0.92,0 1.705,-0.315 2.355,-0.945 0.65,-0.63 0.975,-1.39 0.975,-2.28 0,-0.895 -0.32,-1.655 -0.96,-2.28 -0.64,-0.625 -1.4325,-0.9375 -2.3775,-0.9375 l 0,0.555 c 0.665,0 1.22125,0.2575 1.66875,0.7725 0.4475,0.515 0.67125,1.145 0.67125,1.89 0,0.735 -0.2275,1.36375 -0.6825,1.88625 -0.455,0.5225 -1.005,0.78375 -1.65,0.78375 -0.645,0 -1.195,-0.26 -1.65,-0.78 -0.455,-0.52 -0.6825,-1.15 -0.6825,-1.89 0,-0.745 0.2175,-1.375 0.6525,-1.89 0.435,-0.515 0.9925,-0.7725 1.6725,-0.7725 l 0,-0.555 z" />
      <path
         inkscape:connector-curvature="0"
         style="fill:#181c52;fill-opacity:1;fill-rule:evenodd;stroke:none"
         id="path688"
         d="m 36.91725,81.34614 0,3.6825 c 0.045,0.155 0.0775,0.2725 0.0975,0.3525 0.04,0.145 0.085,0.2675 0.135,0.3675 l -0.54,0 -0.5325,0 c 0.045,-0.09 0.0875,-0.2025 0.1275,-0.3375 0.04,-0.135125 0.0775,-0.262625 0.1125,-0.38275 l 0,-5.949125 4.7625,4.644375 0,-3.69 c -0.045,-0.155 -0.0775,-0.2725 -0.0975,-0.3525 -0.04,-0.135 -0.0875,-0.2575 -0.1425,-0.3675 l 0.6,0 0.4725,0 c -0.045,0.09 -0.0875,0.2025 -0.1275,0.3375 -0.04,0.134875 -0.0775,0.262375 -0.1125,0.38225 l 0,5.953375 -4.755,-4.640625 z" />
      <path
         inkscape:connector-curvature="0"
         style="fill:#181c52;fill-opacity:1;fill-rule:evenodd;stroke:none"
         id="path690"
         d="m 42.404375,80.90364 c 0,-0.435 0.145,-0.8025 0.435,-1.1025 0.29,-0.3 0.66,-0.45 1.11,-0.45 l 2.265,0 0,0.84 c -0.16,-0.0825 -0.28,-0.13925 -0.36,-0.170125 -0.135,-0.05125 -0.2525,-0.0775 -0.3525,-0.0775 l -1.3125,0 c -0.235,0.025 -0.43375,0.1175 -0.59625,0.2775 -0.1625,0.16 -0.24375,0.3475 -0.24375,0.5625 0,0.14 0.0275,0.27125 0.0825,0.39375 0.055,0.1225 0.1475,0.22875 0.2775,0.31875 l 1.8525,1.4625 c 0.21,0.185 0.37125,0.38625 0.48375,0.60375 0.1125,0.2175 0.16875,0.44125 0.16875,0.67125 0,0.435 -0.15375,0.80125 -0.46125,1.09875 -0.3075,0.2975 -0.69125,0.44625 -1.15125,0.44625 l -2.1975,0 0,-0.84 c 0.14,0.075 0.2575,0.13 0.3525,0.165 0.14,0.055 0.26,0.0825 0.36,0.0825 l 1.3275,0 c 0.23,0 0.42375,-0.08125 0.58125,-0.24375 0.1575,-0.1625 0.23625,-0.35875 0.23625,-0.58875 0,-0.245 -0.1325,-0.49 -0.3975,-0.735 l -1.8975,-1.545 c -0.19,-0.17 -0.33125,-0.3525 -0.42375,-0.5475 -0.0925,-0.195 -0.13875,-0.4025 -0.13875,-0.6225 z" />
      <path
         inkscape:connector-curvature="0"
         style="fill:#181c52;fill-opacity:1;fill-rule:evenodd;stroke:none"
         id="path692"
         d="m 46.9405,80.00364 0,5.0475 c -0.06,0.205 -0.14,0.4275 -0.24,0.6675 l 3.69,0 0,-0.84 c -0.16,0.08 -0.28,0.135 -0.36,0.165 -0.135,0.05 -0.2525,0.075 -0.3525,0.075 l -1.785,0 0,-2.2575 1.785,0 c 0.11,0 0.23,0.035 0.36,0.105 0.08,0.045 0.16,0.09 0.24,0.135 l 0,-0.8325 -2.385,0 0,-2.385 1.785,0.0125 c 0.105,0 0.2225,0.025 0.3525,0.075 0.085,0.03 0.205,0.085 0.36,0.165 l 0,-0.84 -3.69,0 c 0.105,0.265 0.185,0.5025 0.24,0.7125 z" />
      <path
         inkscape:connector-curvature="0"
         style="fill:#181c52;fill-opacity:1;fill-rule:evenodd;stroke:none"
         id="path694"
         d="m 51.091125,86.423765 c 0,0.0125 -0.03,0.0375 -0.105,0.0825 -0.025,0.015 -0.065,0.0375 -0.12,0.0675 0.58,0 1.12125,-0.2235 1.62375,-0.6705 0.5025,-0.447125 0.75375,-0.96025 0.75375,-1.539625 l 0,-4.330625 c 0.06,-0.22975 0.1025,-0.3795 0.1275,-0.4495 0.025,-0.07 0.0625,-0.157375 0.1125,-0.26225 l -0.7125,0 -0.7125,0 c 0.055,0.105 0.1025,0.22475 0.1425,0.359625 0.025,0.08 0.0575,0.197375 0.0975,0.352125 l 0,4.3755 c 0,0.419625 -0.115,0.81425 -0.34675,1.18375 C 51.74075,85.92689 51.45425,86.20414 51.09225,86.42389 z" />
      <path
         inkscape:connector-curvature="0"
         style="fill:#181c52;fill-opacity:1;fill-rule:evenodd;stroke:none"
         id="path696"
         d="m 54.18975,80.00364 0,5.0475 c -0.06,0.205 -0.14,0.4275 -0.24,0.6675 l 3.69,0 0,-0.84 c -0.16,0.08 -0.28,0.135 -0.36,0.165 -0.135,0.05 -0.2525,0.075 -0.3525,0.075 l -1.785,0 0,-2.2575 1.785,0 c 0.11,0 0.23,0.035 0.36,0.105 0.08,0.045 0.16,0.09 0.24,0.135 l 0,-0.8325 -2.385,0 0,-2.385 1.785,0.0125 c 0.105,0 0.2225,0.025 0.3525,0.075 0.085,0.03 0.205,0.085 0.36,0.165 l 0,-0.84 -3.69,0 c 0.105,0.265 0.185,0.5025 0.24,0.7125 z" />
      <path
         inkscape:connector-curvature="0"
         style="fill:#181c52;fill-opacity:1;fill-rule:evenodd;stroke:none"
         id="path698"
         d="m 61.03175,82.65114 c 0.46,0 0.8525,-0.1625 1.1775,-0.4875 0.325,-0.325 0.4875,-0.7175 0.4875,-1.1775 0,-0.46 -0.1625,-0.8525 -0.4875,-1.1775 -0.325,-0.325 -0.7175,-0.4875 -1.1775,-0.4875 l -0.165,0 -2.7,0 c 0.05,0.1 0.0975,0.22 0.1425,0.36 0.03,0.1 0.0625,0.2175 0.0975,0.3525 l 0,5.055 c -0.06,0.195 -0.0925,0.3025 -0.0975,0.3225 -0.04,0.125 -0.0875,0.2375 -0.1425,0.3375 l 1.4325,0 c -0.065,-0.14 -0.115,-0.2525 -0.15,-0.3375 -0.035,-0.085 -0.065,-0.1875 -0.09,-0.3075 l 0,-5.19 1.1475,0 c 0.32,0 0.58625,0.10375 0.79875,0.31125 0.2125,0.2075 0.31875,0.46125 0.31875,0.76125 0,0.295 -0.10625,0.54875 -0.31875,0.76125 -0.2125,0.2125 -0.48125,0.31875 -0.80625,0.31875 l -0.78,0 2.04,2.9625 c 0.165,0.22 0.375,0.395 0.63,0.525 0.255,0.13 0.515,0.195 0.78,0.195 0.075,0 0.15,-0.0125 0.225,-0.0125 -0.185,-0.355 -0.37,-0.7125 -0.555,-1.0725 -0.3,-0.56 -0.5975,-1.0075 -0.8925,-1.3425 -0.395,-0.445 -0.78,-0.6675 -1.155,-0.6675 l 0.24,-0.0125 z" />
      <path
         inkscape:connector-curvature="0"
         style="fill:#181c52;fill-opacity:1;fill-rule:evenodd;stroke:none"
         id="path700"
         d="m 63.892875,79.31364 c 0.045,0.09 0.09,0.21 0.135,0.36 0.03,0.095 0.0625,0.215 0.0975,0.36 l 0,5.0475 c -0.07,0.255 -0.10875,0.39625 -0.11625,0.42375 -0.0125,0.0275 -0.04625,0.10875 -0.11625,0.24375 l 0.7125,0 0.712625,0 c -0.05,-0.1 -0.09625,-0.2175 -0.138875,-0.3525 -0.0425,-0.135 -0.07375,-0.24 -0.09375,-0.315 l 0,-5.0475 c 0.03,-0.12 0.06125,-0.24 0.09375,-0.36 0.0325,-0.12 0.07875,-0.24 0.138875,-0.36 l -0.712625,0 -0.7125,0 z m 1.462625,-1.7175 -1.08,1.2675 -0.127625,0 0.39,-1.2675 0.817625,0 z" />
      <path
         inkscape:connector-curvature="0"
         style="fill:#181c52;fill-opacity:1;fill-rule:evenodd;stroke:none"
         id="path702"
         d="m 66.200375,85.148765 2.21225,-5.115125 -0.3525,-0.7125 1.065,0 2.625,5.708375 c 0.095,0.14475 0.22,0.285875 0.375,0.42325 0.155,0.137375 0.2675,0.236 0.3375,0.295875 l -1.785,0 c 0.0125,-0.035 0.015,-0.0625 0.015,-0.0825 0.025,-0.135 0.0375,-0.23 0.0375,-0.285 0,-0.04 0,-0.0825 0,-0.1275 -0.015,-0.065 -0.03,-0.135 -0.045,-0.21 l -0.84,-1.92 -1.4325,0 -0.2325,-0.5925 1.38,0 -0.788125,-1.779125 -1.913125,4.291 c -0.015,0.08 -0.025,0.143875 -0.0325,0.1915 -0.0125,0.0475 -0.0125,0.09625 -0.0125,0.14625 0,0.065 0.0012,0.126375 0,0.184 0,0.0575 0.01625,0.11875 0.04125,0.183875 l -1.065,0 c 0.065,-0.065 0.1325,-0.15 0.202625,-0.255 0.07,-0.105 0.137625,-0.219875 0.202625,-0.344875 z" />
      <g
         style="font-size:37.32533646px;font-style:normal;font-weight:normal;line-height:125%;letter-spacing:0px;word-spacing:0px;fill:#181c52;fill-opacity:1;stroke:none;font-family:Sans"
         id="text3061">
        <path
           inkscape:connector-curvature="0"
           d="m 74.912988,80.974887 c 0,-0.432969 0.144325,-0.798757 0.432974,-1.097365 0.288649,-0.298597 0.656925,-0.447898 1.104831,-0.447904 l 2.25445,0 0,0.836087 c -0.159258,-0.07962 -0.278699,-0.134365 -0.358323,-0.164231 -0.134375,-0.04976 -0.251327,-0.07464 -0.350858,-0.07465 l -1.306387,-0.0075 c -0.233908,0.02489 -0.432976,0.116959 -0.597206,0.276208 -0.159256,0.15926 -0.238883,0.345886 -0.238882,0.55988 -10e-7,0.139353 0.02737,0.271235 0.08212,0.395648 0.05474,0.119446 0.146811,0.223957 0.276207,0.313533 l 1.843872,1.455689 c 0.209019,0.184141 0.368273,0.385697 0.477765,0.60467 0.11446,0.214001 0.171692,0.435464 0.171696,0.664391 -4e-6,0.432975 -0.154282,0.798763 -0.462834,1.097365 -0.303583,0.293626 -0.684301,0.440439 -1.142155,0.440439 l -2.187266,0 0,-0.836087 c 0.139348,0.07465 0.256301,0.129395 0.350859,0.164231 0.139347,0.05474 0.258788,0.08212 0.358323,0.08212 l 1.321317,0 c 0.228926,0 0.42053,-0.07963 0.57481,-0.238882 0.159252,-0.164231 0.238879,-0.360811 0.238883,-0.589741 -4e-6,-0.243857 -0.131886,-0.487716 -0.395649,-0.731576 L 75.472869,82.139438 C 75.283753,81.970233 75.141917,81.788583 75.04736,81.594488 74.957779,81.4004 74.912988,81.193867 74.912988,80.974887"
           style="font-size:7.46506834px;font-variant:normal;font-stretch:normal;fill:#181c52;font-family:Asturica;-inkscape-font-specification:Asturica"
           id="path3834" />
        <path
           inkscape:connector-curvature="0"
           d="m 79.602334,85.200116 2.202195,-5.091177 -0.350858,-0.716647 1.06004,0 2.612774,5.688382 c 0.09455,0.144326 0.218969,0.286162 0.373253,0.425509 0.154272,0.134372 0.266248,0.231418 0.335928,0.291138 l -1.776686,0 c 0.0099,-0.03484 0.01492,-0.06221 0.01493,-0.08212 0.02488,-0.134371 0.03732,-0.228928 0.03733,-0.283672 -6e-6,-0.03981 -6e-6,-0.08212 0,-0.126906 -0.01494,-0.0647 -0.02987,-0.134371 -0.04479,-0.209022 l -0.836087,-1.911058 -1.425829,0 -0.231417,-0.58974 1.373573,0 -0.783832,-1.776687 -1.903593,4.277485 c -0.01493,0.07963 -0.02737,0.144325 -0.03732,0.194091 -0.005,0.04479 -0.0075,0.09207 -0.0075,0.141837 -10e-7,0.0647 -10e-7,0.126906 0,0.186626 0.005,0.05474 0.0199,0.114465 0.04479,0.179162 l -1.060039,0 c 0.0647,-0.0647 0.131882,-0.149301 0.201556,-0.253812 0.06967,-0.104511 0.136859,-0.218975 0.201557,-0.343393"
           style="font-size:7.46506834px;font-variant:normal;font-stretch:normal;fill:#181c52;font-family:Asturica;-inkscape-font-specification:Asturica"
           id="path3836" />
        <path
           inkscape:connector-curvature="0"
           d="m 87.099245,81.415326 0,3.665348 c 0.04479,0.154279 0.07714,0.271232 0.09705,0.350859 0.03981,0.144325 0.0846,0.266254 0.134371,0.365788 l -0.537485,0 -0.530019,0 c 0.04479,-0.08958 0.08709,-0.201557 0.126906,-0.335928 0.03981,-0.134371 0.07714,-0.261277 0.111976,-0.380719 l 0,-5.919799 4.740318,4.620878 0,-3.672814 c -0.04479,-0.154272 -0.07714,-0.271225 -0.09705,-0.350858 -0.03982,-0.134365 -0.0871,-0.256295 -0.141836,-0.365789 l 0.597205,0 0.4703,0 c -0.0448,0.08959 -0.0871,0.201563 -0.126906,0.335928 -0.03982,0.134378 -0.07715,0.261284 -0.111976,0.380719 l 0,5.927264 -4.732854,-4.620877"
           style="font-size:7.46506834px;font-variant:normal;font-stretch:normal;fill:#181c52;font-family:Asturica;-inkscape-font-specification:Asturica"
           id="path3838" />
        <path
           inkscape:connector-curvature="0"
           d="m 92.584904,79.392292 c 0.04479,0.08959 0.08958,0.209028 0.134372,0.358324 0.02986,0.09456 0.06221,0.214004 0.09705,0.358323 l 0,5.023991 c -0.06967,0.253813 -0.109488,0.395649 -0.119441,0.425509 -0.005,0.02488 -0.0423,0.104511 -0.111976,0.238882 l 0.709182,0 0.709181,0 c -0.04977,-0.09953 -0.09705,-0.216487 -0.141836,-0.350858 -0.03981,-0.134371 -0.06967,-0.238882 -0.08958,-0.313533 l 0,-5.023991 c 0.02986,-0.119435 0.05972,-0.238876 0.08958,-0.358323 0.03484,-0.119435 0.08211,-0.238876 0.141836,-0.358324 l -0.709181,0 -0.709182,0"
           style="font-size:7.46506834px;font-variant:normal;font-stretch:normal;fill:#181c52;font-family:Asturica;-inkscape-font-specification:Asturica"
           id="path3840" />
        <path
           inkscape:connector-curvature="0"
           d="m 94.822676,81.654208 0,3.478722 c -0.03484,0.109488 -0.06719,0.218976 -0.09705,0.328463 -0.03981,0.114465 -0.08709,0.22644 -0.141836,0.335928 l 0.716646,0 2.508263,0 c 0.880874,0 1.629868,-0.311044 2.246991,-0.933134 0.62208,-0.627064 0.93313,-1.381035 0.93313,-2.261915 0,-0.880874 -0.31603,-1.632357 -0.94806,-2.254451 -0.627076,-0.62706 -1.393489,-0.940592 -2.299246,-0.940598 l -2.567984,0 -0.58974,0 c 0.05972,0.104517 0.114464,0.253818 0.164231,0.447904 0.02488,0.08959 0.04977,0.179167 0.07465,0.268742 l 0,1.530339 0.948064,0 0,-1.545269 1.657245,0 c 0.706689,6e-6 1.296429,0.243864 1.769221,0.731577 0.477759,0.482745 0.716641,1.069997 0.716647,1.761756 -6e-6,0.691765 -0.246353,1.279017 -0.739042,1.761756 -0.487722,0.477765 -1.089904,0.716647 -1.806547,0.716646 l -1.597524,0 0,-3.426466 -0.948064,0"
           style="font-size:7.46506834px;font-variant:normal;font-stretch:normal;fill:#181c52;font-family:Asturica;-inkscape-font-specification:Asturica"
           id="path3842" />
        <path
           inkscape:connector-curvature="0"
           d="m 101.86632,85.200116 2.20219,-5.091177 -0.35086,-0.716647 1.06004,0 2.61278,5.688382 c 0.0946,0.144326 0.21897,0.286162 0.37325,0.425509 0.15427,0.134372 0.26625,0.231418 0.33593,0.291138 l -1.77669,0 c 0.01,-0.03484 0.0149,-0.06221 0.0149,-0.08212 0.0249,-0.134371 0.0373,-0.228928 0.0373,-0.283672 -10e-6,-0.03981 -10e-6,-0.08212 0,-0.126906 -0.0149,-0.0647 -0.0299,-0.134371 -0.0448,-0.209022 l -0.83609,-1.911058 -1.42583,0 -0.23141,-0.58974 1.37357,0 -0.78383,-1.776687 -1.9036,4.277485 c -0.0149,0.07963 -0.0274,0.144325 -0.0373,0.194091 -0.005,0.04479 -0.007,0.09207 -0.007,0.141837 0,0.0647 0,0.126906 0,0.186626 0.005,0.05474 0.0199,0.114465 0.0448,0.179162 l -1.06004,0 c 0.0647,-0.0647 0.13189,-0.149301 0.20156,-0.253812 0.0697,-0.104511 0.13686,-0.218975 0.20156,-0.343393"
           style="font-size:7.46506834px;font-variant:normal;font-stretch:normal;fill:#181c52;font-family:Asturica;-inkscape-font-specification:Asturica"
           id="path3844" />
        <path
           inkscape:connector-curvature="0"
           d="m 108.878,81.654208 0,3.478722 c -0.0348,0.109488 -0.0672,0.218976 -0.097,0.328463 -0.0398,0.114465 -0.0871,0.22644 -0.14183,0.335928 l 0.71664,0 2.50827,0 c 0.88087,0 1.62986,-0.311044 2.24698,-0.933134 0.62208,-0.627064 0.93313,-1.381035 0.93314,-2.261915 -1e-5,-0.880874 -0.31603,-1.632357 -0.94807,-2.254451 -0.62707,-0.62706 -1.39348,-0.940592 -2.29924,-0.940598 l -2.56798,0 -0.58974,0 c 0.0597,0.104517 0.11446,0.253818 0.16423,0.447904 0.0249,0.08959 0.0498,0.179167 0.0747,0.268742 l 0,1.530339 0.94806,0 0,-1.545269 1.65725,0 c 0.70669,6e-6 1.29643,0.243864 1.76922,0.731577 0.47776,0.482745 0.71664,1.069997 0.71665,1.761756 -1e-5,0.691765 -0.24636,1.279017 -0.73905,1.761756 -0.48772,0.477765 -1.0899,0.716647 -1.80654,0.716646 l -1.59753,0 0,-3.426466 -0.94806,0"
           style="font-size:7.46506834px;font-variant:normal;font-stretch:normal;fill:#181c52;font-family:Asturica;-inkscape-font-specification:Asturica"
           id="path3846" />
      </g>
    </g>
  </g>
</svg>
