<?xml version="1.0" encoding="UTF-8" standalone="no"?>
<!-- Created with Inkscape (http://www.inkscape.org/) -->

<svg
   xmlns:dc="http://purl.org/dc/elements/1.1/"
   xmlns:cc="http://creativecommons.org/ns#"
   xmlns:rdf="http://www.w3.org/1999/02/22-rdf-syntax-ns#"
   xmlns:svg="http://www.w3.org/2000/svg"
   xmlns="http://www.w3.org/2000/svg"
   xmlns:sodipodi="http://sodipodi.sourceforge.net/DTD/sodipodi-0.dtd"
   xmlns:inkscape="http://www.inkscape.org/namespaces/inkscape"
   version="1.1"
   width="437.12796"
   height="448.83804"
   id="svg2"
   xml:space="preserve"
   inkscape:version="0.91 r13725"
   sodipodi:docname="Logotipu_XEGA_XOVEN.svg"><sodipodi:namedview
     pagecolor="#ffffff"
     bordercolor="#666666"
     borderopacity="1"
     objecttolerance="10"
     gridtolerance="10"
     guidetolerance="10"
     inkscape:pageopacity="0"
     inkscape:pageshadow="2"
     inkscape:window-width="705"
     inkscape:window-height="480"
     id="namedview38"
     showgrid="false"
     fit-margin-top="0"
     fit-margin-left="0"
     fit-margin-right="0"
     fit-margin-bottom="0"
     inkscape:zoom="0.31731092"
     inkscape:cx="448.06625"
     inkscape:cy="293.5795"
     inkscape:window-x="1548"
     inkscape:window-y="180"
     inkscape:window-maximized="0"
     inkscape:current-layer="svg2" /><metadata
     id="metadata8"><rdf:RDF><cc:Work
         rdf:about=""><dc:format>image/svg+xml</dc:format><dc:type
           rdf:resource="http://purl.org/dc/dcmitype/StillImage" /><dc:title></dc:title></cc:Work></rdf:RDF></metadata><defs
     id="defs6" /><g
     transform="matrix(1.25,0,0,-1.25,-77.55875,527.13354)"
     id="g10"><g
       id="g3082"><path
         d="m 194.71418,108.6062 c -2.7946,-1.262 -15.2346,-5.4083 -15.2346,-2.2536 0,1.6225 -2.9749,3.1549 -2.9749,4.7774 -2.0734,0 -1.7127,2.704 -1.3522,3.2447 -2.5241,2.7042 0,7.4815 1.803,10.0053 0.3605,0.7211 2.5241,5.0477 4.5974,5.0477 0,0.3605 6.13,4.0562 6.4905,3.9659 1.3522,-0.7209 1.7128,-3.6054 5.4088,-2.3435 2.7043,1.0817 10.9977,-2.7041 10.9977,-4.3266 0,-3.4251 5.3187,-5.949 1.8029,-9.4644 l 0,-0.3605 c 3.1552,-3.2449 -1.0817,-9.8249 -3.2452,-12.619 -1.803,-2.3436 -4.6876,-4.506903 -9.285,-4.506903 0,-3.876 -10.0063,-1.4421 -10.3667,1.081603 0,2.5239 8.3834,2.3436 10.3667,2.3436 0,0.3606 2.7946,1.4421 3.5156,1.8028 0.541,-0.7211 1.4424,-1.0817 2.8847,-0.3607 l -0.7211,0.8113 c 0.3605,0.2705 1.0817,0.6309 1.8028,0.6309 0,1.8929 0.7213,3.7858 2.1636,5.228 0,2.5238 0.9014,10.4558 -0.3606,11.8079 -1.803,1.8028 -5.0481,3.0647 -6.8511,4.8673 -1.0818,1.0817 -10.6372,-2.1633 -12.4402,-2.5237 -6.1297,-1.4423 -6.7608,-7.4814 -4.5974,-10.1855 0.6311,-1.0816 0.9916,-2.704 2.434,-3.6054 0.4507,-0.1804 2.8847,-1.0817 2.8847,-1.262 5.7693,0 2.434,3.0647 4.1467,6.3997 2.2536,4.3266 0.631,0.7211 7.7526,0.631 0,1.0816 1.2619,2.6139 -0.1804,3.335 -2.4339,-2.5238 -6.7609,1.4422 -9.5554,-2.3436 -0.7211,-1.1718 0.3606,-7.8418 -2.8848,-3.5154 -0.6309,1.0818 -1.0817,8.7434 4.3271,7.4815 9.9161,5.0476 13.5219,-3.2451 10.6372,-7.1208 -1.0818,-1.8027 -1.0818,-5.228 -3.9664,-6.67 z"
         id="path14"
         style="fill:#ffffff;fill-opacity:1;fill-rule:nonzero;stroke:#ffffff;stroke-width:2;stroke-linecap:butt;stroke-linejoin:miter;stroke-miterlimit:3.86360002;stroke-dasharray:none;stroke-opacity:1"
         inkscape:connector-curvature="0" /><path
         d="m 91.1641,293.0898 c 13.1614,26.3198 30.83,33.8913 49.7606,33.8913 23.8887,0 12.2599,-41.5529 -8.2033,-51.0174 -33.8046,-9.5543 2.6143,-39.4798 8.2033,-50.4764 15.6855,-31.3676 -12.4402,-22.8045 -18.2996,-46.5104 5.0481,-10.0954 20.1025,1.1717 25.1508,5.0475 37.2301,24.7876 24.8802,16.5852 9.4653,40.2011 -34.526,53.0903 11.3582,44.9781 50.9322,83.9171 8.2034,7.5714 15.7756,2.4336 20.8238,-15.0528 3.696,-10.8164 -4.5073,-7.0307 -4.5073,-15.864 -6.1299,-5.7688 45.073,-7.8419 59.2259,2.5237 5.4988,2.0731 -15.6855,11.3572 -25.1508,11.3572 -15.1445,0 -19.5616,11.8981 -23.9787,37.2266 -5.5891,28.9338 -15.7756,17.5766 -27.6749,6.2193 -24.3393,-24.2468 -25.421,-28.3028 -39.6641,0 5.7695,5.0476 13.4318,9.4644 20.7335,10.0954 23.2577,1.983 1.5326,34.4322 42.8193,41.6431 6.6708,1.0816 7.5722,8.8333 10.7275,-1.2619 1.262,-3.7858 11.8991,-18.1176 6.3101,0 -5.0481,10.0952 12.6203,0 13.8825,2.5238 l 0,1.2619 c -1.2622,2.5237 -19.5616,8.8333 -6.9413,8.8333 1.8931,0 7.9328,0.3606 9.1047,1.6226 16.4066,1.8026 -19.201,7.2109 -10.3668,7.2109 1.2621,0 9.4654,3.7858 9.4654,6.3095 -4.4172,0 -16.4065,-7.5714 -19.5617,-1.262 5.6792,23.9764 -10.7273,-1.2617 -10.7273,-6.3094 -0.631,-18.9287 -15.0543,-12.6192 -21.9956,-17.6668 -6.9412,-5.0477 -11.9894,-8.8335 -16.4065,-22.7144 -4.4171,-15.1431 -20.0124,-16.4049 -28.2156,-16.4049 -6.3103,0 -10.0964,8.8334 -15.1445,13.881 2.524,2.5239 11.3583,6.3096 6.3102,16.4048 2.524,4.9576 7.5722,8.8335 7.5722,16.4049 -0.631,5.4082 -8.2032,-5.0476 -10.7273,-7.5714 -1.2621,1.2619 -2.0734,3.7856 -2.0734,6.3095 -13.7023,-0.4508 10.9978,19.1991 -8.0231,7.5715 -5.2285,-5.2279 -8.8342,-7.5715 -9.3752,-6.3096 -1.893,3.7857 -3.155,7.5715 -3.8763,11.3573 -0.5408,0 -2.3437,3.966 -2.4339,-1.2619 0,-5.0477 -1.262,-6.3097 0,-12.6192 -1.262,-0.9916 -3.155,-0.1803 -4.4171,-1.4422 -2.0734,-1.2619 1.2621,-2.3435 0.5408,-4.8673 -3.6959,3.7857 -10.0062,11.3571 -14.4233,7.5714 -2.2537,-2.7041 7.5723,-11.3572 10.7274,-17.7569 -1.8931,-2.3436 -22.9872,-3.1548 -4.4172,-6.2195 8.9245,0.8112 13.5219,-2.3434 14.4233,-3.7856 3.1553,-4.8674 9.4653,-3.7858 13.2515,-11.3574 8.2033,-16.4047 -10.9076,-20.551 -16.9474,-21.4524 -7.3017,-1.0817 -20.1927,-3.1548 -25.8719,-13.0698 -3.696,-6.3997 -19.7418,-27.4017 -24.6097,-25.9594 -2.8847,0.9916 -14.153,17.5768 -14.153,4.8674 7.7526,-0.7211 7.5722,-10.0954 3.2453,-13.25 -0.2704,-0.1803 -3.6059,-7.3913 -3.6059,-8.6531 3.1552,0 10.7273,10.0952 13.2515,7.5715 -1.262,-5.0478 -3.7861,-10.0954 -5.0482,-15.1431 5.6793,-5.0475 6.9412,6.3095 10.0963,12.6192 0.6311,-3.7858 3.065,-21.4525 6.9413,-13.881 1.262,2.5237 0.631,8.8334 1.262,11.3571 1.1719,-1.2619 8.2934,-16.4049 8.2934,-5.0476 0,5.4983 -5.6792,12.7092 -5.6792,18.3879 z"
         id="path16"
         style="fill:#627078;fill-opacity:1;fill-rule:nonzero;stroke:none"
         inkscape:connector-curvature="0" /><path
         d="m 152.824,377.4577 c 0.631,-2.4337 -10.0063,-0.9015 -11.2683,-2.4337 -12.7106,-15.143 -8.023,7.2108 -9.916,10.9967 5.0481,10.0951 16.8574,-4.7773 21.1843,-8.563 z"
         id="path18"
         style="fill:#66ccce;fill-opacity:1;fill-rule:nonzero;stroke:none"
         inkscape:connector-curvature="0" /><path
         d="m 252.8859,286.8704 c 3.1551,0 18.7504,-3.2449 21.8153,-5.6786 -4.327,-3.7857 -24.5196,-2.0732 -30.1989,-2.0732 -9.4653,0 -11.719,8.1122 -3.8763,7.932 l 12.2599,-0.1802 z"
         id="path20"
         style="fill:#66ccce;fill-opacity:1;fill-rule:nonzero;stroke:none"
         inkscape:connector-curvature="0" /><path
         d="m 88.6401,285.1578 c -2.5241,0 -14.1528,-0.631 -10.7274,5.318 1.2621,2.5238 13.0711,2.4336 10.7274,-5.318 z"
         id="path22"
         style="fill:#66ccce;fill-opacity:1;fill-rule:nonzero;stroke:none"
         inkscape:connector-curvature="0" /><path
         d="m 130.3775,183.9342 c 4.9582,5.0478 17.9393,19.1091 23.3479,20.5513 31.8215,8.1123 -31.9117,-39.2997 -23.3479,-20.5513 z"
         id="path24"
         style="fill:#66ccce;fill-opacity:1;fill-rule:nonzero;stroke:none"
         inkscape:connector-curvature="0" /><path
         d="m 250.2716,400.3523 c -4.6876,-17.216 -14.6036,-2.4337 -13.7022,4.7773 0.4508,3.4253 13.7022,-2.3435 13.7022,-4.7773 z"
         id="path26"
         style="fill:#66ccce;fill-opacity:1;fill-rule:nonzero;stroke:none"
         inkscape:connector-curvature="0" /><path
         d="m 209.591,264.9526 -2.2719,-5.333 -3.9919,13.3601 3.2009,1.9735 3.0629,-10.0006 z m 30.7193,0.4285 -13.1526,-28.7162 12.7908,-33.2878 -23.0606,-18.8586 -1.5666,4.8241 19.8371,16.0635 -12.3275,31.5334 13.6295,29.272 3.8499,-0.8304 z m -5.2251,5.8574 -15.7058,-33.9218 11.652,-30.1985 -19.4585,-15.8849 -8.0176,27.5733 -12.2517,-25.4302 -18.5576,5.7146 19.2783,34.288 -12.612,30.7163 19.8189,11.5721 7.6573,-25.4302 10.6301,25.4302 17.5666,-4.4289 z m -30.4559,-66.9798 -10.2641,-21.5973 -22.969,7.1455 2.3084,4.0851 18.8475,-5.7169 10.4782,21.5794 1.599,-5.4958 z"
         id="path28"
         style="fill:#627078;fill-opacity:1;fill-rule:evenodd;stroke:none"
         inkscape:connector-curvature="0" /><path
         d="m 112.02558,154.0204 -2.2719,-5.333 -3.992,13.3601 3.2009,1.9735 3.063,-10.0006 z m 30.7192,0.4285 -13.1525,-28.7162 12.7908,-33.287803 -23.0605,-18.8586 -1.5667,4.8241 19.8372,16.0635 -12.3277,31.533403 13.6296,29.272 3.8498,-0.8304 z m -5.2249,5.8574 -15.7059,-33.9218 11.652,-30.198503 -19.4586,-15.8849 -8.0176,27.573303 -12.2516,-25.430203 -18.5576,5.7146 19.2784,34.288003 -12.6121,30.7163 19.8188,11.5721 7.6572,-25.4302 10.6303,25.4302 17.5667,-4.4289 z m -30.4562,-66.979803 -10.2641,-21.5973 -22.9688,7.1455 2.3083,4.0851 18.8476,-5.7169 10.4781,21.5794 1.5989,-5.4958 z"
         id="path30"
         style="fill:#627078;fill-opacity:1;fill-rule:evenodd;stroke:none"
         inkscape:connector-curvature="0" /><path
         d="m 292.2464,271.6672 -4.8253,-24.3654 -18.7898,-4.6522 0.373,5.5874 15.5904,3.8598 3.7062,18.7177 3.9455,0.8527 z m -11.9815,-37.1453 -1.2612,-7.7148 -3.5301,-0.5268 1.3273,7.5451 3.464,0.6965 z m 6.216,42.2884 -4.0567,-20.8718 -16.0352,-3.8887 -0.9881,-14.6707 9.549,2.7146 -2.4323,-14.2866 -8.0175,-1.5715 -0.3605,-4.8575 18.6478,3.7145 -5.0448,-25.8589 -35.1333,-6.2861 10.8102,78.1479 33.0614,7.7148 z m 1.8917,-59.0037 -5.6753,-29.2878 -38.4665,-7.0004 0.8178,5.1811 34.8504,6.342 4.569,24.0663 3.9046,0.6988 z"
         id="path32"
         style="fill:#627078;fill-opacity:1;fill-rule:evenodd;stroke:none"
         inkscape:connector-curvature="0" /><path
         d="m 345.4898,239.3793 c -4.0838,1.3335 -8.468,2.0002 -13.1524,2.0002 -10.2106,0 -15.316,-4.1432 -15.316,-12.4294 0,-1.6192 0.2702,-3.3811 0.8108,-5.2861 -2.7628,0.762 -4.1441,3.0954 -4.1441,7.0005 0,4.7622 1.7424,8.6672 5.2272,11.7151 3.4847,3.0479 7.9006,4.5716 13.2475,4.5716 2.5233,0 5.6172,-0.4278 9.2816,-1.2834 L 339.5682,269.1 c 1.4911,-0.3809 2.7138,-0.9048 3.6681,-1.5715 l 2.2535,-28.1492 z m -7.2983,11.2865 c -2.1621,0.6667 -4.2639,1.0001 -6.3059,1.0001 -6.186,0 -11.2157,-1.9526 -15.0894,-5.8575 -3.8737,-3.905 -5.8107,-9.0007 -5.8107,-15.2867 0,-3.6193 0.7959,-6.5243 2.3875,-8.7149 1.5914,-2.1906 3.7085,-3.286 6.351,-3.286 l 0.5405,0 2.3422,10.7149 15.3145,0 -4.8646,-41.5741 -17.5667,-1.1429 1.2612,6.2862 c -7.5673,0.1904 -13.633,3.5478 -18.1973,10.0721 -4.5644,6.5241 -6.8465,15.0724 -6.8465,25.6445 0,13.5247 3.5433,24.9063 10.6301,34.1451 7.0867,9.2387 15.8252,13.8581 26.2149,13.8581 2.102,0 4.6544,-0.3334 7.6572,-1.0001 l 1.982,-24.8588 z m 5.4052,-26.5731 -5.4052,-45.7173 -21.8007,-1.4287 1.0853,5.266 18.0086,1.1697 4.8112,40.7014 3.3008,0.01 z m -30.5391,-35.2882 -1.0811,-5.2859 -0.4504,0.1429 c -4.8046,1.5237 -8.3779,3.5716 -10.7202,6.1432 -2.3422,2.5716 -3.9638,6.3814 -4.8646,11.4293 4.0238,-7.0481 9.7293,-11.1913 17.1163,-12.4295 z"
         id="path34"
         style="fill:#627078;fill-opacity:1;fill-rule:evenodd;stroke:none"
         inkscape:connector-curvature="0" /><path
         d="m 410.8589,192.5191 -23.691,-8.4292 -0.5308,4.9335 19.726,7.1656 -14.891,69.038 3.8034,0.011 15.5834,-72.7192 z m -8.2864,7.1433 -19.1883,-7.1433 -1.4414,15.8581 -16.3055,-1.5715 -3.3331,-14.2866 -17.2064,7.1433 19.9089,72.1477 22.1612,0 15.4046,-72.1477 z m -22.8819,-1.1428 -9.7095,-1.1408 -3.9948,-16.2844 -20.6182,8.4245 1.4202,4.4378 17.2204,-7.0385 3.7007,15.4587 11.5308,1.1431 0.4504,-5.0004 z m -0.4151,31.8547 -3.6471,17.9699 -4.1355,-16.9721 7.7826,-0.9978 z"
         id="path36"
         style="fill:#627078;fill-opacity:1;fill-rule:evenodd;stroke:none"
         inkscape:connector-curvature="0" /><path
         d="m 274.11228,142.5908 -1.6286,-8.0339 -6.769,27.5956 3.3529,1.2969 5.0447,-20.8586 z m 32.7913,9.0008 -27.5676,-79.290903 -16.5745,2.4285 -0.9008,5.1433 15.5074,-2.2881 26.2234,75.132203 3.3121,-1.125 z m -4.6845,6.8575 -26.4852,-76.004903 -18.3776,2.8573 -10.72,74.719103 15.3145,5.429 10.9904,-44.5744 9.2788,43.7172 19.9991,-6.1433 z"
         id="path38"
         style="fill:#627078;fill-opacity:1;fill-rule:evenodd;stroke:none"
         inkscape:connector-curvature="0" /><path
         d="m 352.38288,160.735 -4.8252,-24.3654 -18.7898,-4.6522 0.373,5.5874 15.5904,3.8598 3.7061,18.7177 3.9455,0.8527 z m -11.9813,-37.1453 -1.2612,-7.7148 -3.5304,-0.5268 1.3275,7.5451 3.4641,0.6965 z m 6.2158,42.2884 -4.0566,-20.8718 -16.0353,-3.8887 -0.9882,-14.6707 9.5491,2.7146 -2.4322,-14.2866 -8.0176,-1.5715 -0.3604,-4.8575 18.6478,3.7145 -5.0448,-25.858903 -35.1334,-6.2861 10.8102,78.147903 33.0614,7.7148 z m 1.8918,-59.0037 -5.6754,-29.287803 -38.4665,-7.0004 0.8178,5.1811 34.8504,6.342 4.569,24.066303 3.9047,0.6988 z"
         id="path40"
         style="fill:#627078;fill-opacity:1;fill-rule:evenodd;stroke:none"
         inkscape:connector-curvature="0" /><path
         d="m 411.74938,161.5922 -0.3604,-78.147903 -18.2873,-8.4293 -2.3338,4.1276 17.0177,7.6969 0.4505,73.609603 3.5133,1.1431 z m -26.305,-20.4276 -1.157,-6.9178 -11.9041,29.0687 1.3501,6.7057 11.711,-28.8566 z m 19.9991,22.8564 -0.4504,-73.433403 -19.4586,-8.8578 -13.693,24.573003 -4.4142,-21.715703 -17.2063,0.5715 17.6567,80.576703 17.4767,-42.8599 6.0357,36.4309 14.0534,4.7147 z m -29.6621,-71.699003 -3.612,-17.3092 -20.417,0.4286 1.1712,5.0026 16.6657,-0.4286 3.5134,17.2868 2.6787,-4.9802 z"
         id="path42"
         style="fill:#627078;fill-opacity:1;fill-rule:evenodd;stroke:none"
         inkscape:connector-curvature="0" /><path
         d="m 192.00988,158.091 c 22.0857,0 40.0247,-17.7568 40.0247,-39.5699 0,-21.723003 -17.939,-39.479903 -40.0247,-39.479903 -22.0858,0 -40.0249,17.7569 -40.0249,39.479903 0,21.8131 17.9391,39.5699 40.0249,39.5699 z"
         id="path44"
         style="fill:#627078;fill-opacity:1;fill-rule:nonzero;stroke:none"
         inkscape:connector-curvature="0" /><path
         d="m 160.36868,138.5314 c 0,-3.7857 -9.9161,2.524 -12.6205,1.8028 -2.1635,1.0816 -7.2116,1.0816 -7.2116,3.2449 -0.6311,0 -2.8847,1.0816 -2.8847,-0.3605 4.4172,-4.5069 12.981,-7.3012 16.5868,-12.0783 1.4423,-1.9831 3.6059,-4.1464 5.4087,-6.1293 0,1.9829 1.803,6.1293 3.5159,7.932 1.0816,1.0817 -0.9016,5.5884 -2.7946,5.5884 z"
         id="path46"
         style="fill:#66ccce;fill-opacity:1;fill-rule:nonzero;stroke:none"
         inkscape:connector-curvature="0" /><path
         d="m 164.96598,150.9703 c 0,1.4421 -4.2368,4.1463 -6.0397,4.1463 -3.9664,1.9829 2.0734,-3.966 2.0734,-4.1463 0,-1.352 -3.8763,-4.7772 -0.631,-5.8589 3.8762,-1.262 6.0396,4.5069 4.5973,5.8589 z"
         id="path48"
         style="fill:#66ccce;fill-opacity:1;fill-rule:nonzero;stroke:none"
         inkscape:connector-curvature="0" /><path
         d="m 169.74368,170.1694 c 0,0.9014 -1.4423,3.0647 -2.524,3.6055 0,-4.6871 4.0566,-16.2246 8.2032,-19.4695 0.3607,-0.3605 -0.6309,-10.8164 2.1637,-8.8334 0.721,1.1717 7.7524,3.2449 5.3185,6.6701 -2.7044,4.056 -13.1614,16.0443 -13.1614,18.0273 z"
         id="path50"
         style="fill:#66ccce;fill-opacity:1;fill-rule:nonzero;stroke:none"
         inkscape:connector-curvature="0" /><path
         d="m 201.20458,162.3274 c 0,3.0647 9.7358,4.1465 5.6793,7.1209 -3.6059,2.5239 -9.2851,-11.4474 -17.3982,-7.5715 -1.0817,-1.0816 -1.8028,-4.3265 0,-5.2279 0.8113,0.09 2.8846,0.2703 2.8846,1.6225 -1.4423,1.4421 3.9666,1.4421 5.3186,2.1632 4.7778,-2.2534 -5.7693,-7.4812 -7.482,-8.2023 -0.9916,-0.9916 -1.8029,-2.7042 1.4424,-3.6056 8.113,-2.4336 8.0229,11.9881 9.5553,13.7007 z"
         id="path52"
         style="fill:#66ccce;fill-opacity:1;fill-rule:nonzero;stroke:none"
         inkscape:connector-curvature="0" /><path
         d="m 214.45608,155.1166 c 0,4.0561 7.9328,5.4082 7.9328,7.8419 15.1446,17.6668 -6.851,-0.4508 -9.6456,-4.3266 -1.8029,-2.2535 -16.677,-9.3742 -9.285,-11.1769 2.4339,-0.5409 4.327,-1.1718 5.8596,-2.9745 0,3.1547 5.1382,7.6616 5.1382,10.6361 z"
         id="path54"
         style="fill:#66ccce;fill-opacity:1;fill-rule:nonzero;stroke:none"
         inkscape:connector-curvature="0" /><path
         d="m 237.80388,121.1351 c 3.2453,0 6.1299,2.704 10.0963,2.704 0,5.0477 -9.7357,0.9015 -13.612,1.6226 -2.524,0.3604 -6.4906,0 -9.0146,-0.5408 -5.4088,5.318 -3.2453,-3.6056 -3.2453,-5.1379 0,-1.6225 2.2538,-4.6872 2.2538,-5.7686 0.9915,0 12.981,6.8503 13.5218,7.1207 z"
         id="path56"
         style="fill:#66ccce;fill-opacity:1;fill-rule:nonzero;stroke:none"
         inkscape:connector-curvature="0" /><path
         d="m 237.44318,115.4564 c 0,2.9745 -6.7608,-0.631 -7.7525,-1.1717 -1.4423,-0.721 -1.0818,-1.9828 -0.3605,-2.7041 5.8594,6.3997 10.2766,-1.1718 6.851,-2.3435 -8.2032,-2.614 -8.9244,-0.9916 -1.4423,0.721 7.4822,6.6701 -22.897,-7.3011 1.7128,-2.8844 5.3187,0.9916 2.5241,8.4728 0.9915,8.3827 z"
         id="path58"
         style="fill:#66ccce;fill-opacity:1;fill-rule:nonzero;stroke:none"
         inkscape:connector-curvature="0" /><path
         d="m 222.74948,92.020997 c 0,3.3349 -0.3606,3.6054 -5.0481,1.1718 -2.8848,3.1546 -3.9665,-4.597 -3.2453,-4.7773 2.1635,-0.5408 4.6876,2.5238 5.4087,2.8844 1.803,-1.8029 -7.5722,-7.7518 2.1635,-5.3181 4.5975,-2.4337 0.7212,4.2363 0.7212,6.0392 z"
         id="path60"
         style="fill:#66ccce;fill-opacity:1;fill-rule:nonzero;stroke:none"
         inkscape:connector-curvature="0" /><path
         d="m 176.50468,77.508897 c 0,3.3351 3.696,6.7603 3.696,10.3658 0,1.0816 -5.7694,3.2449 -8.2934,3.2449 -0.3606,-9.5545 2.3437,-14.3317 -1.0817,-28.4832 2.6141,0 5.6791,12.1685 5.6791,14.8725 z"
         id="path62"
         style="fill:#66ccce;fill-opacity:1;fill-rule:nonzero;stroke:none"
         inkscape:connector-curvature="0" /><path
         d="m 166.40828,85.350897 c 0,4.6871 -11.6287,3.966 -8.5637,0.5407 4.5072,2.2535 6.9412,-4.0561 8.2934,-4.0561 0,0.9014 0.2703,2.5239 0.2703,3.5154 z"
         id="path64"
         style="fill:#66ccce;fill-opacity:1;fill-rule:nonzero;stroke:none"
         inkscape:connector-curvature="0" /><path
         d="m 159.28688,84.088897 c -0.5409,-0.721 -4.5975,0.9915 -2.8846,-4.597 1.0817,-1.0816 2.2536,-1.0816 3.5156,0 0,1.3521 0.5408,4.597 -0.631,4.597 z"
         id="path66"
         style="fill:#66ccce;fill-opacity:1;fill-rule:nonzero;stroke:none"
         inkscape:connector-curvature="0" /><path
         d="m 166.04778,95.806597 c 0,1.0818 -1.8029,1.6225 -2.4338,2.3436 0.6309,0.8112 -1.803,6.580103 -3.9666,6.580103 0,-0.631 0.7213,-3.3351 -0.7211,-3.3351 1.4424,-3.876003 -10.7274,-12.979703 -14.0628,-13.430403 -0.8112,-0.09 -6.4002,-4.4167 -6.4002,-6.1293 5.679,0 7.3918,0 11.8991,5.228 0.2705,0.5409 1.7128,3.0646 2.434,3.0646 0,1.6225 4.6876,0.9014 5.7693,2.1633 0.7212,0.9014 1.803,1.442 2.8847,1.6223 0.3606,-0.1803 1.4424,-0.7209 1.8029,-0.7209 0.6311,0.1802 2.7945,2.2532 2.7945,2.6138 z"
         id="path68"
         style="fill:#66ccce;fill-opacity:1;fill-rule:nonzero;stroke:none"
         inkscape:connector-curvature="0" /><path
         d="m 154.50908,103.3782 c -1.0818,0 -1.3521,0.5408 -2.4339,0.5408 0,-0.9916 -1.8029,-1.983 -3.9664,-1.983 0,-0.8113 0,-3.154803 3.2453,-3.154803 0,1.712603 3.155,1.802703 3.155,4.597003 z"
         id="path70"
         style="fill:#66ccce;fill-opacity:1;fill-rule:nonzero;stroke:none"
         inkscape:connector-curvature="0" /><path
         d="m 212.65318,101.3952 c 0,-0.1804 -6.9413,-5.678703 -0.8113,-5.678703 0,-0.1802 0.7212,-0.721 0.7212,-0.9013 -3.1551,-3.1548 -1.1719,-5.4983 -2.8847,-8.563 -3.3354,-4.597 0.5409,-7.7517 -1.8029,-11.1769 0.3607,-7.0306 1.5325,-19.3795 -3.2453,-1.0818 -0.9916,3.7858 -0.7211,13.6109 -8.9244,13.6109 0,1.2618 -0.3605,1.8026 2.8846,1.8026 5.6792,0 5.3187,3.966 8.9245,4.8674 -3.2453,3.2448 0.3606,5.858803 3.2453,8.202403 0.3606,0.5408 4.4171,6.6701 1.893,6.6701 0,0.1803 0,0.3606 -0.09,0.3606 0,0.1802 -0.7212,0.5407 -0.7212,0.7211 -2.1635,-2.3436 -2.8847,-5.4983 -5.0482,-7.8419 -5.4088,-4.687203 -15.4149,-10.996703 -26.8634,-5.228003 -3.8764,-3.8758 7.2117,-5.0476 7.2117,-4.6869 13.5218,0 1.0817,-15.7742 0.2704,-15.9543 -3.5158,1.8027 -6.4004,6.1293 -3.8763,8.653 2.5242,2.6141 3.2452,-4.8673 3.2452,-4.8673 0,-0.3605 0.6311,-0.7211 0.9917,-1.0816 1.8029,1.983 1.8029,6.7602 1.8029,9.1037 0,3.0647 -17.6686,3.0647 -14.6938,5.9491 -0.6311,0.7211 0.7212,3.7856 -1.4424,3.2448 -2.524,1.1718 -5.3185,2.794403 -6.4003,3.876003 -2.524,3.1548 -0.7211,5.5885 -6.8511,7.0306 0,-1.5323 -1.9832,-0.3605 -2.5241,-0.1803 -2.2536,-2.3436 -6.0398,-0.3605 -8.2934,0.7212 -3.5157,-3.6956 -5.9496,-2.4338 -12.1697,-3.4253 -10.4569,-1.5322 -8.3834,0.3605 -1.8028,2.7041 1.4423,0 6.1299,1.9831 6.1299,2.8845 3.7861,0 10.547,5.4982 13.6119,3.9658 1.0818,0.5408 1.0818,1.8028 2.1635,2.3437 0.7213,-0.3606 0.7213,-0.7211 0.3606,-1.0817 1.4425,-1.4423 -0.3606,-3.4251 1.0818,-4.8674 2.1635,1.0818 5.5891,5.3181 3.6058,7.3011 1.0818,1.0816 0.3606,3.0647 0.3606,4.3266 0,3.0647 3.9665,5.4082 3.9665,8.2025 0,3.1548 10.0061,7.1207 3.9664,10.0952 -7.9329,-10.0051 -3.1551,5.5885 -0.8113,5.5885 4.5072,0 1.9832,-5.5885 4.6875,-6.9406 0.5408,0.1803 6.8511,3.2449 6.8511,3.5154 0.09,0 3.7862,3.6054 8.5639,3.6054 0,-0.3605 1.8028,-1.6223 2.1634,-1.9829 5.7693,1.4421 6.4905,-1.6225 10.8176,0.5408 1.3521,-0.3605 6.7609,-4.3266 6.7609,-4.8674 0.9015,-1.8929 3.6058,-1.2619 4.7777,-0.1803 2.8848,0 11.2682,6.3096 13.612,8.6531 3.2454,2.5239 8.654,4.5069 11.1781,7.2109 0,-2.6138 -0.1803,-3.6955 -2.1634,-5.7686 -1.4424,-1.4423 -3.6059,-3.6056 -5.4089,-4.6872 -5.7693,-3.2449 -11.8091,-9.7347 -11.8091,-14.1513 -2.7042,0 -1.893,7.6615 -7.3017,4.6869 0.8112,-1.6225 2.2535,-5.5884 4.4171,-6.67 5.1383,-2.614 8.023,8.1123 14.3333,1.2618 -1.4424,-1.6224 -3.2454,-2.3435 -5.0483,-0.5407 -1.8029,-0.9915 -11.5386,-3.5154 -7.482,-7.5715 -1.2621,-1.2619 3.0649,-8.473 3.8762,-9.6446 1.4424,-1.8027 -0.7212,-8.9235 6.1298,-8.9235 0,-0.4507 3.9666,-2.1633 4.6877,-2.7042 1.4423,-0.4506 12.8908,-2.614003 8.6539,-4.687103 -4.958,4.236503 -9.1948,1.5323 -13.3416,2.614 -2.6141,0.630903 -11.809,0.630903 -13.6119,-2.0732 -2.9748,1.7126 3.8763,6.850503 3.8763,9.194003 0,2.9745 0,4.9576 -2.0734,7.8418 -2.8846,4.0562 -1.8029,9.6447 -4.4171,13.9713 -0.7212,1.0816 -1.0818,7.5714 -3.9664,7.5714 0,1.352 -10.0063,3.1548 -11.8091,3.1548 -5.4088,0 -3.2453,1.2619 -6.4906,2.8844 -1.8028,-0.3606 -7.1215,-1.4422 -7.1215,-2.8844 -0.3605,0 -5.7693,-3.0646 -5.7693,-3.1548 -2.5241,0 -3.9665,-4.1462 -4.5975,-4.9574 -2.9747,-2.7943 -3.6058,-6.7604 -6.4904,-9.6447 0.3606,-0.3606 0.2703,-4.9575 0,-5.3181 -2.5241,-3.6054 1.8029,-6.3096 3.2452,-9.4643 1.3522,-3.4253 1.3522,-8.833503 12.5302,-6.2194 -0.3605,0.3605 -1.0817,0.7211 -0.7211,0.7211 -2.1636,1.0816 -4.327,2.2533 -5.7693,3.6055 -1.3523,1.4421 -3.4256,8.3827 -3.4256,8.3827 l 0,4.7771 1.5325,6.5801 4.1467,4.4166 c 0,0 5.4087,5.7687 5.3186,6.3997 0,0.631 5.499,1.8028 5.6792,0 0,0 6.4906,-2.8842 8.4738,-2.8842 l 6.9411,0 c 0,0 4.0567,-3.7859 4.1467,-3.7859 -0.09,0 2.7946,-7.5715 2.7946,-7.5715 l 1.5324,-7.9319 3.1552,-4.4167 -3.2453,-7.5715 z"
         id="path72"
         style="fill:#66ccce;fill-opacity:1;fill-rule:nonzero;stroke:none"
         inkscape:connector-curvature="0" /><path
         d="m 194.71418,108.6062 c -2.7946,-1.262 -15.2346,-5.4083 -15.2346,-2.2536 0,1.6225 -2.9749,3.1549 -2.9749,4.7774 -2.0734,0 -1.7127,2.704 -1.3522,3.2447 -2.5241,2.7042 0,7.4815 1.803,10.0053 0.3605,0.7211 2.5241,5.0477 4.5974,5.0477 0,0.3605 6.13,4.0562 6.4905,3.9659 1.3522,-0.7209 1.7128,-3.6054 5.4088,-2.3435 2.7043,1.0817 10.9977,-2.7041 10.9977,-4.3266 0,-3.4251 5.3187,-5.949 1.8029,-9.4644 l 0,-0.3605 c 3.1552,-3.2449 -1.0817,-9.8249 -3.2452,-12.619 -1.803,-2.3436 -4.6876,-4.506903 -9.285,-4.506903 0,-3.876 -10.0063,-1.4421 -10.3667,1.081603 0,2.5239 8.3834,2.3436 10.3667,2.3436 0,0.3606 2.7946,1.4421 3.5156,1.8028 0.541,-0.7211 1.4424,-1.0817 2.8847,-0.3607 l -0.7211,0.8113 c 0.3605,0.2705 1.0817,0.6309 1.8028,0.6309 0,1.8929 0.7213,3.7858 2.1636,5.228 0,2.5238 0.9014,10.4558 -0.3606,11.8079 -1.803,1.8028 -5.0481,3.0647 -6.8511,4.8673 -1.0818,1.0817 -10.6372,-2.1633 -12.4402,-2.5237 -6.1297,-1.4423 -6.7608,-7.4814 -4.5974,-10.1855 0.6311,-1.0816 0.9916,-2.704 2.434,-3.6054 0.4507,-0.1804 2.8847,-1.0817 2.8847,-1.262 5.7693,0 2.434,3.0647 4.1467,6.3997 2.2536,4.3266 0.631,0.7211 7.7526,0.631 0,1.0816 1.2619,2.6139 -0.1804,3.335 -2.4339,-2.5238 -6.7609,1.4422 -9.5554,-2.3436 -0.7211,-1.1718 0.3606,-7.8418 -2.8848,-3.5154 -0.6309,1.0818 -1.0817,8.7434 4.3271,7.4815 9.9161,5.0476 13.5219,-3.2451 10.6372,-7.1208 -1.0818,-1.8027 -1.0818,-5.228 -3.9664,-6.67 z"
         id="path74"
         style="fill:#627078;fill-opacity:1;fill-rule:nonzero;stroke:none"
         inkscape:connector-curvature="0" /></g></g></svg>