<?xml version="1.0" encoding="UTF-8" standalone="no"?>
<!-- Created with Inkscape (http://www.inkscape.org/) -->

<svg
   xmlns:dc="http://purl.org/dc/elements/1.1/"
   xmlns:cc="http://creativecommons.org/ns#"
   xmlns:rdf="http://www.w3.org/1999/02/22-rdf-syntax-ns#"
   xmlns:svg="http://www.w3.org/2000/svg"
   xmlns="http://www.w3.org/2000/svg"
   xmlns:sodipodi="http://sodipodi.sourceforge.net/DTD/sodipodi-0.dtd"
   xmlns:inkscape="http://www.inkscape.org/namespaces/inkscape"
   width="148mm"
   height="105mm"
   viewBox="0 0 148 105"
   version="1.1"
   id="svg8"
   inkscape:version="0.92.2 2405546, 2018-03-11"
   sodipodi:docname="20181218000000-0004a--segunda_libretillo_policia_local_gijon-xega-spa.inkscape.svg">
  <defs
     id="defs2" />
  <sodipodi:namedview
     id="base"
     pagecolor="#ffffff"
     bordercolor="#666666"
     borderopacity="1.0"
     inkscape:pageopacity="0.0"
     inkscape:pageshadow="2"
     inkscape:zoom="1.4"
     inkscape:cx="-5.3902442"
     inkscape:cy="124.37052"
     inkscape:document-units="mm"
     inkscape:current-layer="layer1"
     showgrid="false"
     borderlayer="true"
     inkscape:window-width="1366"
     inkscape:window-height="713"
     inkscape:window-x="0"
     inkscape:window-y="0"
     inkscape:window-maximized="1" />
  <metadata
     id="metadata5">
    <rdf:RDF>
      <cc:Work
         rdf:about="">
        <dc:format>image/svg+xml</dc:format>
        <dc:type
           rdf:resource="http://purl.org/dc/dcmitype/StillImage" />
        <dc:title />
      </cc:Work>
    </rdf:RDF>
  </metadata>
  <g
     inkscape:label="Capa 1"
     inkscape:groupmode="layer"
     id="layer1"
     transform="translate(0,-192)">
    <text
       xml:space="preserve"
       style="font-style:normal;font-variant:normal;font-weight:normal;font-stretch:normal;font-size:3.52777767px;line-height:100%;font-family:'Liberation Sans Narrow';-inkscape-font-specification:'Liberation Sans Narrow';letter-spacing:0px;word-spacing:0px;fill:#000000;fill-opacity:1;stroke:none;stroke-width:0.26458332px;stroke-linecap:butt;stroke-linejoin:miter;stroke-opacity:1"
       x="5.695518"
       y="235.25333"
       id="text817"><tspan
         sodipodi:role="line"
         id="tspan815"
         x="5.695518"
         y="235.25333"
         style="line-height:100%;stroke-width:0.26458332px">Edita: Asociación XEGA, 2018</tspan><tspan
         sodipodi:role="line"
         x="5.695518"
         y="238.7811"
         style="line-height:100%;stroke-width:0.26458332px"
         id="tspan1010">Diseño y maquetación:</tspan><tspan
         sodipodi:role="line"
         x="5.695518"
         y="242.30888"
         style="line-height:100%;stroke-width:0.26458332px"
         id="tspan2140">Ilustraciones: Iván García, www.ig-studio.com</tspan><tspan
         sodipodi:role="line"
         x="5.695518"
         y="245.83665"
         style="line-height:100%;stroke-width:0.26458332px"
         id="tspan2144">Imprime: Imprenta Prisma Color, Gijón</tspan><tspan
         sodipodi:role="line"
         x="5.695518"
         y="249.36444"
         style="line-height:100%;stroke-width:0.26458332px"
         id="tspan2148">Depósito Legal: AS 04456-2018</tspan></text>
    <g
       id="g3496"
       transform="matrix(0.79296809,0,0,0.79296809,-68.922517,64.317229)">
      <g
         id="text2383"
         style="font-style:normal;font-weight:normal;font-size:10.58333302px;line-height:1.25;font-family:sans-serif;letter-spacing:0px;word-spacing:0px;fill:#000000;fill-opacity:1;stroke:none;stroke-width:0.26458332"
         aria-label="Colabora"
         transform="translate(-243.54132,-3.4173904)">
        <path
           id="path2447"
           style="font-style:normal;font-variant:normal;font-weight:normal;font-stretch:normal;font-size:4.23333311px;font-family:'Liberation Sans';-inkscape-font-specification:'Liberation Sans';fill:#000000;stroke-width:0.26458332"
           d="m 339.36291,268.36883 q -0.48369,0 -0.75241,0.31212 -0.26872,0.31006 -0.26872,0.85163 0,0.53537 0.27906,0.86196 0.28112,0.32453 0.75861,0.32453 0.61184,0 0.91984,-0.60565 l 0.32246,0.16123 q -0.17984,0.37621 -0.50643,0.57258 -0.32453,0.19637 -0.75448,0.19637 -0.44028,0 -0.76274,-0.1819 -0.3204,-0.18397 -0.48989,-0.52297 -0.16744,-0.34106 -0.16744,-0.80615 0,-0.6966 0.37621,-1.09141 0.3762,-0.3948 1.04179,-0.3948 0.46509,0 0.77722,0.1819 0.31212,0.1819 0.45888,0.5395 l -0.37413,0.12402 q -0.10129,-0.25425 -0.3266,-0.3886 -0.22324,-0.13436 -0.53123,-0.13436 z"
           inkscape:connector-curvature="0" />
        <path
           id="path2449"
           style="font-style:normal;font-variant:normal;font-weight:normal;font-stretch:normal;font-size:4.23333311px;font-family:'Liberation Sans';-inkscape-font-specification:'Liberation Sans';fill:#000000;stroke-width:0.26458332"
           d="m 342.96166,269.88191 q 0,0.58705 -0.25839,0.87437 -0.25838,0.28732 -0.75034,0.28732 -0.48989,0 -0.74,-0.29766 -0.25012,-0.29972 -0.25012,-0.86403 0,-1.15755 1.00252,-1.15755 0.51263,0 0.75448,0.28319 0.24185,0.28112 0.24185,0.87436 z m -0.39068,0 q 0,-0.46302 -0.13849,-0.67179 -0.13643,-0.21084 -0.46095,-0.21084 -0.3266,0 -0.47336,0.21497 -0.1447,0.21291 -0.1447,0.66766 0,0.44235 0.14263,0.6656 0.1447,0.22117 0.45269,0.22117 0.33486,0 0.47749,-0.21497 0.14469,-0.21498 0.14469,-0.6718 z"
           inkscape:connector-curvature="0" />
        <path
           id="path2451"
           style="font-style:normal;font-variant:normal;font-weight:normal;font-stretch:normal;font-size:4.23333311px;font-family:'Liberation Sans';-inkscape-font-specification:'Liberation Sans';fill:#000000;stroke-width:0.26458332"
           d="m 343.42674,271.00226 v -3.06751 h 0.37207 v 3.06751 z"
           inkscape:connector-curvature="0" />
        <path
           id="path2453"
           style="font-style:normal;font-variant:normal;font-weight:normal;font-stretch:normal;font-size:4.23333311px;font-family:'Liberation Sans';-inkscape-font-specification:'Liberation Sans';fill:#000000;stroke-width:0.26458332"
           d="m 344.93983,271.0436 q -0.33693,0 -0.50643,-0.17777 -0.1695,-0.17776 -0.1695,-0.48782 0,-0.34727 0.22738,-0.5333 0.22944,-0.18604 0.73794,-0.19844 l 0.50229,-0.008 v -0.12196 q 0,-0.27285 -0.11575,-0.39067 -0.11576,-0.11782 -0.36381,-0.11782 -0.25011,0 -0.3638,0.0848 -0.11369,0.0847 -0.13642,0.27078 l -0.38861,-0.0351 q 0.0951,-0.60358 0.8971,-0.60358 0.42168,0 0.63459,0.1943 0.21291,0.19224 0.21291,0.55811 v 0.96325 q 0,0.16536 0.0434,0.25011 0.0434,0.0827 0.16537,0.0827 0.0537,0 0.12196,-0.0145 v 0.23151 q -0.14056,0.0331 -0.28733,0.0331 -0.2067,0 -0.30179,-0.10749 -0.093,-0.10955 -0.10542,-0.34106 h -0.0124 q -0.14263,0.25631 -0.33279,0.3638 -0.18811,0.10542 -0.45889,0.10542 z m 0.0848,-0.27905 q 0.20464,0 0.3638,-0.093 0.15916,-0.093 0.25011,-0.25425 0.093,-0.1633 0.093,-0.33486 v -0.18397 l -0.40721,0.008 q -0.26251,0.004 -0.39894,0.0537 -0.13436,0.0496 -0.20671,0.15296 -0.0723,0.10336 -0.0723,0.27079 0,0.1819 0.0971,0.28112 0.0992,0.0992 0.28112,0.0992 z"
           inkscape:connector-curvature="0" />
        <path
           id="path2455"
           style="font-style:normal;font-variant:normal;font-weight:normal;font-stretch:normal;font-size:4.23333311px;font-family:'Liberation Sans';-inkscape-font-specification:'Liberation Sans';fill:#000000;stroke-width:0.26458332"
           d="m 348.61712,269.87365 q 0,1.16995 -0.82268,1.16995 -0.25425,0 -0.42375,-0.091 -0.16743,-0.093 -0.27285,-0.29766 h -0.004 q 0,0.0641 -0.008,0.19637 -0.008,0.13023 -0.0124,0.1509 h -0.35967 q 0.0124,-0.11162 0.0124,-0.46096 v -2.60655 h 0.37207 v 0.87436 q 0,0.13436 -0.008,0.31626 h 0.008 q 0.10335,-0.21497 0.27285,-0.30799 0.17156,-0.093 0.42375,-0.093 0.42374,0 0.62218,0.28526 0.2005,0.28525 0.2005,0.86403 z m -0.39067,0.0124 q 0,-0.46922 -0.12402,-0.6718 -0.12403,-0.20257 -0.40308,-0.20257 -0.31419,0 -0.45889,0.21498 -0.14262,0.21497 -0.14262,0.68213 0,0.44028 0.14056,0.65112 0.14056,0.20877 0.45682,0.20877 0.28112,0 0.40514,-0.2067 0.12609,-0.20878 0.12609,-0.67593 z"
           inkscape:connector-curvature="0" />
        <path
           id="path2457"
           style="font-style:normal;font-variant:normal;font-weight:normal;font-stretch:normal;font-size:4.23333311px;font-family:'Liberation Sans';-inkscape-font-specification:'Liberation Sans';fill:#000000;stroke-width:0.26458332"
           d="m 350.97357,269.88191 q 0,0.58705 -0.25838,0.87437 -0.25839,0.28732 -0.75035,0.28732 -0.48989,0 -0.74,-0.29766 -0.25012,-0.29972 -0.25012,-0.86403 0,-1.15755 1.00253,-1.15755 0.51263,0 0.75447,0.28319 0.24185,0.28112 0.24185,0.87436 z m -0.39068,0 q 0,-0.46302 -0.13849,-0.67179 -0.13642,-0.21084 -0.46095,-0.21084 -0.3266,0 -0.47336,0.21497 -0.14469,0.21291 -0.14469,0.66766 0,0.44235 0.14262,0.6656 0.1447,0.22117 0.45269,0.22117 0.33486,0 0.47749,-0.21497 0.14469,-0.21498 0.14469,-0.6718 z"
           inkscape:connector-curvature="0" />
        <path
           id="path2459"
           style="font-style:normal;font-variant:normal;font-weight:normal;font-stretch:normal;font-size:4.23333311px;font-family:'Liberation Sans';-inkscape-font-specification:'Liberation Sans';fill:#000000;stroke-width:0.26458332"
           d="m 351.44692,271.00226 v -1.71566 q 0,-0.23564 -0.0124,-0.5209 h 0.3514 q 0.0165,0.38034 0.0165,0.45682 h 0.008 q 0.0889,-0.28732 0.20464,-0.39274 0.11575,-0.10542 0.32659,-0.10542 0.0744,0 0.1509,0.0207 v 0.34107 q -0.0744,-0.0207 -0.19844,-0.0207 -0.23151,0 -0.35347,0.2005 -0.12196,0.19844 -0.12196,0.57051 v 1.16582 z"
           inkscape:connector-curvature="0" />
        <path
           id="path2461"
           style="font-style:normal;font-variant:normal;font-weight:normal;font-stretch:normal;font-size:4.23333311px;font-family:'Liberation Sans';-inkscape-font-specification:'Liberation Sans';fill:#000000;stroke-width:0.26458332"
           d="m 353.42303,271.0436 q -0.33693,0 -0.50643,-0.17777 -0.1695,-0.17776 -0.1695,-0.48782 0,-0.34727 0.22738,-0.5333 0.22944,-0.18604 0.73794,-0.19844 l 0.50229,-0.008 v -0.12196 q 0,-0.27285 -0.11575,-0.39067 -0.11576,-0.11782 -0.3638,-0.11782 -0.25012,0 -0.36381,0.0848 -0.11368,0.0847 -0.13642,0.27078 l -0.38861,-0.0351 q 0.0951,-0.60358 0.8971,-0.60358 0.42168,0 0.63459,0.1943 0.21291,0.19224 0.21291,0.55811 v 0.96325 q 0,0.16536 0.0434,0.25011 0.0434,0.0827 0.16536,0.0827 0.0537,0 0.12196,-0.0145 v 0.23151 q -0.14056,0.0331 -0.28732,0.0331 -0.20671,0 -0.30179,-0.10749 -0.093,-0.10955 -0.10542,-0.34106 h -0.0124 q -0.14262,0.25631 -0.33279,0.3638 -0.1881,0.10542 -0.45889,0.10542 z m 0.0848,-0.27905 q 0.20464,0 0.3638,-0.093 0.15917,-0.093 0.25012,-0.25425 0.093,-0.1633 0.093,-0.33486 v -0.18397 l -0.40721,0.008 q -0.26251,0.004 -0.39894,0.0537 -0.13436,0.0496 -0.2067,0.15296 -0.0724,0.10336 -0.0724,0.27079 0,0.1819 0.0971,0.28112 0.0992,0.0992 0.28112,0.0992 z"
           inkscape:connector-curvature="0" />
      </g>
      <path
         inkscape:connector-curvature="0"
         id="path2403-8"
         d="m 94.399444,268.41907 c 69.508996,0 69.508996,0 69.508996,0"
         style="fill:none;stroke:#000000;stroke-width:0.273;stroke-linecap:butt;stroke-linejoin:miter;stroke-miterlimit:4;stroke-dasharray:none;stroke-opacity:1" />
    </g>
    <g
       id="g3459"
       transform="matrix(0.79296809,0,0,0.79296809,-0.15548052,43.721972)">
      <g
         transform="matrix(0.0331999,0,0,0.0331999,7.67838,269.45532)"
         id="g1902"
         style="overflow:visible">
        <g
           id="g1825">
          <polygon
             style="clip-rule:evenodd;fill-rule:evenodd"
             points="11.338,437.387 11.338,460.534 7.838,460.534 7.838,437.387 2.677,437.387 2.677,432.68 16.499,432.68 16.499,437.387 "
             id="polygon1691" />
          <path
             style="clip-rule:evenodd;fill-rule:evenodd"
             inkscape:connector-curvature="0"
             d="m 22.253,444.467 h 2.609 c 1.595,0 2.61,-0.092 3.044,-0.275 0.435,-0.185 0.788,-0.556 1.059,-1.113 0.271,-0.559 0.406,-1.301 0.406,-2.228 0,-0.888 -0.135,-1.602 -0.406,-2.141 -0.271,-0.54 -0.638,-0.911 -1.102,-1.114 -0.329,-0.139 -1.281,-0.209 -2.856,-0.209 h -2.754 z m -3.5,16.067 V 432.68 h 7.401 c 1.893,0 3.244,0.25 4.055,0.751 0.811,0.5 1.477,1.367 1.999,2.603 0.521,1.234 0.782,2.713 0.782,4.436 0,2.179 -0.398,3.933 -1.195,5.263 -0.797,1.329 -1.929,2.165 -3.397,2.507 0.754,0.71 1.377,1.487 1.87,2.33 0.493,0.844 1.167,2.354 2.021,4.532 l 2.126,5.433 h -4.208 l -2.549,-6.058 c -0.917,-2.189 -1.541,-3.562 -1.869,-4.114 -0.329,-0.554 -0.676,-0.935 -1.043,-1.145 -0.367,-0.21 -0.956,-0.315 -1.768,-0.315 h -0.724 v 11.632 h -3.501 z"
             id="path1693" />
          <path
             style="clip-rule:evenodd;fill-rule:evenodd"
             inkscape:connector-curvature="0"
             d="m 45.546,449.525 -2.413,-10.343 -2.363,10.343 z m 6.441,11.009 H 48.18 l -1.489,-6.302 h -6.996 l -1.44,6.302 h -3.737 l 6.768,-27.854 h 3.745 z"
             id="path1695" />
          <polygon
             style="clip-rule:evenodd;fill-rule:evenodd"
             points="53.9,460.534 53.9,432.68 57.309,432.68 64.459,451.281 64.459,432.68 67.722,432.68 67.722,460.534 64.197,460.534 57.163,442.371 57.163,460.534 "
             id="polygon1697" />
          <path
             style="clip-rule:evenodd;fill-rule:evenodd"
             inkscape:connector-curvature="0"
             d="m 70.495,451.47 3.411,-0.545 c 0.387,3.553 1.657,5.329 3.808,5.329 1.065,0 1.903,-0.363 2.514,-1.091 0.61,-0.727 0.916,-1.628 0.916,-2.702 0,-0.633 -0.106,-1.17 -0.32,-1.612 -0.213,-0.443 -0.539,-0.807 -0.975,-1.091 -0.437,-0.284 -1.491,-0.762 -3.163,-1.433 -1.498,-0.594 -2.595,-1.239 -3.291,-1.936 -0.696,-0.695 -1.249,-1.609 -1.66,-2.742 -0.411,-1.133 -0.616,-2.35 -0.616,-3.652 0,-1.519 0.264,-2.886 0.791,-4.1 0.527,-1.215 1.255,-2.133 2.185,-2.752 0.929,-0.62 2.076,-0.931 3.44,-0.931 2.052,0 3.654,0.729 4.805,2.187 1.152,1.458 1.761,3.543 1.829,6.255 l -3.53,0.233 c -0.155,-1.486 -0.489,-2.525 -1.003,-3.118 -0.514,-0.592 -1.247,-0.888 -2.197,-0.888 -0.95,0 -1.683,0.256 -2.197,0.769 -0.514,0.513 -0.771,1.15 -0.771,1.914 0,0.751 0.235,1.383 0.707,1.896 0.472,0.513 1.542,1.085 3.21,1.717 1.765,0.684 3.042,1.396 3.829,2.136 0.788,0.74 1.389,1.696 1.804,2.866 0.415,1.171 0.623,2.591 0.623,4.262 0,2.416 -0.567,4.447 -1.702,6.092 -1.135,1.645 -2.909,2.467 -5.322,2.467 -4.267,0 -6.642,-3.176 -7.125,-9.53 z"
             id="path1699" />
          <polygon
             style="clip-rule:evenodd;fill-rule:evenodd"
             points="100.507,432.68 100.507,437.387 91.105,437.387 91.105,443.534 99.855,443.534 99.855,448.241 91.105,448.241 91.105,455.827 100.833,455.827 100.833,460.534 87.605,460.534 87.605,432.68 "
             id="polygon1701" />
          <polygon
             style="clip-rule:evenodd;fill-rule:evenodd"
             points="102.609,432.68 106.711,432.68 110.151,440.99 113.597,432.68 117.677,432.68 112.221,445.992 118.24,460.534 114.037,460.534 110.147,451.051 106.26,460.534 102.046,460.534 108.074,446 "
             id="polygon1703" />
          <path
             style="clip-rule:evenodd;fill-rule:evenodd"
             inkscape:connector-curvature="0"
             d="m 120.016,432.68 h 3.5 v 15.069 c 0,2.342 0.043,3.866 0.131,4.574 0.155,1.228 0.527,2.177 1.115,2.848 0.588,0.67 1.363,1.006 2.326,1.006 0.816,0 1.481,-0.237 1.997,-0.712 0.515,-0.475 0.867,-1.133 1.057,-1.975 0.19,-0.841 0.285,-2.647 0.285,-5.418 V 432.68 h 3.5 v 14.626 c 0,3.735 -0.152,6.436 -0.457,8.101 -0.305,1.665 -0.991,3.014 -2.06,4.046 -1.068,1.032 -2.478,1.548 -4.228,1.548 -1.818,0 -3.237,-0.427 -4.257,-1.282 -1.021,-0.854 -1.76,-2.058 -2.219,-3.609 -0.459,-1.551 -0.689,-4.409 -0.689,-8.575 V 432.68 Z"
             id="path1705" />
          <path
             style="clip-rule:evenodd;fill-rule:evenodd"
             inkscape:connector-curvature="0"
             d="m 146.839,449.525 -2.413,-10.343 -2.363,10.343 z m 6.441,11.009 h -3.807 l -1.489,-6.302 h -6.996 l -1.44,6.302 h -3.737 l 6.768,-27.854 h 3.745 z"
             id="path1707" />
          <polygon
             style="clip-rule:evenodd;fill-rule:evenodd"
             points="158.693,432.914 158.693,455.827 167.443,455.827 167.443,460.534 155.193,460.534 155.193,432.914 "
             id="polygon1709" />
          <polygon
             style="clip-rule:evenodd;fill-rule:evenodd"
             points="182.866,432.68 182.866,437.387 173.463,437.387 173.463,443.534 182.213,443.534 182.213,448.241 173.463,448.241 173.463,455.827 183.192,455.827 183.192,460.534 169.964,460.534 169.964,432.68 "
             id="polygon1711" />
          <path
             style="clip-rule:evenodd;fill-rule:evenodd"
             inkscape:connector-curvature="0"
             d="m 185.294,451.47 3.411,-0.545 c 0.387,3.553 1.657,5.329 3.808,5.329 1.065,0 1.903,-0.363 2.514,-1.091 0.61,-0.727 0.916,-1.628 0.916,-2.702 0,-0.633 -0.106,-1.17 -0.32,-1.612 -0.213,-0.443 -0.538,-0.807 -0.975,-1.091 -0.437,-0.284 -1.491,-0.762 -3.163,-1.433 -1.498,-0.594 -2.595,-1.239 -3.291,-1.936 -0.696,-0.695 -1.249,-1.609 -1.66,-2.742 -0.411,-1.133 -0.616,-2.35 -0.616,-3.652 0,-1.519 0.264,-2.886 0.791,-4.1 0.527,-1.215 1.256,-2.133 2.185,-2.752 0.929,-0.62 2.076,-0.931 3.441,-0.931 2.052,0 3.653,0.729 4.805,2.187 1.152,1.458 1.762,3.543 1.829,6.255 l -3.529,0.233 c -0.155,-1.486 -0.49,-2.525 -1.004,-3.118 -0.514,-0.592 -1.247,-0.888 -2.197,-0.888 -0.95,0 -1.683,0.256 -2.197,0.769 -0.514,0.513 -0.771,1.15 -0.771,1.914 0,0.751 0.236,1.383 0.707,1.896 0.471,0.513 1.542,1.085 3.21,1.717 1.765,0.684 3.042,1.396 3.829,2.136 0.788,0.74 1.389,1.696 1.804,2.866 0.416,1.171 0.623,2.591 0.623,4.262 0,2.416 -0.567,4.447 -1.702,6.092 -1.134,1.646 -2.908,2.468 -5.322,2.468 -4.269,-10e-4 -6.643,-3.177 -7.126,-9.531 z"
             id="path1713" />
          <polygon
             style="clip-rule:evenodd;fill-rule:evenodd"
             points="219.176,432.68 223.246,432.68 216.869,448.797 216.869,460.534 213.369,460.534 213.369,448.759 206.992,432.68 211.064,432.68 215.159,443.625 "
             id="polygon1715" />
          <path
             style="clip-rule:evenodd;fill-rule:evenodd"
             inkscape:connector-curvature="0"
             d="m 234.918,448.397 v 7.43 h 3.272 c 1.435,0 2.356,-0.098 2.763,-0.294 0.407,-0.195 0.749,-0.581 1.025,-1.156 0.276,-0.574 0.415,-1.305 0.415,-2.188 0,-0.91 -0.148,-1.659 -0.444,-2.247 -0.295,-0.587 -0.688,-0.992 -1.178,-1.213 -0.49,-0.221 -1.491,-0.331 -3.003,-0.331 h -2.85 z m 0,-11.087 v 6.457 h 2.333 c 1.399,0 2.264,-0.031 2.595,-0.096 0.603,-0.126 1.074,-0.46 1.414,-0.999 0.34,-0.54 0.51,-1.273 0.51,-2.2 0,-0.826 -0.139,-1.496 -0.416,-2.01 -0.277,-0.515 -0.612,-0.835 -1.006,-0.962 -0.394,-0.127 -1.523,-0.19 -3.389,-0.19 z m -3.5,-4.63 h 6.983 c 1.907,0 3.247,0.229 4.021,0.685 0.774,0.456 1.428,1.261 1.96,2.414 0.532,1.153 0.798,2.459 0.798,3.917 0,1.343 -0.226,2.557 -0.679,3.64 -0.453,1.084 -1.041,1.886 -1.763,2.404 1.024,0.481 1.826,1.305 2.405,2.47 0.579,1.164 0.868,2.582 0.868,4.254 0,2.025 -0.372,3.737 -1.116,5.137 -0.744,1.398 -1.623,2.263 -2.638,2.592 -0.705,0.228 -2.342,0.342 -4.912,0.342 h -5.927 z"
             id="path1717" />
          <rect
             style="clip-rule:evenodd;fill-rule:evenodd"
             x="248.84399"
             y="432.67999"
             width="3.5"
             height="27.854"
             id="rect1719" />
          <path
             style="clip-rule:evenodd;fill-rule:evenodd"
             inkscape:connector-curvature="0"
             d="m 254.826,451.47 3.411,-0.545 c 0.387,3.553 1.656,5.329 3.808,5.329 1.065,0 1.903,-0.363 2.514,-1.091 0.61,-0.727 0.916,-1.628 0.916,-2.702 0,-0.633 -0.107,-1.17 -0.32,-1.612 -0.213,-0.443 -0.539,-0.807 -0.975,-1.091 -0.436,-0.284 -1.491,-0.762 -3.163,-1.433 -1.498,-0.594 -2.595,-1.239 -3.291,-1.936 -0.696,-0.695 -1.249,-1.609 -1.66,-2.742 -0.411,-1.133 -0.616,-2.35 -0.616,-3.652 0,-1.519 0.264,-2.886 0.791,-4.1 0.527,-1.215 1.256,-2.133 2.185,-2.752 0.929,-0.62 2.076,-0.931 3.44,-0.931 2.052,0 3.653,0.729 4.805,2.187 1.152,1.458 1.761,3.543 1.829,6.255 l -3.53,0.233 c -0.155,-1.486 -0.489,-2.525 -1.004,-3.118 -0.514,-0.592 -1.246,-0.888 -2.197,-0.888 -0.951,0 -1.683,0.256 -2.197,0.769 -0.514,0.513 -0.771,1.15 -0.771,1.914 0,0.751 0.235,1.383 0.707,1.896 0.472,0.513 1.542,1.085 3.21,1.717 1.765,0.684 3.042,1.396 3.829,2.136 0.787,0.74 1.389,1.696 1.804,2.866 0.416,1.171 0.623,2.591 0.623,4.262 0,2.416 -0.567,4.447 -1.702,6.092 -1.134,1.646 -2.908,2.468 -5.322,2.468 -4.267,-10e-4 -6.642,-3.177 -7.124,-9.531 z"
             id="path1721" />
          <polygon
             style="clip-rule:evenodd;fill-rule:evenodd"
             points="284.838,432.68 284.838,437.387 275.436,437.387 275.436,443.534 284.185,443.534 284.185,448.241 275.436,448.241 275.436,455.827 285.164,455.827 285.164,460.534 271.936,460.534 271.936,432.68 "
             id="polygon1723" />
          <polygon
             style="clip-rule:evenodd;fill-rule:evenodd"
             points="286.94,432.68 291.042,432.68 294.481,440.99 297.927,432.68 302.007,432.68 296.551,445.992 302.571,460.534 298.367,460.534 294.477,451.051 290.59,460.534 286.376,460.534 292.404,446 "
             id="polygon1725" />
          <path
             style="clip-rule:evenodd;fill-rule:evenodd"
             inkscape:connector-curvature="0"
             d="m 304.347,432.68 h 3.5 v 15.069 c 0,2.342 0.044,3.866 0.131,4.574 0.156,1.228 0.527,2.177 1.115,2.848 0.588,0.67 1.363,1.006 2.326,1.006 0.816,0 1.482,-0.237 1.997,-0.712 0.516,-0.475 0.868,-1.133 1.057,-1.975 0.19,-0.841 0.285,-2.647 0.285,-5.418 V 432.68 h 3.5 v 14.626 c 0,3.735 -0.152,6.436 -0.457,8.101 -0.305,1.665 -0.991,3.014 -2.06,4.046 -1.069,1.032 -2.479,1.548 -4.229,1.548 -1.818,0 -3.237,-0.427 -4.257,-1.282 -1.021,-0.854 -1.76,-2.058 -2.219,-3.609 -0.459,-1.551 -0.689,-4.409 -0.689,-8.575 z"
             id="path1727" />
          <path
             style="clip-rule:evenodd;fill-rule:evenodd"
             inkscape:connector-curvature="0"
             d="m 331.17,449.525 -2.413,-10.343 -2.363,10.343 z m 6.44,11.009 h -3.807 l -1.49,-6.302 h -6.996 l -1.44,6.302 h -3.737 l 6.768,-27.854 h 3.745 z"
             id="path1729" />
          <polygon
             style="clip-rule:evenodd;fill-rule:evenodd"
             points="343.023,432.914 343.023,455.827 351.773,455.827 351.773,460.534 339.524,460.534 339.524,432.914 "
             id="polygon1731" />
          <polygon
             style="clip-rule:evenodd;fill-rule:evenodd"
             points="367.196,432.68 367.196,437.387 357.794,437.387 357.794,443.534 366.543,443.534 366.543,448.241 357.794,448.241 357.794,455.827 367.522,455.827 367.522,460.534 354.294,460.534 354.294,432.68 "
             id="polygon1733" />
          <path
             style="clip-rule:evenodd;fill-rule:evenodd"
             inkscape:connector-curvature="0"
             d="m 369.625,451.47 3.411,-0.545 c 0.388,3.553 1.656,5.329 3.808,5.329 1.065,0 1.903,-0.363 2.514,-1.091 0.61,-0.727 0.916,-1.628 0.916,-2.702 0,-0.633 -0.107,-1.17 -0.32,-1.612 -0.214,-0.443 -0.539,-0.807 -0.976,-1.091 -0.437,-0.284 -1.491,-0.762 -3.163,-1.433 -1.498,-0.594 -2.595,-1.239 -3.291,-1.936 -0.696,-0.695 -1.249,-1.609 -1.66,-2.742 -0.411,-1.133 -0.616,-2.35 -0.616,-3.652 0,-1.519 0.264,-2.886 0.791,-4.1 0.527,-1.215 1.256,-2.133 2.185,-2.752 0.929,-0.62 2.076,-0.931 3.44,-0.931 2.052,0 3.653,0.729 4.806,2.187 1.151,1.458 1.761,3.543 1.829,6.255 l -3.53,0.233 c -0.155,-1.486 -0.489,-2.525 -1.003,-3.118 -0.514,-0.592 -1.247,-0.888 -2.197,-0.888 -0.95,0 -1.683,0.256 -2.197,0.769 -0.514,0.513 -0.771,1.15 -0.771,1.914 0,0.751 0.235,1.383 0.707,1.896 0.471,0.513 1.541,1.085 3.21,1.717 1.766,0.684 3.042,1.396 3.829,2.136 0.787,0.74 1.389,1.696 1.804,2.866 0.416,1.171 0.623,2.591 0.623,4.262 0,2.416 -0.567,4.447 -1.702,6.092 -1.134,1.646 -2.908,2.468 -5.322,2.468 -4.268,-10e-4 -6.643,-3.177 -7.125,-9.531 z"
             id="path1735" />
          <path
             style="clip-rule:evenodd;fill-rule:evenodd"
             inkscape:connector-curvature="0"
             d="m 396.958,437.387 v 18.439 h 2.642 c 1.133,0 1.952,-0.14 2.46,-0.418 0.508,-0.278 0.924,-0.699 1.248,-1.263 0.324,-0.564 0.593,-1.453 0.806,-2.668 0.213,-1.216 0.319,-2.817 0.319,-4.805 0,-2.063 -0.108,-3.69 -0.327,-4.88 -0.217,-1.19 -0.556,-2.127 -1.016,-2.811 -0.459,-0.685 -1.018,-1.134 -1.676,-1.349 -0.494,-0.164 -1.447,-0.247 -2.859,-0.247 h -1.597 z m -3.5,-4.707 h 6.412 c 1.622,0 2.845,0.237 3.67,0.713 0.825,0.475 1.586,1.275 2.28,2.403 0.695,1.127 1.24,2.59 1.636,4.389 0.396,1.799 0.594,4.034 0.594,6.707 0,2.406 -0.207,4.5 -0.622,6.279 -0.415,1.779 -0.94,3.188 -1.578,4.228 -0.637,1.039 -1.407,1.821 -2.31,2.347 -0.901,0.525 -2.063,0.788 -3.48,0.788 h -6.602 z"
             id="path1737" />
          <polygon
             style="clip-rule:evenodd;fill-rule:evenodd"
             points="423.933,432.68 423.933,437.387 414.532,437.387 414.532,443.534 423.281,443.534 423.281,448.241 414.532,448.241 414.532,455.827 424.259,455.827 424.259,460.534 411.032,460.534 411.032,432.68 "
             id="polygon1739" />
          <path
             style="clip-rule:evenodd;fill-rule:evenodd"
             inkscape:connector-curvature="0"
             d="m 442.513,449.525 -2.413,-10.343 -2.363,10.343 z m 6.441,11.009 h -3.807 l -1.489,-6.302 h -6.996 l -1.44,6.302 h -3.737 l 6.768,-27.854 h 3.745 z"
             id="path1741" />
          <path
             style="clip-rule:evenodd;fill-rule:evenodd"
             inkscape:connector-curvature="0"
             d="m 449.917,451.47 3.411,-0.545 c 0.388,3.553 1.656,5.329 3.808,5.329 1.065,0 1.903,-0.363 2.514,-1.091 0.61,-0.727 0.916,-1.628 0.916,-2.702 0,-0.633 -0.107,-1.17 -0.32,-1.612 -0.214,-0.443 -0.539,-0.807 -0.976,-1.091 -0.437,-0.284 -1.491,-0.762 -3.163,-1.433 -1.498,-0.594 -2.595,-1.239 -3.291,-1.936 -0.695,-0.695 -1.248,-1.609 -1.659,-2.742 -0.411,-1.133 -0.616,-2.35 -0.616,-3.652 0,-1.519 0.264,-2.886 0.791,-4.1 0.527,-1.215 1.256,-2.133 2.185,-2.752 0.929,-0.62 2.076,-0.931 3.44,-0.931 2.052,0 3.653,0.729 4.805,2.187 1.152,1.458 1.762,3.543 1.83,6.255 l -3.53,0.233 c -0.155,-1.486 -0.489,-2.525 -1.004,-3.118 -0.514,-0.592 -1.246,-0.888 -2.196,-0.888 -0.951,0 -1.684,0.256 -2.197,0.769 -0.515,0.513 -0.771,1.15 -0.771,1.914 0,0.751 0.235,1.383 0.707,1.896 0.471,0.513 1.541,1.085 3.21,1.717 1.765,0.684 3.042,1.396 3.829,2.136 0.787,0.74 1.389,1.696 1.804,2.866 0.416,1.171 0.624,2.591 0.624,4.262 0,2.416 -0.568,4.447 -1.702,6.092 -1.134,1.646 -2.908,2.468 -5.321,2.468 -4.27,-10e-4 -6.645,-3.177 -7.128,-9.531 z"
             id="path1743" />
          <polygon
             style="clip-rule:evenodd;fill-rule:evenodd"
             points="474.443,437.387 474.443,460.534 470.943,460.534 470.943,437.387 465.782,437.387 465.782,432.68 479.603,432.68 479.603,437.387 "
             id="polygon1745" />
          <path
             style="clip-rule:evenodd;fill-rule:evenodd"
             inkscape:connector-curvature="0"
             d="m 481.828,432.68 h 3.5 v 15.069 c 0,2.342 0.044,3.866 0.131,4.574 0.156,1.228 0.527,2.177 1.115,2.848 0.589,0.67 1.363,1.006 2.326,1.006 0.816,0 1.482,-0.237 1.997,-0.712 0.516,-0.475 0.868,-1.133 1.058,-1.975 0.189,-0.841 0.284,-2.647 0.284,-5.418 V 432.68 h 3.499 v 14.626 c 0,3.735 -0.152,6.436 -0.456,8.101 -0.305,1.665 -0.991,3.014 -2.06,4.046 -1.069,1.032 -2.479,1.548 -4.229,1.548 -1.818,0 -3.237,-0.427 -4.258,-1.282 -1.02,-0.854 -1.76,-2.058 -2.219,-3.609 -0.459,-1.551 -0.689,-4.409 -0.689,-8.575 V 432.68 Z"
             id="path1747" />
          <path
             style="clip-rule:evenodd;fill-rule:evenodd"
             inkscape:connector-curvature="0"
             d="m 502.902,444.467 h 2.609 c 1.595,0 2.609,-0.092 3.044,-0.275 0.436,-0.185 0.788,-0.556 1.059,-1.113 0.271,-0.559 0.406,-1.301 0.406,-2.228 0,-0.888 -0.136,-1.602 -0.406,-2.141 -0.271,-0.54 -0.638,-0.911 -1.102,-1.114 -0.329,-0.139 -1.28,-0.209 -2.856,-0.209 h -2.754 z m -3.5,16.067 V 432.68 h 7.4 c 1.893,0 3.244,0.25 4.056,0.751 0.811,0.5 1.477,1.367 1.998,2.603 0.521,1.234 0.782,2.713 0.782,4.436 0,2.179 -0.398,3.933 -1.195,5.263 -0.797,1.329 -1.929,2.165 -3.397,2.507 0.754,0.71 1.378,1.487 1.87,2.33 0.493,0.844 1.167,2.354 2.021,4.532 l 2.126,5.433 h -4.207 l -2.55,-6.058 c -0.917,-2.189 -1.54,-3.562 -1.868,-4.114 -0.329,-0.554 -0.677,-0.935 -1.044,-1.145 -0.367,-0.21 -0.956,-0.315 -1.768,-0.315 h -0.724 v 11.632 h -3.5 z"
             id="path1749" />
          <rect
             style="clip-rule:evenodd;fill-rule:evenodd"
             x="516.82703"
             y="432.67999"
             width="3.5"
             height="27.854"
             id="rect1751" />
          <path
             style="clip-rule:evenodd;fill-rule:evenodd"
             inkscape:connector-curvature="0"
             d="m 532.949,449.525 -2.414,-10.343 -2.363,10.343 z m 6.439,11.009 h -3.807 l -1.489,-6.302 h -6.996 l -1.44,6.302 h -3.736 l 6.768,-27.854 h 3.744 z"
             id="path1753" />
          <path
             style="clip-rule:evenodd;fill-rule:evenodd"
             inkscape:connector-curvature="0"
             d="m 540.353,451.47 3.41,-0.545 c 0.388,3.553 1.657,5.329 3.808,5.329 1.065,0 1.903,-0.363 2.515,-1.091 0.609,-0.727 0.915,-1.628 0.915,-2.702 0,-0.633 -0.106,-1.17 -0.32,-1.612 -0.214,-0.443 -0.538,-0.807 -0.976,-1.091 -0.437,-0.284 -1.49,-0.762 -3.163,-1.433 -1.497,-0.594 -2.595,-1.239 -3.29,-1.936 -0.695,-0.695 -1.249,-1.609 -1.66,-2.742 -0.41,-1.133 -0.615,-2.35 -0.615,-3.652 0,-1.519 0.264,-2.886 0.791,-4.1 0.527,-1.215 1.255,-2.133 2.184,-2.752 0.93,-0.62 2.076,-0.931 3.441,-0.931 2.052,0 3.653,0.729 4.805,2.187 1.152,1.458 1.762,3.543 1.829,6.255 l -3.529,0.233 c -0.155,-1.486 -0.49,-2.525 -1.004,-3.118 -0.515,-0.592 -1.247,-0.888 -2.197,-0.888 -0.95,0 -1.683,0.256 -2.197,0.769 -0.514,0.513 -0.771,1.15 -0.771,1.914 0,0.751 0.235,1.383 0.706,1.896 0.472,0.513 1.541,1.085 3.21,1.717 1.766,0.684 3.042,1.396 3.83,2.136 0.787,0.74 1.389,1.696 1.804,2.866 0.415,1.171 0.623,2.591 0.623,4.262 0,2.416 -0.567,4.447 -1.702,6.092 -1.134,1.646 -2.908,2.468 -5.321,2.468 -4.269,-10e-4 -6.644,-3.177 -7.126,-9.531 z"
             id="path1755" />
          <path
             style="clip-rule:evenodd;fill-rule:evenodd"
             inkscape:connector-curvature="0"
             d="m 15.045,411.363 3.411,1.711 c -0.531,3.13 -1.414,5.416 -2.649,6.859 -1.235,1.444 -2.755,2.166 -4.56,2.166 -2.268,0 -4.106,-1.146 -5.516,-3.437 -1.621,-2.646 -2.432,-6.216 -2.432,-10.71 0,-4.747 0.816,-8.463 2.449,-11.146 1.42,-2.329 3.328,-3.494 5.723,-3.494 1.951,0 3.583,0.876 4.897,2.628 0.937,1.244 1.623,3.092 2.058,5.542 l -3.47,1.322 c -0.223,-1.506 -0.665,-2.66 -1.328,-3.463 -0.663,-0.804 -1.444,-1.205 -2.343,-1.205 -1.286,0 -2.335,0.732 -3.148,2.198 -0.813,1.466 -1.219,3.885 -1.219,7.258 0,3.499 0.396,5.988 1.186,7.466 0.791,1.479 1.817,2.218 3.08,2.218 0.925,0 1.726,-0.473 2.4,-1.417 0.674,-0.944 1.163,-2.443 1.461,-4.496 z"
             id="path1757" />
          <path
             style="clip-rule:evenodd;fill-rule:evenodd"
             inkscape:connector-curvature="0"
             d="m 28.229,407.687 c 0,3.196 0.464,5.593 1.392,7.191 0.928,1.598 2.078,2.397 3.45,2.397 1.382,0 2.527,-0.793 3.436,-2.379 0.908,-1.585 1.362,-4.021 1.362,-7.305 0,-3.222 -0.442,-5.603 -1.326,-7.145 -0.884,-1.541 -2.042,-2.312 -3.472,-2.312 -1.43,0 -2.595,0.776 -3.493,2.33 -0.899,1.557 -1.349,3.963 -1.349,7.223 z m -3.618,0.189 c 0,-3.316 0.374,-6.048 1.122,-8.193 0.748,-2.145 1.725,-3.744 2.931,-4.795 1.206,-1.051 2.668,-1.576 4.385,-1.576 2.49,0 4.519,1.247 6.086,3.741 1.567,2.494 2.352,6.045 2.352,10.652 0,4.658 -0.83,8.298 -2.49,10.919 -1.457,2.316 -3.435,3.475 -5.935,3.475 -2.518,0 -4.506,-1.146 -5.963,-3.437 -1.659,-2.62 -2.488,-6.215 -2.488,-10.786 z"
             id="path1759" />
          <polygon
             style="clip-rule:evenodd;fill-rule:evenodd"
             points="51.671,394.012 51.671,416.925 60.421,416.925 60.421,421.632 48.171,421.632 48.171,394.012 "
             id="polygon1761" />
          <polygon
             style="clip-rule:evenodd;fill-rule:evenodd"
             points="79.7,393.779 79.7,398.486 70.297,398.486 70.297,404.632 79.047,404.632 79.047,409.339 70.297,409.339 70.297,416.925 80.026,416.925 80.026,421.632 66.798,421.632 66.798,393.779 "
             id="polygon1763" />
          <path
             style="clip-rule:evenodd;fill-rule:evenodd"
             inkscape:connector-curvature="0"
             d="m 97.996,411.363 3.411,1.711 c -0.531,3.13 -1.414,5.416 -2.649,6.859 -1.235,1.444 -2.755,2.166 -4.56,2.166 -2.268,0 -4.106,-1.146 -5.515,-3.437 -1.622,-2.646 -2.432,-6.216 -2.432,-10.71 0,-4.747 0.816,-8.463 2.449,-11.146 1.42,-2.329 3.328,-3.494 5.723,-3.494 1.951,0 3.583,0.876 4.897,2.628 0.937,1.244 1.623,3.092 2.058,5.542 l -3.47,1.322 c -0.222,-1.506 -0.665,-2.66 -1.327,-3.463 -0.663,-0.804 -1.444,-1.205 -2.344,-1.205 -1.286,0 -2.335,0.732 -3.148,2.198 -0.813,1.466 -1.219,3.885 -1.219,7.258 0,3.499 0.395,5.988 1.186,7.466 0.791,1.479 1.817,2.218 3.081,2.218 0.925,0 1.725,-0.473 2.4,-1.417 0.673,-0.944 1.16,-2.443 1.459,-4.496 z"
             id="path1765" />
          <polygon
             style="clip-rule:evenodd;fill-rule:evenodd"
             points="115.688,398.486 115.688,421.632 112.188,421.632 112.188,398.486 107.027,398.486 107.027,393.779 120.849,393.779 120.849,398.486 "
             id="polygon1767" />
          <rect
             style="clip-rule:evenodd;fill-rule:evenodd"
             x="126.84"
             y="393.77899"
             width="3.5"
             height="27.854"
             id="rect1769" />
          <polygon
             style="clip-rule:evenodd;fill-rule:evenodd"
             points="145.814,421.632 142.022,421.632 135.787,393.779 139.556,393.779 143.988,414.394 148.212,393.779 151.981,393.779 "
             id="polygon1771" />
          <path
             style="clip-rule:evenodd;fill-rule:evenodd"
             inkscape:connector-curvature="0"
             d="m 160.549,407.687 c 0,3.196 0.463,5.593 1.391,7.191 0.928,1.598 2.078,2.397 3.45,2.397 1.382,0 2.527,-0.793 3.436,-2.379 0.908,-1.585 1.362,-4.021 1.362,-7.305 0,-3.222 -0.442,-5.603 -1.326,-7.145 -0.884,-1.541 -2.042,-2.312 -3.472,-2.312 -1.43,0 -2.595,0.776 -3.494,2.33 -0.897,1.557 -1.347,3.963 -1.347,7.223 z m -3.618,0.189 c 0,-3.316 0.374,-6.048 1.122,-8.193 0.748,-2.145 1.725,-3.744 2.931,-4.795 1.206,-1.051 2.668,-1.576 4.385,-1.576 2.49,0 4.519,1.247 6.086,3.741 1.567,2.494 2.352,6.045 2.352,10.652 0,4.658 -0.83,8.298 -2.49,10.919 -1.457,2.316 -3.435,3.475 -5.934,3.475 -2.519,0 -4.506,-1.146 -5.963,-3.437 -1.66,-2.62 -2.489,-6.215 -2.489,-10.786 z"
             id="path1773" />
          <path
             style="clip-rule:evenodd;fill-rule:evenodd"
             inkscape:connector-curvature="0"
             d="m 205.119,398.486 v 18.439 h 2.642 c 1.132,0 1.952,-0.139 2.46,-0.418 0.508,-0.278 0.924,-0.699 1.248,-1.263 0.324,-0.563 0.593,-1.452 0.806,-2.668 0.213,-1.216 0.319,-2.817 0.319,-4.805 0,-2.063 -0.109,-3.69 -0.326,-4.88 -0.218,-1.19 -0.557,-2.127 -1.016,-2.811 -0.459,-0.684 -1.019,-1.133 -1.676,-1.349 -0.494,-0.164 -1.446,-0.247 -2.859,-0.247 h -1.598 z m -3.5,-4.707 h 6.413 c 1.622,0 2.845,0.238 3.67,0.713 0.825,0.475 1.585,1.275 2.28,2.403 0.695,1.127 1.24,2.59 1.636,4.389 0.396,1.799 0.594,4.034 0.594,6.707 0,2.407 -0.208,4.5 -0.623,6.279 -0.415,1.779 -0.941,3.188 -1.578,4.228 -0.637,1.039 -1.407,1.821 -2.309,2.347 -0.902,0.525 -2.063,0.788 -3.482,0.788 h -6.602 v -27.854 z"
             id="path1775" />
          <polygon
             style="clip-rule:evenodd;fill-rule:evenodd"
             points="235.95,393.779 235.95,398.486 226.548,398.486 226.548,404.632 235.298,404.632 235.298,409.339 226.548,409.339 226.548,416.925 236.277,416.925 236.277,421.632 223.048,421.632 223.048,393.779 "
             id="polygon1777" />
          <polygon
             style="clip-rule:evenodd;fill-rule:evenodd"
             points="267.9,394.012 267.9,416.925 276.649,416.925 276.649,421.632 264.4,421.632 264.4,394.012 "
             id="polygon1779" />
          <polygon
             style="clip-rule:evenodd;fill-rule:evenodd"
             points="295.928,393.779 295.928,398.486 286.526,398.486 286.526,404.632 295.276,404.632 295.276,409.339 286.526,409.339 286.526,416.925 296.254,416.925 296.254,421.632 283.026,421.632 283.026,393.779 "
             id="polygon1781" />
          <path
             style="clip-rule:evenodd;fill-rule:evenodd"
             inkscape:connector-curvature="0"
             d="m 302.212,412.569 3.411,-0.545 c 0.387,3.553 1.657,5.329 3.808,5.329 1.065,0 1.903,-0.363 2.514,-1.091 0.61,-0.727 0.916,-1.628 0.916,-2.702 0,-0.633 -0.106,-1.17 -0.32,-1.612 -0.213,-0.442 -0.539,-0.807 -0.975,-1.091 -0.437,-0.285 -1.491,-0.762 -3.163,-1.433 -1.498,-0.594 -2.595,-1.239 -3.291,-1.936 -0.696,-0.695 -1.249,-1.609 -1.66,-2.742 -0.411,-1.133 -0.616,-2.35 -0.616,-3.653 0,-1.518 0.264,-2.885 0.791,-4.099 0.527,-1.215 1.255,-2.132 2.185,-2.752 0.93,-0.62 2.076,-0.931 3.44,-0.931 2.052,0 3.654,0.729 4.805,2.187 1.152,1.458 1.761,3.543 1.829,6.255 l -3.53,0.234 c -0.155,-1.487 -0.489,-2.526 -1.003,-3.119 -0.514,-0.592 -1.247,-0.889 -2.197,-0.889 -0.95,0 -1.683,0.257 -2.197,0.77 -0.514,0.513 -0.771,1.15 -0.771,1.914 0,0.751 0.235,1.383 0.707,1.896 0.472,0.513 1.542,1.085 3.21,1.718 1.765,0.684 3.042,1.395 3.829,2.135 0.787,0.74 1.389,1.696 1.804,2.866 0.415,1.171 0.623,2.591 0.623,4.262 0,2.416 -0.567,4.447 -1.702,6.093 -1.134,1.645 -2.908,2.467 -5.322,2.467 -4.268,-0.001 -6.642,-3.178 -7.125,-9.531 z"
             id="path1783" />
          <path
             style="clip-rule:evenodd;fill-rule:evenodd"
             inkscape:connector-curvature="0"
             d="m 326.677,409.496 v 7.43 h 3.272 c 1.435,0 2.356,-0.098 2.763,-0.294 0.407,-0.196 0.749,-0.581 1.025,-1.156 0.276,-0.574 0.415,-1.304 0.415,-2.188 0,-0.91 -0.148,-1.658 -0.443,-2.246 -0.296,-0.588 -0.688,-0.992 -1.178,-1.214 -0.49,-0.221 -1.491,-0.331 -3.002,-0.331 h -2.852 z m 0,-11.087 v 6.457 h 2.333 c 1.399,0 2.264,-0.031 2.595,-0.095 0.602,-0.127 1.073,-0.461 1.414,-1 0.34,-0.54 0.51,-1.273 0.51,-2.2 0,-0.826 -0.139,-1.496 -0.416,-2.01 -0.277,-0.515 -0.612,-0.835 -1.006,-0.962 -0.394,-0.127 -1.523,-0.19 -3.389,-0.19 z m -3.5,-4.63 h 6.983 c 1.907,0 3.247,0.229 4.021,0.685 0.774,0.456 1.428,1.261 1.96,2.415 0.532,1.152 0.799,2.458 0.799,3.916 0,1.343 -0.227,2.557 -0.68,3.64 -0.453,1.084 -1.041,1.886 -1.764,2.405 1.024,0.48 1.826,1.304 2.405,2.469 0.579,1.164 0.868,2.582 0.868,4.254 0,2.025 -0.372,3.737 -1.115,5.137 -0.744,1.398 -1.623,2.263 -2.638,2.592 -0.705,0.229 -2.343,0.342 -4.913,0.342 h -5.927 v -27.855 z"
             id="path1785" />
          <rect
             style="clip-rule:evenodd;fill-rule:evenodd"
             x="344.45801"
             y="393.77899"
             width="3.5"
             height="27.854"
             id="rect1787" />
          <path
             style="clip-rule:evenodd;fill-rule:evenodd"
             inkscape:connector-curvature="0"
             d="m 364.435,410.624 -2.413,-10.343 -2.363,10.343 z m 6.44,11.008 h -3.807 l -1.489,-6.302 h -6.996 l -1.44,6.302 h -3.737 l 6.768,-27.854 h 3.745 z"
             id="path1789" />
          <polygon
             style="clip-rule:evenodd;fill-rule:evenodd"
             points="376.644,421.632 376.644,393.779 380.052,393.779 387.203,412.379 387.203,393.779 390.465,393.779 390.465,421.632 386.941,421.632 379.907,403.469 379.907,421.632 "
             id="polygon1791" />
          <path
             style="clip-rule:evenodd;fill-rule:evenodd"
             inkscape:connector-curvature="0"
             d="m 407.234,410.624 -2.413,-10.343 -2.363,10.343 z m 6.44,11.008 h -3.807 l -1.489,-6.302 h -6.996 l -1.44,6.302 h -3.737 l 6.768,-27.854 h 3.745 z"
             id="path1793" />
          <path
             style="clip-rule:evenodd;fill-rule:evenodd"
             inkscape:connector-curvature="0"
             d="m 418.494,412.569 3.411,-0.545 c 0.388,3.553 1.657,5.329 3.808,5.329 1.065,0 1.903,-0.363 2.514,-1.091 0.61,-0.727 0.916,-1.628 0.916,-2.702 0,-0.633 -0.107,-1.17 -0.32,-1.612 -0.214,-0.442 -0.539,-0.807 -0.976,-1.091 -0.437,-0.285 -1.491,-0.762 -3.163,-1.433 -1.498,-0.594 -2.595,-1.239 -3.29,-1.936 -0.696,-0.695 -1.249,-1.609 -1.66,-2.742 -0.411,-1.133 -0.616,-2.35 -0.616,-3.653 0,-1.518 0.264,-2.885 0.791,-4.099 0.527,-1.215 1.256,-2.132 2.185,-2.752 0.93,-0.62 2.076,-0.931 3.44,-0.931 2.053,0 3.654,0.729 4.806,2.187 1.151,1.458 1.761,3.543 1.829,6.255 l -3.529,0.234 c -0.155,-1.487 -0.49,-2.526 -1.004,-3.119 -0.515,-0.592 -1.247,-0.889 -2.197,-0.889 -0.951,0 -1.684,0.257 -2.197,0.77 -0.513,0.513 -0.771,1.15 -0.771,1.914 0,0.751 0.236,1.383 0.707,1.896 0.471,0.513 1.541,1.085 3.21,1.718 1.766,0.684 3.042,1.395 3.829,2.135 0.787,0.74 1.389,1.696 1.805,2.866 0.415,1.171 0.623,2.591 0.623,4.262 0,2.416 -0.567,4.447 -1.702,6.093 -1.134,1.645 -2.908,2.467 -5.321,2.467 -4.271,-0.001 -6.646,-3.178 -7.128,-9.531 z"
             id="path1795" />
          <path
             style="clip-rule:evenodd;fill-rule:evenodd"
             inkscape:connector-curvature="0"
             d="m 439.311,416.303 h 3.322 v 3.819 c 0,2.166 -0.192,3.775 -0.576,4.827 -0.47,1.305 -1.257,2.273 -2.361,2.907 l -0.651,-2.203 c 0.651,-0.356 1.121,-0.836 1.408,-1.439 0.288,-0.604 0.441,-1.464 0.46,-2.582 h -1.602 z"
             id="path1797" />
          <path
             style="clip-rule:evenodd;fill-rule:evenodd"
             inkscape:connector-curvature="0"
             d="m 479.381,411.402 v -4.707 h 7.593 v 11.093 c -0.763,1.177 -1.845,2.19 -3.245,3.039 -1.399,0.849 -2.806,1.272 -4.216,1.272 -1.719,0 -3.234,-0.554 -4.549,-1.661 -1.313,-1.108 -2.354,-2.767 -3.121,-4.976 -0.767,-2.209 -1.152,-4.807 -1.152,-7.794 0,-3.064 0.389,-5.685 1.166,-7.862 0.777,-2.177 1.786,-3.804 3.027,-4.88 1.24,-1.076 2.725,-1.614 4.453,-1.614 2.075,0 3.738,0.695 4.988,2.086 1.251,1.391 2.055,3.431 2.412,6.123 l -3.471,1.05 c -0.261,-1.434 -0.739,-2.531 -1.435,-3.293 -0.696,-0.761 -1.527,-1.142 -2.493,-1.142 -1.498,0 -2.711,0.761 -3.638,2.283 -0.928,1.522 -1.392,3.844 -1.392,6.964 0,3.349 0.502,5.894 1.506,7.638 0.858,1.503 2.021,2.255 3.488,2.255 0.686,0 1.396,-0.211 2.135,-0.633 0.739,-0.422 1.397,-0.998 1.977,-1.729 v -3.513 h -4.033 z"
             id="path1799" />
          <path
             style="clip-rule:evenodd;fill-rule:evenodd"
             inkscape:connector-curvature="0"
             d="m 503.324,410.624 -2.413,-10.343 -2.362,10.343 z m 6.44,11.008 h -3.807 l -1.489,-6.302 h -6.996 l -1.44,6.302 h -3.737 l 6.769,-27.854 h 3.744 z"
             id="path1801" />
          <rect
             style="clip-rule:evenodd;fill-rule:evenodd"
             x="515.35498"
             y="393.77899"
             width="3.5"
             height="27.854"
             id="rect1803" />
          <path
             style="clip-rule:evenodd;fill-rule:evenodd"
             inkscape:connector-curvature="0"
             d="m 525.193,412.569 3.41,-0.545 c 0.388,3.553 1.656,5.329 3.808,5.329 1.065,0 1.903,-0.363 2.515,-1.091 0.609,-0.727 0.915,-1.628 0.915,-2.702 0,-0.633 -0.106,-1.17 -0.32,-1.612 -0.214,-0.442 -0.538,-0.807 -0.976,-1.091 -0.437,-0.285 -1.49,-0.762 -3.163,-1.433 -1.498,-0.594 -2.595,-1.239 -3.29,-1.936 -0.696,-0.695 -1.249,-1.609 -1.66,-2.742 -0.41,-1.133 -0.616,-2.35 -0.616,-3.653 0,-1.518 0.264,-2.885 0.792,-4.099 0.526,-1.215 1.255,-2.132 2.184,-2.752 0.93,-0.62 2.076,-0.931 3.441,-0.931 2.051,0 3.653,0.729 4.805,2.187 1.151,1.458 1.762,3.543 1.829,6.255 l -3.53,0.234 c -0.154,-1.487 -0.489,-2.526 -1.003,-3.119 -0.515,-0.592 -1.247,-0.889 -2.197,-0.889 -0.951,0 -1.683,0.257 -2.197,0.77 -0.514,0.513 -0.771,1.15 -0.771,1.914 0,0.751 0.235,1.383 0.707,1.896 0.472,0.513 1.541,1.085 3.21,1.718 1.766,0.684 3.042,1.395 3.829,2.135 0.788,0.74 1.389,1.696 1.805,2.866 0.415,1.171 0.623,2.591 0.623,4.262 0,2.416 -0.567,4.447 -1.702,6.093 -1.134,1.645 -2.908,2.467 -5.321,2.467 -4.27,-0.001 -6.645,-3.178 -7.127,-9.531 z"
             id="path1805" />
          <path
             style="clip-rule:evenodd;fill-rule:evenodd"
             inkscape:connector-curvature="0"
             d="m 546.009,416.303 h 3.322 v 3.819 c 0,2.166 -0.192,3.775 -0.576,4.827 -0.471,1.305 -1.258,2.273 -2.361,2.907 l -0.651,-2.203 c 0.651,-0.356 1.121,-0.836 1.408,-1.439 0.288,-0.604 0.441,-1.464 0.46,-2.582 h -1.602 z"
             id="path1807" />
          <polygon
             style="clip-rule:evenodd;fill:#ea6ea3;fill-rule:evenodd"
             points="769.978,161.994 434.895,161.994 602.945,459.398 "
             id="polygon1809" />
          <polygon
             style="fill:none;stroke:#000000;stroke-width:12.08329964;stroke-miterlimit:10"
             stroke-miterlimit="10"
             points="769.978,161.994 434.895,161.994 602.945,459.398 "
             id="polygon1811" />
          <path
             style="clip-rule:evenodd;fill-rule:evenodd"
             inkscape:connector-curvature="0"
             d="m 380.916,367.733 c 24.444,-2.038 75.368,-15.279 100.83,-60.094 25.462,-44.813 44.814,-82.498 58.055,-132.405 H 419.618 l -22.405,56.018 c 8.074,-14.921 36.664,-15.277 41.756,-12.222 19.216,11.529 12.063,39.318 9.168,45.833 -4.075,9.167 -18.333,47.87 -36.667,62.129 -16.862,-12.702 -27.499,-19.353 -35.646,-40.739 -8.148,-21.39 -21.067,-61.729 9.166,-143.611 24.443,-66.204 72.313,-97.777 82.498,-102.869 10.185,-5.093 32.592,-15.278 32.592,-15.278 0,0 9.167,26.481 2.037,55 -2.762,11.047 -20.37,67.22 -20.37,67.22 0,0 34.629,-15.276 44.814,-27.499 10.185,-12.223 31.573,-61.111 23.424,-83.519 C 541.837,13.292 526.56,-0.967 484.8,0.051 453.838,0.806 379.896,19.404 333.046,89.68 c -49.706,74.561 -61.109,158.886 -38.702,219.998 21.502,58.644 62.127,60.092 86.572,58.055 z"
             id="path1813" />
          <polygon
             style="clip-rule:evenodd;fill-rule:evenodd"
             points="89.626,210.882 0,39.773 63.147,39.773 118.145,149.771 173.143,39.773 233.234,39.773 151.755,211.9 240.363,378.936 178.235,378.936 119.164,269.956 67.73,378.936 3.564,378.936 "
             id="polygon1815" />
          <polygon
             style="clip-rule:evenodd;fill:#ffffff;fill-rule:evenodd"
             points="355.453,283.196 355.453,242.456 265.826,242.456 265.826,216.993 339.156,216.993 339.156,175.234 265.826,175.234 265.826,153.846 350.361,153.846 350.361,111.069 206.753,111.069 206.753,283.196 "
             id="polygon1817" />
          <polygon
             style="fill:none;stroke:#ffffff;stroke-width:12.08320045;stroke-miterlimit:10"
             stroke-miterlimit="10"
             points="355.453,283.196 355.453,242.456 265.826,242.456 265.826,216.993 339.156,216.993 339.156,175.234 265.826,175.234 265.826,153.846 350.361,153.846 350.361,111.069 206.753,111.069 206.753,283.196 "
             id="polygon1819" />
          <polygon
             style="clip-rule:evenodd;fill-rule:evenodd"
             points="355.453,283.196 355.453,242.456 265.826,242.456 265.826,216.993 339.156,216.993 339.156,175.234 265.826,175.234 265.826,153.846 350.361,153.846 350.361,111.069 206.753,111.069 206.753,283.196 "
             id="polygon1821" />
          <path
             style="clip-rule:evenodd;fill-rule:evenodd"
             inkscape:connector-curvature="0"
             d="m 590.725,224.122 h 32.592 L 607.02,165.049 Z M 577.484,111.069 519.43,283.196 h 53.979 l 7.13,-20.369 h 53.979 l 8.147,20.369 h 57.037 L 633.5,111.069 Z"
             id="path1823" />
        </g>
      </g>
      <g
         transform="translate(-291.16635,-3.4173904)"
         id="text2379"
         style="font-style:normal;font-weight:normal;font-size:10.58333302px;line-height:1.25;font-family:sans-serif;letter-spacing:0px;word-spacing:0px;fill:#000000;fill-opacity:1;stroke:none;stroke-width:0.26458332"
         aria-label="Edita">
        <path
           inkscape:connector-curvature="0"
           id="path2435"
           style="font-style:normal;font-variant:normal;font-weight:normal;font-stretch:normal;font-size:4.23333311px;font-family:'Liberation Sans';-inkscape-font-specification:'Liberation Sans';fill:#000000;stroke-width:0.26458332"
           d="m 298.84501,271.00226 v -2.91249 h 2.20968 v 0.32247 h -1.81487 v 0.93431 h 1.69085 v 0.31832 h -1.69085 v 1.01493 h 1.89962 v 0.32246 z" />
        <path
           inkscape:connector-curvature="0"
           id="path2437"
           style="font-style:normal;font-variant:normal;font-weight:normal;font-stretch:normal;font-size:4.23333311px;font-family:'Liberation Sans';-inkscape-font-specification:'Liberation Sans';fill:#000000;stroke-width:0.26458332"
           d="m 303.02253,270.64259 q -0.10335,0.21497 -0.27492,0.30799 -0.1695,0.093 -0.42168,0.093 -0.42375,0 -0.62425,-0.28525 -0.19844,-0.28526 -0.19844,-0.86403 0,-1.16996 0.82269,-1.16996 0.25425,0 0.42375,0.093 0.1695,0.093 0.27285,0.29559 h 0.004 l -0.004,-0.25012 v -0.9281 h 0.37207 v 2.60655 q 0,0.34934 0.0124,0.46096 h -0.35553 q -0.006,-0.0331 -0.0145,-0.15296 -0.006,-0.11989 -0.006,-0.20671 z m -1.12861,-0.76068 q 0,0.46923 0.12402,0.6718 0.12402,0.20257 0.40308,0.20257 0.31626,0 0.45888,-0.21911 0.14263,-0.21911 0.14263,-0.68006 0,-0.44442 -0.14263,-0.65112 -0.14262,-0.20671 -0.45475,-0.20671 -0.28112,0 -0.40721,0.20877 -0.12402,0.20671 -0.12402,0.67386 z" />
        <path
           inkscape:connector-curvature="0"
           id="path2439"
           style="font-style:normal;font-variant:normal;font-weight:normal;font-stretch:normal;font-size:4.23333311px;font-family:'Liberation Sans';-inkscape-font-specification:'Liberation Sans';fill:#000000;stroke-width:0.26458332"
           d="m 303.96511,268.29028 v -0.35553 h 0.37207 v 0.35553 z m 0,2.71198 v -2.23656 h 0.37207 v 2.23656 z" />
        <path
           inkscape:connector-curvature="0"
           id="path2441"
           style="font-style:normal;font-variant:normal;font-weight:normal;font-stretch:normal;font-size:4.23333311px;font-family:'Liberation Sans';-inkscape-font-specification:'Liberation Sans';fill:#000000;stroke-width:0.26458332"
           d="m 305.76965,270.98572 q -0.18397,0.0496 -0.37621,0.0496 -0.44648,0 -0.44648,-0.50643 v -1.49241 h -0.25838 v -0.27079 h 0.27285 l 0.10955,-0.50023 h 0.24805 v 0.50023 h 0.41341 v 0.27079 h -0.41341 v 1.4118 q 0,0.16123 0.0517,0.22737 0.0537,0.0641 0.18397,0.0641 0.0744,0 0.21497,-0.0289 z" />
        <path
           inkscape:connector-curvature="0"
           id="path2443"
           style="font-style:normal;font-variant:normal;font-weight:normal;font-stretch:normal;font-size:4.23333311px;font-family:'Liberation Sans';-inkscape-font-specification:'Liberation Sans';fill:#000000;stroke-width:0.26458332"
           d="m 306.65435,271.0436 q -0.33693,0 -0.50643,-0.17777 -0.1695,-0.17776 -0.1695,-0.48782 0,-0.34727 0.22738,-0.5333 0.22944,-0.18604 0.73794,-0.19844 l 0.50229,-0.008 v -0.12196 q 0,-0.27285 -0.11575,-0.39067 -0.11576,-0.11782 -0.3638,-0.11782 -0.25012,0 -0.36381,0.0848 -0.11369,0.0847 -0.13642,0.27078 l -0.38861,-0.0351 q 0.0951,-0.60358 0.8971,-0.60358 0.42168,0 0.63459,0.1943 0.21291,0.19224 0.21291,0.55811 v 0.96325 q 0,0.16536 0.0434,0.25011 0.0434,0.0827 0.16537,0.0827 0.0537,0 0.12196,-0.0145 v 0.23151 q -0.14056,0.0331 -0.28733,0.0331 -0.2067,0 -0.30179,-0.10749 -0.093,-0.10955 -0.10542,-0.34106 h -0.0124 q -0.14262,0.25631 -0.33279,0.3638 -0.18811,0.10542 -0.45889,0.10542 z m 0.0847,-0.27905 q 0.20464,0 0.3638,-0.093 0.15916,-0.093 0.25011,-0.25425 0.093,-0.1633 0.093,-0.33486 v -0.18397 l -0.40721,0.008 q -0.26251,0.004 -0.39894,0.0537 -0.13436,0.0496 -0.20671,0.15296 -0.0723,0.10336 -0.0723,0.27079 0,0.1819 0.0971,0.28112 0.0992,0.0992 0.28112,0.0992 z" />
      </g>
      <path
         inkscape:connector-curvature="0"
         id="path2403"
         d="m 7.678383,268.41907 c 25.906465,0 25.906465,0 25.906465,0"
         style="fill:none;stroke:#000000;stroke-width:0.273;stroke-linecap:butt;stroke-linejoin:miter;stroke-miterlimit:4;stroke-dasharray:none;stroke-opacity:1" />
    </g>
    <g
       id="g4531"
       transform="matrix(0.26240099,0,0,0.26240099,4.0350655,249.5222)"
       style="display:inline;stroke-width:0.31140643">
      <path
         style="fill:#ff0800;fill-opacity:1;stroke:none;stroke-width:0.02636574"
         d="m 43.505734,154.59651 c -0.143488,-0.0417 -0.327524,-0.14938 -0.40897,-0.23938 -0.266909,-0.29493 -0.140464,-0.52376 0.552217,-0.99937 1.571745,-1.07917 2.514006,-2.64354 3.023832,-5.02023 0.30469,-1.42039 0.37876,-2.44194 0.328204,-4.52642 -0.06602,-2.72222 -0.378647,-4.73689 -1.076289,-6.93604 -0.956573,-3.01536 -1.889448,-6.85464 -2.236441,-9.20416 -0.158871,-1.07573 -0.08519,-1.64101 0.311213,-2.38773 0.439799,-0.82846 1.189918,-1.28379 2.324551,-1.41103 0.814899,-0.0914 1.53607,0.0177 2.082519,0.31517 0.474517,0.25826 0.74507,0.55324 1.03845,1.1322 0.433304,0.85508 0.499176,1.41504 1.004625,8.54002 0.375147,5.28822 0.420711,6.55035 0.307174,8.509 -0.199958,3.44954 -0.719765,5.83318 -1.738145,7.97049 -0.585218,1.22822 -1.027779,1.87557 -1.820387,2.66276 -1.256003,1.24741 -2.716452,1.87814 -3.692553,1.59472 z m -24.71578,-1.5288 c -3.9636,-0.37942 -6.936828,-1.81225 -8.747891,-4.21571 -1.2978921,-1.72244 -1.6386119,-2.96266 -0.9916511,-3.60962 0.6826868,-0.68269 2.6983311,-0.52978 3.8776921,0.29415 0.68585,0.47916 0.928613,0.89046 0.990173,1.67761 0.07282,0.93114 0.392613,1.44153 1.316091,2.10051 2.372318,1.69285 6.314357,1.85345 8.858291,0.36089 0.737514,-0.43271 2.41027,-2.0516 2.908622,-2.81495 0.723193,-1.10777 1.077611,-2.43103 1.089754,-4.06872 0.01298,-1.74988 -0.294425,-3.05682 -1.075366,-4.572 -1.021476,-1.98187 -2.855482,-3.12407 -5.19794,-3.23723 -1.157552,-0.0559 -1.88734,0.0514 -3.363099,0.49465 -1.283446,0.38548 -1.912299,0.4311 -2.107181,0.15287 -0.309749,-0.44223 0.370045,-1.24809 1.662962,-1.97136 0.670626,-0.37515 0.885692,-0.56126 0.648569,-0.56126 -0.04875,0 -0.534528,0.0836 -1.0795,0.18579 -1.326543,0.24873 -3.686512,0.26804 -4.741259,0.0388 -2.492444,-0.54173 -4.0576849,-1.59301 -4.8725278,-3.27259 -0.5249168,-1.08198 -0.7327385,-1.92767 -0.7327385,-2.98172 0,-1.04155 0.09063,-1.43193 0.5559279,-2.39462 0.7394103,-1.52982 2.1383644,-2.78153 4.3503014,-3.89244 0.889993,-0.44698 2.43818,-0.98495 3.391104,-1.17835 2.406844,-0.48848 5.864347,-0.35573 7.564435,0.29044 0.24011,0.0913 0.509945,0.16595 0.599633,0.16598 0.08969,2e-5 0.908837,-0.49129 1.820333,-1.09179 3.550477,-2.33912 5.085974,-3.20341 6.567932,-3.69694 1.12179,-0.37358 2.047129,-0.23273 2.737919,0.41675 1.08695,1.02195 0.831293,2.89598 -0.486147,3.56358 -0.266038,0.13481 -0.733633,0.24795 -1.4096,0.34106 -2.13608,0.29425 -4.365493,0.88801 -5.502966,1.4656 -0.586386,0.29776 -1.21313,0.7388 -1.273525,0.89619 -0.02313,0.0603 0.09234,0.30933 0.256614,0.55344 1.171239,1.74045 0.667071,5.09075 -1.085889,7.21594 -0.577508,0.70014 -1.366546,1.32625 -2.291409,1.81825 -0.402634,0.21419 -0.7184,0.43042 -0.701702,0.48051 0.01935,0.0581 0.47354,0.0986 1.252865,0.11196 4.156745,0.071 6.908854,1.58513 8.373661,4.60692 1.354566,2.79437 1.378159,6.83685 0.05521,9.46059 -1.078618,2.13918 -3.376899,4.34399 -5.793063,5.55746 -2.412591,1.21167 -4.535008,1.58597 -7.424639,1.30936 z m -0.965788,-21.83445 c 2.447256,-0.49872 4.325048,-1.71361 5.101232,-3.30039 0.539049,-1.102 0.588485,-1.9911 0.182391,-3.28032 -0.469115,-1.48929 -1.610018,-2.51515 -3.428835,-3.08307 -0.559502,-0.1747 -0.796061,-0.19758 -1.989666,-0.19237 -1.182693,0.005 -1.459033,0.034 -2.176778,0.22709 -1.856621,0.49954 -3.309334,1.56378 -3.97881,2.91484 -0.332457,0.67092 -0.35327,0.75755 -0.388719,1.61791 -0.06435,1.5619 0.39784,2.80962 1.419054,3.83084 1.271481,1.27148 3.087168,1.70829 5.260131,1.26547 z m 21.158788,10.07393 c -0.700144,-0.14643 -1.409855,-0.56848 -2.106267,-1.25255 -1.099084,-1.0796 -1.836142,-2.36504 -2.46576,-4.30033 -0.671253,-2.06327 -1.03146,-4.41735 -1.197689,-7.82732 -0.106049,-2.17547 -0.04258,-3.06872 0.245467,-3.45453 0.251192,-0.33644 0.762971,-0.55431 1.385034,-0.58961 0.543508,-0.0308 0.568325,-0.0232 0.853426,0.26188 0.391717,0.39171 0.55199,0.99393 0.658943,2.47593 0.118891,1.64743 0.499421,3.12453 1.304505,5.06369 0.815583,1.96444 1.554504,3.14007 3.096668,4.92685 1.144747,1.32633 1.459382,1.86486 1.511642,2.58734 0.04584,0.63377 -0.08658,1.00902 -0.503059,1.4255 -0.588252,0.58825 -1.806612,0.88733 -2.78291,0.68315 z m 24.891999,0.0287 c -2.805057,-0.30172 -5.465511,-1.50369 -7.418638,-3.35168 -0.966984,-0.91493 -1.473384,-1.59559 -2.029333,-2.72767 -0.727784,-1.48199 -1.142186,-3.54229 -1.016773,-5.05514 0.177334,-2.13913 1.534507,-4.52874 3.531068,-6.21722 1.609667,-1.36128 3.588347,-2.40775 5.171098,-2.73484 1.48455,-0.3068 2.609245,0.95957 2.609245,2.93792 0,0.94328 -0.278669,1.47265 -0.914814,1.73783 -0.172069,0.0717 -0.979603,0.34433 -1.79452,0.60577 -2.408822,0.77282 -3.623695,1.45807 -4.081985,2.30245 -0.832542,1.53391 -0.184303,4.32511 1.459529,6.28446 1.014505,1.20923 2.506012,2.16127 4.019456,2.56564 1.017092,0.27176 2.956174,0.27342 3.888892,0.003 1.425024,-0.41265 2.732256,-1.25843 4.008755,-2.59367 1.762764,-1.84388 3.320686,-4.88832 3.320686,-6.48916 0,-1.32381 -0.944127,-2.33178 -2.451917,-2.61773 -1.358432,-0.25762 -4.010439,0.0796 -5.38986,0.68536 -0.237308,0.10421 -0.671625,0.19961 -1.02021,0.22409 -0.567621,0.0399 -0.621157,0.0285 -0.8255,-0.17588 -0.268965,-0.26897 -0.274782,-0.45634 -0.02564,-0.82604 0.569628,-0.84527 2.579507,-1.67552 4.675464,-1.93135 0.4191,-0.0512 1.339673,-0.0931 2.045718,-0.0932 3.166138,-5.9e-4 4.518135,0.82502 4.990938,3.04776 0.161551,0.75948 0.115148,2.57154 -0.08998,3.51367 -0.432313,1.98557 -1.351724,3.86693 -2.917023,5.969 -2.107973,2.83083 -4.632269,4.54163 -7.23544,4.9037 -0.62296,0.0866 -1.857869,0.10272 -2.509215,0.0327 z m 18.076333,-0.038 c -0.462871,-0.17114 -0.773428,-0.47669 -1.078361,-1.06098 -0.604664,-1.1586 -0.991844,-2.82771 -1.16597,-5.02644 -0.137353,-1.73437 -0.312849,-8.9127 -0.232776,-9.52122 0.145015,-1.10206 0.826093,-1.68739 2.114519,-1.81728 1.601068,-0.16141 3.114686,0.43752 3.3362,1.3201 0.09386,0.37398 -0.02588,1.25314 -0.517466,3.79918 -0.717823,3.71778 -0.958855,5.53188 -0.744913,5.6065 0.06301,0.022 0.47506,-0.70949 1.06828,-1.89636 1.441145,-2.88337 1.786966,-3.41588 2.710206,-4.17327 1.125575,-0.92337 2.438433,-1.42617 3.92308,-1.50246 1.177451,-0.0605 1.798947,0.0514 2.694534,0.48524 1.471041,0.71257 2.604778,1.9977 3.714589,4.21059 0.876842,1.74838 1.576637,3.70937 1.603798,4.49426 0.01424,0.41158 -0.0086,0.47286 -0.260892,0.6985 -0.201269,0.18004 -0.362526,0.24725 -0.592667,0.24702 -0.704096,-6.8e-4 -1.197703,-0.57186 -2.207022,-2.55373 -1.116627,-2.19259 -1.742974,-2.96052 -2.868338,-3.5167 -0.560154,-0.27684 -0.698186,-0.30983 -1.31986,-0.31538 -0.891218,-0.008 -1.452583,0.23859 -2.219096,0.97463 -0.742036,0.71254 -1.273776,1.51143 -2.249492,3.37967 -1.862048,3.56533 -3.234641,5.54825 -4.171321,6.02611 -0.398902,0.2035 -1.176448,0.27535 -1.537032,0.14202 z M 68.218841,120.87053 c -0.330188,-0.28401 -0.332536,-0.81739 -0.0057,-1.28457 0.674239,-0.9636 5.264924,-6.04282 5.789418,-6.40551 0.654085,-0.4523 1.62377,-0.45186 2.272342,0.001 0.459333,0.32075 0.808005,1.00202 0.808005,1.57875 0,0.70606 -0.312267,1.22731 -1.088646,1.81722 -0.73639,0.55953 -3.125178,2.22401 -4.880354,3.40058 -1.647782,1.10458 -2.384505,1.33169 -2.895112,0.89248 z m -24.240554,-0.69937 c -0.385999,-0.062 -0.825629,-0.29578 -0.932857,-0.49614 -0.484394,-0.9051 1.130818,-3.5144 2.655154,-4.28928 0.965838,-0.49098 2.12665,-0.41961 3.031692,0.18639 0.544684,0.36471 0.778786,0.7623 0.815647,1.38528 0.02732,0.46176 0.0023,0.56332 -0.22617,0.91905 -0.610174,0.94991 -2.658756,2.03223 -4.285133,2.26395 -0.608384,0.0867 -0.694394,0.0892 -1.058333,0.0308 z"
         id="path4552-7"
         inkscape:connector-curvature="0" />
      <g
         style="stroke-width:0.31140643"
         transform="translate(0.68639716,-4.5635696)"
         id="g4504">
        <path
           inkscape:connector-curvature="0"
           id="path4556"
           d="m 129.37298,153.25453 c -0.46106,-0.0658 -0.87358,-0.15501 -0.91672,-0.19814 -0.0473,-0.0473 -0.0506,-0.51087 -0.008,-1.1683 l 0.0701,-1.08988 0.254,0.0102 c 0.1397,0.006 0.5588,0.0759 0.93133,0.15626 0.96967,0.20909 2.3305,0.21489 2.91336,0.0124 1.27605,-0.4433 1.74594,-1.87151 0.92381,-2.80787 -0.34013,-0.38738 -0.75808,-0.62675 -1.8475,-1.0581 -2.06586,-0.81796 -2.83426,-1.36128 -3.31965,-2.34725 -0.25477,-0.5175 -0.28121,-0.64614 -0.30811,-1.49919 -0.0246,-0.78141 -4e-5,-1.02023 0.15131,-1.46895 0.63521,-1.88317 2.41924,-2.89316 5.11042,-2.89316 0.95565,0 2.33607,0.1365 2.44365,0.24164 0.064,0.0626 -0.0575,1.99459 -0.13319,2.117 -0.0303,0.049 -0.24096,0.0275 -0.53662,-0.0548 -0.33417,-0.0929 -0.85847,-0.13686 -1.67214,-0.14012 -1.12767,-0.005 -1.20849,0.007 -1.66127,0.22897 -0.5706,0.28021 -0.92252,0.73765 -0.98347,1.27831 -0.11697,1.03785 0.43677,1.52695 2.89874,2.56031 1.50027,0.62971 2.29993,1.25905 2.72858,2.14741 0.32216,0.66765 0.37748,2.01301 0.11791,2.86759 -0.44574,1.4675 -1.65185,2.53322 -3.38468,2.9907 -0.85215,0.22498 -2.62297,0.27894 -3.77145,0.11493 z m 12.31064,0.0415 c -2.0258,-0.27109 -3.24289,-1.39931 -3.68494,-3.41587 -0.22105,-1.00837 -0.14116,-2.9181 0.15745,-3.76384 0.58231,-1.64926 1.83408,-2.84434 3.44282,-3.28692 0.39748,-0.10934 0.84429,-0.15038 1.60867,-0.14775 0.92277,0.003 1.14391,0.0329 1.72647,0.23236 1.56911,0.53712 2.44786,1.56982 2.79739,3.28747 0.17112,0.84087 0.17055,2.27499 -0.001,3.05602 -0.61433,2.79359 -3.07392,4.43633 -6.04666,4.03853 z m 1.94021,-2.22053 c 0.3876,-0.11797 0.9935,-0.68976 1.23224,-1.16289 0.31267,-0.61964 0.41006,-1.23461 0.36423,-2.29981 -0.0496,-1.15341 -0.2445,-1.7497 -0.72097,-2.20621 -0.50328,-0.4822 -0.82494,-0.60984 -1.54571,-0.61338 -1.02974,-0.005 -1.71708,0.45 -2.17105,1.43737 -0.40078,0.87168 -0.43382,2.4061 -0.0737,3.42463 0.45205,1.27863 1.57793,1.82721 2.91499,1.42029 z m 20.91979,2.18402 c -0.66626,-0.15285 -0.87775,-0.25434 -1.27171,-0.61025 -0.59928,-0.54142 -0.71769,-0.86071 -0.71783,-1.93572 0,-0.84208 0.0219,-0.97624 0.22995,-1.39983 0.65348,-1.33057 2.39837,-2.19954 4.69941,-2.34033 0.57704,-0.0353 0.9032,-0.0923 0.96679,-0.16891 0.13108,-0.15794 0.0447,-1.02587 -0.14098,-1.41725 -0.0934,-0.19675 -0.2882,-0.39254 -0.53397,-0.53657 -0.74644,-0.43745 -2.40829,-0.34729 -3.80909,0.20665 -0.2943,0.11638 -0.54921,0.19749 -0.56646,0.18024 -0.0447,-0.0447 -0.21078,-1.40977 -0.21078,-1.73281 0,-0.24809 0.0334,-0.28141 0.40217,-0.40074 0.96996,-0.3139 1.83457,-0.43085 3.19616,-0.43232 1.48631,-0.002 1.98613,0.0836 2.759,0.4701 0.82892,0.41458 1.27361,1.08746 1.42896,2.16224 0.0464,0.32094 0.0851,2.21338 0.086,4.20541 l 0.002,3.62189 -1.16417,-0.0236 -1.16417,-0.0236 0.0275,-0.68958 c 0.0151,-0.37928 -0.006,-0.71029 -0.0469,-0.73558 -0.0409,-0.0253 -0.29253,0.19788 -0.55911,0.49593 -0.56533,0.63205 -1.23694,0.99684 -2.09014,1.13527 -0.67862,0.1101 -0.9307,0.10501 -1.52236,-0.0307 z m 2.50089,-2.02659 c 0.59654,-0.27779 1.09901,-0.87509 1.30954,-1.55671 0.31081,-1.0063 0.25511,-1.12213 -0.53866,-1.12021 -1.23558,0.003 -2.28176,0.37235 -2.69474,0.95136 -0.26319,0.369 -0.27766,1.13898 -0.0267,1.42108 0.48487,0.54503 1.1957,0.65599 1.95056,0.30448 z m 14.32433,2.05237 c -2.62956,-0.33833 -3.9472,-2.00238 -3.98059,-5.02709 -0.0323,-2.92858 1.20737,-4.88648 3.45855,-5.46224 1.2262,-0.31361 2.60864,-0.17818 3.60567,0.35324 0.92567,0.49338 1.65084,1.51946 1.89803,2.68567 0.12709,0.59958 0.16307,2.26959 0.0526,2.44345 -0.0505,0.0796 -0.82995,0.11014 -3.23721,0.127 l -3.17065,0.0222 0.0134,0.57582 c 0.0452,1.95148 1.79876,2.81024 4.51632,2.2118 0.30268,-0.0667 0.71457,-0.18225 0.91531,-0.25688 0.20074,-0.0746 0.38227,-0.11839 0.4034,-0.0973 0.0702,0.0702 0.26071,1.7525 0.20808,1.83765 -0.0844,0.13658 -1.59054,0.4973 -2.47595,0.593 -0.93145,0.10067 -1.38509,0.0993 -2.20695,-0.006 z m 2.55313,-6.74349 c 0.12311,-0.23002 -0.0424,-0.94556 -0.3081,-1.3316 -0.63531,-0.92323 -2.15864,-0.99571 -2.96346,-0.14099 -0.40987,0.43528 -0.7447,1.37787 -0.55635,1.56621 0.031,0.031 0.88695,0.0565 1.90202,0.0565 1.67995,0 1.85279,-0.0135 1.92589,-0.15007 z m 4.85858,6.75386 c -0.38357,-0.0402 -0.74138,-0.10029 -0.79514,-0.13351 -0.07,-0.0433 -0.0816,-0.32566 -0.0409,-0.99597 0.0312,-0.51456 0.0717,-0.95046 0.0899,-0.96866 0.0182,-0.0182 0.2552,0.0152 0.52665,0.0742 0.27145,0.059 0.8936,0.10996 1.38255,0.11323 0.75608,0.005 0.94624,-0.0223 1.27184,-0.18273 0.45348,-0.22351 0.67549,-0.55858 0.67549,-1.01945 0,-0.60407 -0.4103,-0.92378 -1.86852,-1.45596 -1.77398,-0.64743 -2.33654,-1.39154 -2.26511,-2.99616 0.0292,-0.65519 0.0721,-0.84332 0.27894,-1.22215 0.48046,-0.87997 1.41295,-1.49431 2.67732,-1.76387 0.67415,-0.14373 2.54688,-0.12387 2.95056,0.0313 0.20318,0.0781 0.20645,0.0951 0.18422,0.96059 -0.0125,0.48459 -0.0484,0.90543 -0.0799,0.9352 -0.0315,0.0298 -0.36202,-0.001 -0.73455,-0.0693 -1.45473,-0.26512 -2.44401,0.0279 -2.65567,0.7867 -0.18774,0.67299 0.25495,1.12085 1.65992,1.67933 1.61831,0.64329 2.24449,1.19255 2.48034,2.17568 0.13616,0.56759 0.0657,1.45939 -0.15481,1.95775 -0.403,0.91107 -1.44718,1.6832 -2.65509,1.96333 -0.70952,0.16454 -2.03841,0.22379 -2.92809,0.13053 z m -36.79123,-0.12754 c -2.17754,-0.54938 -3.2075,-2.27522 -3.08176,-5.16392 0.079,-1.81572 0.511,-2.95882 1.4844,-3.92816 0.97302,-0.96899 2.09662,-1.37946 3.77999,-1.38092 0.90821,-7.6e-4 1.95163,0.14137 2.03566,0.27734 0.043,0.0695 -0.17587,2.01484 -0.23309,2.07206 -0.0175,0.0175 -0.25876,-0.0307 -0.53618,-0.10717 -0.27742,-0.0764 -0.82824,-0.14155 -1.22406,-0.14472 -0.62553,-0.005 -0.78353,0.0256 -1.20789,0.23398 -0.96068,0.47174 -1.45392,1.51219 -1.45168,3.06226 0.002,1.49478 0.40031,2.32052 1.34725,2.794 0.45637,0.22819 0.58543,0.25333 1.26999,0.24738 0.46443,-0.004 0.96954,-0.0665 1.29347,-0.15997 0.29231,-0.0843 0.55264,-0.13218 0.57852,-0.10631 0.0885,0.0885 0.22642,1.93369 0.15021,2.00976 -0.34113,0.34054 -3.22238,0.54226 -4.20483,0.29439 z m 6.17608,-0.098 c -0.031,-0.031 -0.0565,-2.33609 -0.0565,-5.12233 v -5.06589 h 1.27 1.27 v 5.12233 5.12233 h -1.21355 c -0.66746,0 -1.23896,-0.0254 -1.27,-0.0564 z m 14.96854,-0.0494 c -0.0222,-0.0582 -0.0305,-3.45863 -0.0185,-7.5565 l 0.0219,-7.45066 1.24884,-0.0234 1.24883,-0.0234 v 7.57993 7.57992 h -1.23033 c -0.90628,0 -1.24095,-0.0279 -1.27068,-0.10583 z m -14.39982,-11.81954 c -1.06291,-0.49865 -1.19061,-2.04138 -0.22133,-2.67381 0.17371,-0.11333 0.45263,-0.23078 0.61985,-0.26099 0.36144,-0.0653 0.95673,0.0799 1.28462,0.31342 0.54165,0.38569 0.72829,1.28995 0.39935,1.93473 -0.35886,0.70344 -1.35006,1.03026 -2.08249,0.68665 z m -29.36114,-9.11328 c -0.46106,-0.0658 -0.87358,-0.155 -0.91672,-0.19814 -0.0473,-0.0473 -0.0506,-0.51087 -0.008,-1.1683 l 0.0701,-1.08987 0.254,0.0102 c 0.1397,0.006 0.5588,0.0759 0.93133,0.15625 0.96967,0.2091 2.3305,0.21489 2.91336,0.0124 1.2949,-0.44986 1.75035,-1.88977 0.89662,-2.83474 -0.34508,-0.38196 -0.85187,-0.66758 -1.88223,-1.06078 -1.91958,-0.73254 -2.77802,-1.34327 -3.25773,-2.3177 -0.25477,-0.51751 -0.28121,-0.64615 -0.30811,-1.49919 -0.0246,-0.78142 -4e-5,-1.02024 0.15131,-1.46895 0.63521,-1.88317 2.41924,-2.89317 5.11042,-2.89317 0.95565,0 2.33607,0.13651 2.44365,0.24165 0.064,0.0626 -0.0575,1.99458 -0.13319,2.117 -0.0303,0.0489 -0.24096,0.0274 -0.53662,-0.0548 -0.33417,-0.0929 -0.85847,-0.13685 -1.67214,-0.14012 -1.12767,-0.005 -1.20849,0.007 -1.66127,0.22897 -0.5706,0.28021 -0.92252,0.73765 -0.98347,1.27831 -0.11697,1.03785 0.43677,1.52695 2.89874,2.56031 1.50027,0.62971 2.29993,1.25905 2.72858,2.14741 0.32216,0.66766 0.37748,2.01301 0.11791,2.86759 -0.44774,1.47408 -1.64409,2.53118 -3.38468,2.99071 -0.85215,0.22497 -2.62297,0.27894 -3.77145,0.11492 z m 12.51283,0.0426 c -1.66878,-0.23575 -2.83881,-0.99228 -3.44151,-2.22526 -0.43919,-0.89848 -0.52873,-1.40793 -0.52432,-2.983 0.004,-1.32757 0.0216,-1.49192 0.22984,-2.11666 0.72883,-2.1863 2.29857,-3.3377 4.55742,-3.34287 0.75525,-0.002 1.8128,0.24673 2.32309,0.54578 0.82316,0.48241 1.49401,1.42427 1.78117,2.50075 0.15287,0.57307 0.21701,2.40156 0.0914,2.60485 -0.0494,0.0799 -0.8098,0.10449 -3.22552,0.10449 -3.5617,0 -3.31832,-0.0508 -3.21334,0.67086 0.2054,1.41197 0.99425,2.14634 2.50884,2.33558 0.6109,0.0763 1.86436,-0.0827 2.67105,-0.33887 0.35809,-0.11371 0.67484,-0.17941 0.70391,-0.146 0.0879,0.10103 0.25621,1.73635 0.18537,1.80056 -0.11243,0.10189 -0.88627,0.32956 -1.55513,0.45754 -0.82213,0.15729 -2.4286,0.226 -3.09224,0.13225 z m 2.50752,-6.73272 c 0.22699,-0.2735 -0.0941,-1.22197 -0.56412,-1.66632 -0.32295,-0.30531 -0.65598,-0.42214 -1.21426,-0.426 -0.62384,-0.004 -1.11895,0.21339 -1.51902,0.66789 -0.46162,0.52442 -0.74713,1.3928 -0.49181,1.49582 0.0582,0.0235 0.91079,0.0457 1.89463,0.0494 1.49534,0.006 1.80616,-0.0142 1.89458,-0.12078 z m 42.67162,6.73703 c -1.15092,-0.1674 -1.97647,-0.55577 -2.6138,-1.22965 -0.72271,-0.76418 -1.04808,-1.59551 -1.19685,-3.05799 -0.39314,-3.86488 2.03258,-6.58207 5.66648,-6.34734 2.11485,0.13661 3.42595,1.09756 4.04821,2.96708 0.20542,0.61716 0.22584,0.79768 0.22987,2.032 0.004,1.27529 -0.0101,1.39897 -0.24339,2.1108 -0.71059,2.16821 -2.38221,3.42949 -4.71093,3.5545 -0.39266,0.0211 -0.92347,0.008 -1.17959,-0.0294 z m 2.17641,-2.32101 c 0.3995,-0.20659 0.9192,-0.83751 1.13214,-1.37443 0.17446,-0.43988 0.19913,-0.64599 0.20193,-1.68646 0.004,-1.37061 -0.11172,-1.8319 -0.60143,-2.40401 -0.37518,-0.43832 -0.81225,-0.66728 -1.40728,-0.73721 -1.78976,-0.21035 -2.99466,1.53359 -2.69172,3.89588 0.14955,1.1661 0.49478,1.83056 1.15083,2.21503 0.62625,0.36701 1.60432,0.40727 2.21553,0.0912 z m 6.22786,2.31524 c -0.38357,-0.0402 -0.74149,-0.10036 -0.79539,-0.13367 -0.07,-0.0432 -0.0827,-0.32689 -0.0447,-0.99221 0.0293,-0.5124 0.0703,-0.94863 0.091,-0.96938 0.0207,-0.0208 0.23656,0.005 0.47957,0.057 0.85831,0.18407 1.86535,0.20964 2.37875,0.0604 0.63926,-0.18583 1.0011,-0.5848 1.0011,-1.10381 0,-0.63886 -0.38623,-0.94628 -1.86852,-1.48725 -1.77399,-0.64742 -2.33654,-1.39153 -2.26511,-2.99615 0.0292,-0.6552 0.0721,-0.84333 0.27894,-1.22216 0.48038,-0.87981 1.4124,-1.49394 2.67732,-1.76411 0.6794,-0.14512 2.72457,-0.12199 3.00324,0.034 0.12247,0.0685 0.14132,0.21018 0.12767,0.95982 -0.009,0.48368 -0.0424,0.90378 -0.0746,0.93355 -0.0322,0.0298 -0.3634,-0.001 -0.73593,-0.0693 -1.45473,-0.26513 -2.44401,0.0279 -2.65568,0.78669 -0.18774,0.67299 0.25495,1.12085 1.65993,1.67933 1.61831,0.64329 2.24449,1.19255 2.48033,2.17569 0.13616,0.56758 0.0657,1.45938 -0.1548,1.95774 -0.40301,0.91107 -1.44718,1.6832 -2.65509,1.96333 -0.70952,0.16455 -2.03842,0.22379 -2.92809,0.13054 z m -22.4166,-0.11224 c -1.60739,-0.41274 -2.59001,-1.45695 -2.96744,-3.15344 -0.22278,-1.00133 -0.1399,-3.05891 0.16031,-3.97976 0.5372,-1.64779 1.71841,-2.76401 3.39979,-3.21274 0.62655,-0.16721 2.32085,-0.18894 3.06917,-0.0394 l 0.52917,0.10577 -0.006,0.39116 c -0.003,0.21513 -0.0507,0.69595 -0.10583,1.06848 -0.0762,0.51426 -0.1309,0.67379 -0.22733,0.66261 -0.0699,-0.008 -0.41275,-0.0782 -0.762,-0.15589 -2.29614,-0.51049 -3.69846,0.89607 -3.531,3.54167 0.0667,1.05363 0.24413,1.52406 0.77309,2.04976 0.77171,0.76694 1.59578,0.8636 3.53279,0.41436 l 0.22454,-0.0521 0.0596,0.70678 c 0.0328,0.38874 0.0651,0.85784 0.0718,1.04246 l 0.0122,0.33567 -0.55033,0.15883 c -0.71337,0.20588 -3.0464,0.27919 -3.683,0.11572 z m -24.68034,-5.17922 v -5.12234 h 1.19545 1.19545 l -0.0606,0.889 c -0.0375,0.55005 -0.0298,0.889 0.0202,0.889 0.0444,0 0.22028,-0.22601 0.39078,-0.50224 0.57652,-0.93403 1.505,-1.52976 2.38424,-1.52976 h 0.37783 l -8.5e-4,0.78317 c 0,0.43074 -0.0244,0.98031 -0.0534,1.22127 l -0.0526,0.4381 -0.51813,-0.001 c -0.8529,-0.002 -1.38725,0.30865 -1.78438,1.0383 -0.4649,0.85418 -0.49285,1.07291 -0.53178,4.16172 l -0.036,2.8575 h -1.26315 -1.26315 v -5.12233 z m 9.70318,5.05196 c -0.0254,-0.041 -0.86329,-2.28036 -1.86206,-4.97628 -0.99876,-2.69593 -1.84219,-4.96836 -1.87426,-5.04985 -0.0541,-0.13748 0.0425,-0.14817 1.33979,-0.14817 h 1.3981 l 0.1267,0.35984 c 1.25516,3.56479 1.84575,5.28639 1.96775,5.73616 0.15961,0.58841 0.28025,0.81019 0.38193,0.70209 0.0347,-0.0369 0.14733,-0.37189 0.25028,-0.74442 0.10294,-0.37253 0.60717,-1.88701 1.1205,-3.3655 l 0.93335,-2.68817 h 1.34874 c 1.24613,0 1.34514,0.0113 1.30134,0.14817 -0.0261,0.0815 -0.88172,2.37702 -1.90145,5.10117 l -1.85405,4.953 -1.31527,0.0233 c -0.72341,0.0128 -1.33604,-0.0103 -1.36139,-0.0513 z m 7.62527,0.0139 c -0.031,-0.031 -0.0564,-2.33609 -0.0564,-5.12233 v -5.06589 h 1.27 1.27 v 5.12234 5.12233 h -1.21355 c -0.66746,0 -1.23896,-0.0254 -1.27,-0.0565 z m 13.32089,-5.06588 v -5.12234 h 1.22766 1.22767 v 5.12234 5.12233 h -1.22767 -1.22766 z m -12.74584,-6.80027 c -0.43034,-0.20206 -0.77745,-0.60905 -0.85021,-0.99687 -0.20517,-1.09367 0.43748,-1.92814 1.48871,-1.93305 1.22012,-0.006 1.9459,1.1052 1.44412,2.2104 -0.32597,0.71797 -1.33988,1.06827 -2.08262,0.71952 z m 13.3964,0.0361 c -0.61336,-0.22795 -0.98923,-0.77832 -0.98923,-1.44851 0,-1.40593 1.70495,-2.06272 2.71989,-1.04777 0.68395,0.68394 0.49306,1.96688 -0.35816,2.40705 -0.36654,0.18955 -0.99298,0.23027 -1.3725,0.0892 z"
           style="fill:#00a4fa;fill-opacity:1;stroke-width:0.02636574" />
        <path
           inkscape:connector-curvature="0"
           id="path4570"
           d="m 113.6714,117.08524 v 42.46173"
           style="fill:none;fill-rule:evenodd;stroke:#7d7b7d;stroke-width:0.18684384;stroke-linecap:butt;stroke-linejoin:miter;stroke-miterlimit:4;stroke-dasharray:none;stroke-opacity:1" />
      </g>
    </g>
    <g
       id="g947"
       transform="matrix(0.00442716,0,0,0.00442716,36.716922,238.17399)"
       style="stroke-width:225.87889099">
      <g
         transform="translate(0,25.03468)"
         id="g852"
         style="stroke-width:225.87889099">
        <g
           id="g1089"
           style="fill:#f58f15;fill-opacity:1;stroke-width:225.87889099"
           transform="translate(0,6.5066766)">
          <path
             id="path1032-7"
             transform="matrix(0.26458333,0,0,0.26458333,36.436902,9.1333337)"
             d="m 471.42773,-1716.8574 a 1050,1049.9999 0 0 0 -1050,1049.99998 1050,1049.9999 0 0 0 1050,1050 1050,1049.9999 0 0 0 1049.99997,-1050 A 1050,1049.9999 0 0 0 471.42773,-1716.8574 Z m 0,350 a 700.00005,699.99999 0 0 1 699.99997,699.99998 700.00005,699.99999 0 0 1 -699.99997,699.999998 700.00005,699.99999 0 0 1 -700,-699.999998 700.00005,699.99999 0 0 1 700,-699.99998 z"
             style="opacity:1;fill:#f58f15;fill-opacity:1;stroke:none;stroke-width:225.87886047;stroke-opacity:1"
             inkscape:connector-curvature="0" />
          <path
             style="fill:#f58f15;fill-opacity:1;stroke-width:59.7637825"
             inkscape:connector-curvature="0"
             d="m 264.07972,-139.75807 29.48026,-16.60317 c 8.72819,-4.72638 8.62021,-17.31187 0.0771,-21.94368 l -29.64354,-16.65072 17.40947,-29.09958 c 4.96251,-8.38235 -1.29051,-19.21891 -11.02663,-19.11021 l -33.89059,0.53617 0.41019,-34.01259 c 0.26033,-9.56684 -10.70294,-16.02948 -19.029,-10.90833 l -29.15672,17.41773 -16.5432,-29.66497 c -4.59771,-8.5015 -17.3235,-8.5815 -21.93252,-0.0685 l -16.65024,29.66103 -29.08255,-17.41344 c -8.379688,-4.96484 -19.20995,1.2966 -19.102566,11.03543 l 0.530069,33.90759 -33.995575,-0.40514 c -9.721305,-0.26381 -16.100212,10.58568 -10.906229,19.03999 l 17.230673,29.12193 -29.47999,16.60258 c -8.728202,4.72646 -8.620304,17.31194 -0.07707,21.94376 l 29.643381,16.65072 -17.409478,29.09949 c -4.962514,8.38236 1.290597,19.218999 11.026717,19.110306 l 33.890678,-0.536183 -0.411052,34.012595 c -0.273175,10.040329 10.797994,15.971062 19.028922,10.908329 l 29.11099,-17.244368 16.58936,29.492211 c 4.5131,8.553405 17.25876,8.701412 21.9326,0.06852 l 16.64699,-29.661118 29.08205,17.41336 c 8.37924,4.964661 19.20994,-1.296604 19.10255,-11.035522 l -0.53008,-33.9075 33.99567,0.405135 c 9.72096,0.262952 16.0997,-10.585775 10.90597,-19.040675 z"
             id="path926-6" />
        </g>
      </g>
      <g
         id="g930"
         style="stroke-width:225.87889099">
        <path
           inkscape:connector-curvature="0"
           id="path883"
           style="font-style:normal;font-variant:normal;font-weight:normal;font-stretch:normal;font-size:medium;line-height:1;font-family:'Rounded Mplus 1c Bold';-inkscape-font-specification:'Rounded Mplus 1c Bold, ';text-align:center;letter-spacing:0px;word-spacing:0px;text-anchor:middle;fill:#f58f15;fill-opacity:1;stroke:none;stroke-width:59.76380157"
           d="m 754.15363,142.04783 q -117.05167,0 -185.94916,-71.860832 -68.15667,-72.6016651 -68.15667,-205.951658 0,-131.86833 65.93417,-204.47 66.67499,-73.3425 185.94916,-73.3425 54.82166,0 91.86333,6.6675 17.78,2.96334 29.63333,17.78 11.85333,14.81667 11.85333,33.3375 v 5.92667 q 0,15.5575 -13.335,24.4475 -12.59416,8.89 -27.41083,5.18583 -36.30083,-9.63083 -81.49166,-9.63083 -73.3425,0 -115.57,50.37666 -41.48666,50.37667 -41.48666,143.72167 0,92.604161 42.96833,143.7216593 43.70916,50.3766657 116.31083,50.3766657 48.895,0 83.71416,-8.89 14.81667,-3.704167 27.41083,5.185833 13.335,8.89 13.335,24.447499 v 5.185834 q 0,18.520829 -11.85333,33.337499 -11.1125,14.07583 -29.63333,17.03917 -42.2275,7.40833 -94.08583,7.40833 z" />
        <path
           inkscape:connector-curvature="0"
           id="path885"
           style="font-style:normal;font-variant:normal;font-weight:normal;font-stretch:normal;font-size:medium;line-height:1;font-family:'Rounded Mplus 1c Bold';-inkscape-font-specification:'Rounded Mplus 1c Bold, ';text-align:center;letter-spacing:0px;word-spacing:0px;text-anchor:middle;fill:#f58f15;fill-opacity:1;stroke:none;stroke-width:59.76379395"
           d="m 1356.2486,-60.680208 q 0,202.728038 -202.728,202.728038 -202.72797,0 -202.72797,-202.728038 V -370.77901 q 0,-17.26943 12.7643,-30.03379 12.7644,-12.76435 30.03377,-12.76435 h 21.0236 q 17.2695,0 30.0338,12.76435 12.7644,12.76436 12.7644,30.03379 v 316.105559 q 0,58.5658764 23.2761,84.845436 24.0271,25.528715 74.3336,25.528715 50.3067,0 73.5828,-25.528715 24.0271,-26.2795596 24.0271,-84.845436 V -370.77901 q 0,-17.26943 12.7643,-30.03379 12.7644,-12.76435 30.0338,-12.76435 h 18.0203 q 17.2694,0 30.0338,12.76435 12.7643,12.76436 12.7643,30.03379 z" />
        <path
           inkscape:connector-curvature="0"
           id="path887"
           style="font-style:normal;font-variant:normal;font-weight:normal;font-stretch:normal;font-size:medium;line-height:1;font-family:'Rounded Mplus 1c Bold';-inkscape-font-specification:'Rounded Mplus 1c Bold, ';text-align:center;letter-spacing:0px;word-spacing:0px;text-anchor:middle;fill:#f58f15;fill-opacity:1;stroke:none;stroke-width:59.76380539"
           d="m 1460.6996,142.04783 q -17.506,0 -30.4452,-12.93921 -12.9393,-12.93922 -12.9393,-30.445208 V -370.19275 q 0,-17.506 12.9393,-30.44522 12.9392,-12.9392 30.4452,-12.9392 h 258.7843 q 17.5059,0 30.4452,12.9392 12.9392,12.93922 12.9392,30.44522 0,17.50598 -12.9392,30.4452 -12.9393,12.17808 -30.4452,12.17808 h -188.7603 q -6.8502,0 -6.8502,6.85017 v 122.54195 q 0,6.85017 6.8502,6.85017 h 175.821 q 17.5061,0 28.923,12.17809 12.1781,12.17808 12.1781,28.92294 0,16.74487 -12.1781,28.92295 -11.4169,11.41695 -28.923,11.41695 h -175.821 q -6.8502,0 -6.8502,6.85017 V 49.189953 q 0,6.85017 6.8502,6.85017 h 188.7603 q 17.5059,0 30.4452,12.939213 12.9392,12.178083 12.9392,29.684076 0,17.505988 -12.9392,30.445208 -12.9393,12.93921 -30.4452,12.93921 z" />
        <path
           inkscape:connector-curvature="0"
           id="path889"
           style="font-style:normal;font-variant:normal;font-weight:normal;font-stretch:normal;font-size:medium;line-height:1;font-family:'Rounded Mplus 1c Bold';-inkscape-font-specification:'Rounded Mplus 1c Bold, ';text-align:center;letter-spacing:0px;word-spacing:0px;text-anchor:middle;fill:#f58f15;fill-opacity:1;stroke:none;stroke-width:59.76379395"
           d="m 1927.5514,-320.47242 v 162.93326 q 0,6.00676 6.7576,6.00676 h 37.5423 q 133.6503,0 133.6503,-95.35726 0,-84.84543 -123.8894,-84.84543 -22.5253,0 -47.3032,3.75422 -6.7576,1.50169 -6.7576,7.50845 z m -60.8184,462.52025 q -17.2694,0 -30.0337,-12.76436 -12.7644,-12.76436 -12.7644,-30.033785 V -359.51635 q 0,-18.02027 12.0135,-32.28631 12.0135,-14.26604 30.0338,-15.76774 63.8218,-6.00676 123.1385,-6.00676 110.3741,0 165.1858,41.29646 54.8117,40.54561 54.8117,114.87921 0,53.30997 -29.283,93.85558 -28.5321,40.54561 -77.3369,57.06418 -0.751,0 -0.751,0.75085 0,1.50169 0.751,1.50169 36.0405,22.525335 61.5692,88.599656 l 45.0507,117.882594 q 5.2558,14.26605 -3.7543,27.03041 -8.2592,12.76436 -23.2761,12.76436 h -23.2762 q -19.522,0 -35.2897,-10.51183 -15.7678,-11.26267 -22.5254,-29.28294 L 2058.9492,-13.377 q -13.5152,-36.040539 -30.7846,-47.303208 -17.2694,-11.262668 -59.3167,-11.262668 h -34.5389 q -6.7576,0 -6.7576,6.757601 v 164.43496 q 0,17.269425 -12.7644,30.033785 -12.0134,12.76436 -29.2829,12.76436 z" />
        <path
           inkscape:connector-curvature="0"
           id="path891"
           style="font-style:normal;font-variant:normal;font-weight:normal;font-stretch:normal;font-size:medium;line-height:1;font-family:'Rounded Mplus 1c Bold';-inkscape-font-specification:'Rounded Mplus 1c Bold, ';text-align:center;letter-spacing:0px;word-spacing:0px;text-anchor:middle;fill:#f58f15;fill-opacity:1;stroke:none;stroke-width:59.76379395"
           d="m 2375.7376,-320.47242 v 162.93326 q 0,6.00676 6.7576,6.00676 h 37.5423 q 133.6503,0 133.6503,-95.35726 0,-84.84543 -123.8894,-84.84543 -22.5253,0 -47.3032,3.75422 -6.7576,1.50169 -6.7576,7.50845 z m -60.8184,462.52025 q -17.2694,0 -30.0337,-12.76436 -12.7644,-12.76436 -12.7644,-30.033785 V -359.51635 q 0,-18.02027 12.0135,-32.28631 12.0135,-14.26604 30.0338,-15.76774 63.8218,-6.00676 123.1385,-6.00676 110.3741,0 165.1858,41.29646 54.8117,40.54561 54.8117,114.87921 0,53.30997 -29.283,93.85558 -28.5321,40.54561 -77.3369,57.06418 -0.751,0 -0.751,0.75085 0,1.50169 0.751,1.50169 36.0405,22.525335 61.5692,88.599656 l 45.0507,117.882594 q 5.2558,14.26605 -3.7543,27.03041 -8.2592,12.76436 -23.2762,12.76436 h -23.2761 q -19.522,0 -35.2897,-10.51183 -15.7678,-11.26267 -22.5254,-29.28294 L 2507.1354,-13.377 q -13.5152,-36.040539 -30.7846,-47.303208 -17.2694,-11.262668 -59.3167,-11.262668 h -34.5389 q -6.7576,0 -6.7576,6.757601 v 164.43496 q 0,17.269425 -12.7644,30.033785 -12.0134,12.76436 -29.2829,12.76436 z" />
        <path
           inkscape:connector-curvature="0"
           id="path893"
           style="font-style:normal;font-variant:normal;font-weight:normal;font-stretch:normal;font-size:medium;line-height:1;font-family:'Rounded Mplus 1c Bold';-inkscape-font-specification:'Rounded Mplus 1c Bold, ';text-align:center;letter-spacing:0px;word-spacing:0px;text-anchor:middle;fill:#f58f15;fill-opacity:1;stroke:none;stroke-width:59.76380539"
           d="m 2948.3257,-319.19704 -66.9794,238.994867 q -0.7612,2.283391 0.7611,4.566781 1.5223,2.283391 3.8057,2.283391 h 126.3475 q 2.2834,0 3.8057,-2.283391 1.5222,-2.28339 0.7611,-4.566781 L 2949.848,-319.19704 q 0,-0.76113 -0.7612,-0.76113 -0.7611,0 -0.7611,0.76113 z M 2751.193,142.04783 q -15.9837,0 -25.1173,-12.93921 -9.1335,-12.93922 -3.8057,-28.16182 l 157.554,-473.42294 q 6.8502,-18.26713 22.0728,-29.68408 15.9837,-11.41695 35.0119,-11.41695 h 27.4007 q 19.7894,0 35.012,11.41695 15.9837,11.41695 22.0728,29.68408 l 157.5539,473.42294 q 5.3279,15.2226 -3.8056,28.16182 -9.1336,12.93921 -25.1173,12.93921 h -27.4007 q -18.2672,0 -34.2509,-11.41695 -15.2225,-12.17809 -20.5505,-30.44521 L 3043.467,14.177965 q -0.7612,-6.0890406 -8.3725,-6.0890406 h -172.0153 q -6.8502,0 -8.3725,6.0890406 l -24.3562,86.007705 q -4.5668,18.26712 -20.5505,30.44521 -15.2226,11.41695 -34.2508,11.41695 z" />
        <path
           inkscape:connector-curvature="0"
           id="path895"
           style="font-style:normal;font-variant:normal;font-weight:normal;font-stretch:normal;font-size:medium;line-height:1;font-family:'Rounded Mplus 1c Bold';-inkscape-font-specification:'Rounded Mplus 1c Bold, ';text-align:center;letter-spacing:0px;word-spacing:0px;text-anchor:middle;fill:#cccccc;fill-opacity:1;stroke:none;stroke-width:59.76380157"
           d="m 3284.2051,142.04783 q -17.0392,0 -29.6333,-12.59417 -12.5942,-12.59417 -12.5942,-29.633333 V 58.333661 q 0,-17.039166 12.5942,-29.633332 12.5941,-12.594166 29.6333,-12.594166 h 34.0783 q 17.0392,0 29.6334,12.594166 12.5941,12.594166 12.5941,29.633332 v 41.486666 q 0,17.039163 -12.5941,29.633333 -12.5942,12.59417 -29.6334,12.59417 z" />
        <path
           inkscape:connector-curvature="0"
           id="path897"
           style="font-style:normal;font-variant:normal;font-weight:normal;font-stretch:normal;font-size:medium;line-height:1;font-family:'Rounded Mplus 1c Bold';-inkscape-font-specification:'Rounded Mplus 1c Bold, ';text-align:center;letter-spacing:0px;word-spacing:0px;text-anchor:middle;fill:#cccccc;fill-opacity:1;stroke:none;stroke-width:59.76380157"
           d="m 3675.6833,142.04783 q -117.0516,0 -185.9491,-71.860832 -68.1567,-72.6016651 -68.1567,-205.951658 0,-131.86833 65.9342,-204.47 66.675,-73.3425 185.9491,-73.3425 54.8217,0 91.8634,6.6675 17.78,2.96334 29.6333,17.78 11.8533,14.81667 11.8533,33.3375 v 5.92667 q 0,15.5575 -13.335,24.4475 -12.5941,8.89 -27.4108,5.18583 -36.3008,-9.63083 -81.4917,-9.63083 -73.3425,0 -115.57,50.37666 -41.4866,50.37667 -41.4866,143.72167 0,92.604161 42.9683,143.7216593 43.7092,50.3766657 116.3108,50.3766657 48.895,0 83.7142,-8.89 14.8167,-3.704167 27.4108,5.185833 13.335,8.89 13.335,24.447499 v 5.185834 q 0,18.520829 -11.8533,33.337499 -11.1125,14.07583 -29.6333,17.03917 -42.2275,7.40833 -94.0859,7.40833 z" />
        <path
           inkscape:connector-curvature="0"
           id="path899"
           style="font-style:normal;font-variant:normal;font-weight:normal;font-stretch:normal;font-size:medium;line-height:1;font-family:'Rounded Mplus 1c Bold';-inkscape-font-specification:'Rounded Mplus 1c Bold, ';text-align:center;letter-spacing:0px;word-spacing:0px;text-anchor:middle;fill:#cccccc;fill-opacity:1;stroke:none;stroke-width:59.76380157"
           d="m 4259.7781,-135.76466 q 0,-192.61666 -140.7584,-192.61666 -140.7583,0 -140.7583,192.61666 0,192.616658 140.7583,192.616658 140.7584,0 140.7584,-192.616658 z m 39.2641,204.469991 q -65.9341,73.342499 -180.0225,73.342499 -114.0883,0 -180.7633,-73.342499 -65.9341,-73.342498 -65.9341,-204.469991 0,-131.1275 65.9341,-204.47 66.675,-73.3425 180.7633,-73.3425 114.0884,0 180.0225,73.3425 66.675,73.3425 66.675,204.47 0,131.127493 -66.675,204.469991 z" />
        <path
           inkscape:connector-curvature="0"
           id="path901"
           style="font-style:normal;font-variant:normal;font-weight:normal;font-stretch:normal;font-size:medium;line-height:1;font-family:'Rounded Mplus 1c Bold';-inkscape-font-specification:'Rounded Mplus 1c Bold, ';text-align:center;letter-spacing:0px;word-spacing:0px;text-anchor:middle;fill:#cccccc;fill-opacity:1;stroke:none;stroke-width:59.76380539"
           d="m 4470.1683,142.04783 q -17.5061,0 -30.4452,-12.93921 -12.9393,-12.93922 -12.9393,-30.445208 V -370.19275 q 0,-17.506 12.9393,-30.44522 12.9391,-12.9392 30.4452,-12.9392 h 19.0282 q 19.7894,0 36.5342,10.65581 16.745,10.65583 24.3562,28.16182 l 133.1978,287.707197 q 0,0.761129 0.7612,0.761129 0.7611,0 0.7611,-0.761129 l 133.1977,-287.707197 q 7.6114,-17.50599 24.3562,-28.16182 16.7448,-10.65581 36.5343,-10.65581 h 22.0728 q 17.5059,0 30.4451,12.9392 12.9393,12.93922 12.9393,30.44522 V 98.663412 q 0,17.505988 -12.9393,30.445208 -12.9392,12.93921 -30.4451,12.93921 h -16.745 q -17.5059,0 -30.4451,-12.93921 -12.9393,-12.93922 -12.9393,-30.445208 V -232.4282 q 0,-0.76113 -0.7611,-0.76113 -0.7611,0 -0.7611,0.76113 l -91.3356,195.610446 q -8.3725,17.505993 -25.8785,28.922945 -16.7448,10.6558224 -35.773,10.6558224 h -4.5668 q -19.0283,0 -36.5343,-10.6558224 -16.7449,-11.416952 -25.1173,-28.922945 L 4528.7753,-232.4282 q 0,-0.76113 -0.7612,-0.76113 -0.7611,0 -0.7611,0.76113 V 98.663412 q 0,17.505988 -12.9392,30.445208 -12.9392,12.93921 -30.4452,12.93921 z" />
      </g>
    </g>
  </g>
</svg>
