<?xml version="1.0" encoding="UTF-8"?>
<svg width="512" height="512" version="1.1" viewBox="0 0 135.46666 135.46667" xmlns="http://www.w3.org/2000/svg" xmlns:cc="http://creativecommons.org/ns#" xmlns:dc="http://purl.org/dc/elements/1.1/" xmlns:rdf="http://www.w3.org/1999/02/22-rdf-syntax-ns#">
<defs>
<clipPath id="a">
<rect x="2.7271e-6" y="161.53" width="135.47" height="135.47" rx="21.167" ry="21.167"/>
</clipPath>
</defs>
<metadata>
<rdf:RDF>
<cc:Work rdf:about="">
<dc:format>image/svg+xml</dc:format>
<dc:type rdf:resource="http://purl.org/dc/dcmitype/StillImage"/>
<dc:title/>
</cc:Work>
</rdf:RDF>
</metadata>
<g transform="translate(0 -161.53)">
<g clip-path="url(#a)">
<g clip-path="none">
<path d="m0 161.53h135.47v23.107h-135.47z" clip-path="none" fill="#ed1c24"/>
<path transform="matrix(1 0 0 -1 -2.7271e-6 0)" d="m0-207.22h135.47l-1e-5 23.107-135.47 8e-5z" clip-path="none" fill="#f37221"/>
<path transform="scale(1,-1)" d="m0-229.8h135.47v23.107l-135.47-9e-5z" clip-path="none" fill="#fff200"/>
<path transform="scale(1,-1)" d="m0-252.37h135.47v23.107h-135.47z" clip-path="none" fill="#249e46"/>
<path transform="scale(1,-1)" d="m0-274.95h135.47v23.107l-135.47 8e-5z" clip-path="none" fill="#00aeef"/>
<path transform="scale(1,-1)" d="m-2.7271e-6 -297h135.47v22.578l-135.47-1e-5z" clip-path="none" fill="#623b88"/>
</g>
<path d="m34.702 272.17-0.7354-79.253 17.153-7.2117 38.726 35.709 9.1314-36.385 53.201 50.801-0.88736 73.203-78.2-0.05z" fill-opacity=".12549"/>
</g>
<g fill="#fff" aria-label="H">
<path d="m39.898 274.42q-2.8454 0-4.9485-2.1031-2.1031-2.1031-2.1031-4.9486v-76.208q0-2.8454 2.1031-4.9486t4.9485-2.1031h7.0517q2.8454 0 4.8248 2.1031 2.1031 2.1031 2.1031 4.9486v27.217q0 1.1134 1.1134 1.1134h25.485q1.1134 0 1.1134-1.1134v-27.217q0-2.8454 1.9794-4.9486 2.1031-2.1031 4.9485-2.1031h7.0517q2.8454 0 4.9485 2.1031 2.1031 2.1031 2.1031 4.9486v76.208q0 2.8454-2.1031 4.9486-2.1031 2.1031-4.9485 2.1031h-7.0517q-2.8454 0-4.9485-2.1031-1.9794-2.1031-1.9794-4.9486v-30.928q0-0.98971-1.1134-0.98971h-25.485q-1.1134 0-1.1134 0.98971v30.928q0 2.8454-2.1031 4.9486-1.9794 2.1031-4.8248 2.1031z" fill="#fff" stroke-width=".64434"/>
</g>
</g>
</svg>
